<?xml version="1.0" encoding="utf-8" standalone="no"?>
<!DOCTYPE svg PUBLIC "-//W3C//DTD SVG 1.1//EN"
  "http://www.w3.org/Graphics/SVG/1.1/DTD/svg11.dtd">
<!-- Created with matplotlib (https://matplotlib.org/) -->
<svg height="288pt" version="1.1" viewBox="0 0 720 288" width="720pt" xmlns="http://www.w3.org/2000/svg" xmlns:xlink="http://www.w3.org/1999/xlink">
 <defs>
  <style type="text/css">
*{stroke-linecap:butt;stroke-linejoin:round;}
  </style>
 </defs>
 <g id="figure_1">
  <g id="patch_1">
   <path d="M 0 288 
L 720 288 
L 720 0 
L 0 0 
z
" style="fill:#ffffff;"/>
  </g>
  <g id="axes_1">
   <g id="patch_2">
    <path d="M 90 252 
L 343.636364 252 
L 343.636364 34.56 
L 90 34.56 
z
" style="fill:#ffffff;"/>
   </g>
   <g id="matplotlib.axis_1">
    <g id="xtick_1">
     <g id="line2d_1">
      <defs>
       <path d="M 0 0 
L 0 3.5 
" id="m959e4c2b21" style="stroke:#000000;stroke-width:0.8;"/>
      </defs>
      <g>
       <use style="stroke:#000000;stroke-width:0.8;" x="101.528926" xlink:href="#m959e4c2b21" y="252"/>
      </g>
     </g>
     <g id="text_1">
      <!-- 0 -->
      <defs>
       <path d="M 3.125 29.296875 
Q 3.90625 50 6.4375 56.046875 
Q 8.984375 62.109375 13.671875 66.015625 
Q 18.359375 69.921875 25.1875 69.921875 
Q 32.03125 69.921875 37.109375 64.25 
Q 42.1875 58.59375 43.75 50 
Q 45.3125 41.40625 44.71875 30.265625 
Q 44.140625 19.140625 40.8125 12.109375 
Q 37.5 5.078125 30.859375 2.34375 
Q 24.21875 -0.390625 17.578125 2.921875 
Q 10.9375 6.25 8.203125 11.71875 
Q 5.46875 17.1875 4.296875 23.234375 
Q 3.125 29.296875 3.90625 50 
z
M 12.890625 52.734375 
Q 10.546875 31.25 12.5 22.84375 
Q 14.453125 14.453125 18.9375 10.9375 
Q 23.4375 7.421875 28.125 9.5625 
Q 32.8125 11.71875 34.953125 18.15625 
Q 37.109375 24.609375 37.109375 32.21875 
Q 37.109375 39.84375 36.515625 46.09375 
Q 35.9375 52.34375 33 57.421875 
Q 30.078125 62.5 25.1875 62.6875 
Q 20.3125 62.890625 16.59375 57.8125 
Q 12.890625 52.734375 10.546875 31.25 
z
" id="SimHei-48"/>
      </defs>
      <g transform="translate(99.028926 265.875)scale(0.1 -0.1)">
       <use xlink:href="#SimHei-48"/>
      </g>
     </g>
    </g>
    <g id="xtick_2">
     <g id="line2d_2">
      <g>
       <use style="stroke:#000000;stroke-width:0.8;" x="151.308397" xlink:href="#m959e4c2b21" y="252"/>
      </g>
     </g>
     <g id="text_2">
      <!-- 500 -->
      <defs>
       <path d="M 8.59375 20.703125 
Q 11.328125 10.15625 17.96875 8.984375 
Q 24.609375 7.8125 28.703125 10.34375 
Q 32.8125 12.890625 34.5625 16.984375 
Q 36.328125 21.09375 36.125 26.171875 
Q 35.9375 31.25 33.390625 34.765625 
Q 30.859375 38.28125 26.953125 39.453125 
Q 23.046875 40.625 18.15625 39.453125 
Q 13.28125 38.28125 10.15625 33.984375 
L 3.515625 34.765625 
Q 4.296875 37.109375 10.9375 68.359375 
L 41.796875 68.359375 
L 41.796875 61.328125 
L 16.796875 61.328125 
Q 14.84375 50.78125 12.890625 44.53125 
Q 18.75 47.265625 23.828125 47.0625 
Q 28.90625 46.875 33.59375 44.71875 
Q 38.28125 42.578125 40.421875 38.859375 
Q 42.578125 35.15625 43.546875 31.4375 
Q 44.53125 27.734375 44.328125 23.4375 
Q 44.140625 19.140625 42.578125 14.640625 
Q 41.015625 10.15625 37.890625 7.21875 
Q 34.765625 4.296875 30.265625 2.53125 
Q 25.78125 0.78125 19.921875 1.171875 
Q 14.0625 1.5625 8.78125 5.46875 
Q 3.515625 9.375 1.5625 18.75 
z
" id="SimHei-53"/>
      </defs>
      <g transform="translate(143.808397 265.875)scale(0.1 -0.1)">
       <use xlink:href="#SimHei-53"/>
       <use x="50" xlink:href="#SimHei-48"/>
       <use x="100" xlink:href="#SimHei-48"/>
      </g>
     </g>
    </g>
    <g id="xtick_3">
     <g id="line2d_3">
      <g>
       <use style="stroke:#000000;stroke-width:0.8;" x="201.087869" xlink:href="#m959e4c2b21" y="252"/>
      </g>
     </g>
     <g id="text_3">
      <!-- 1000 -->
      <defs>
       <path d="M 21.875 56.25 
Q 16.796875 51.171875 8.984375 46.484375 
L 8.984375 53.90625 
Q 18.75 60.546875 25 69.53125 
L 29.6875 69.53125 
L 29.6875 2.34375 
L 21.875 2.34375 
z
" id="SimHei-49"/>
      </defs>
      <g transform="translate(191.087869 265.875)scale(0.1 -0.1)">
       <use xlink:href="#SimHei-49"/>
       <use x="50" xlink:href="#SimHei-48"/>
       <use x="100" xlink:href="#SimHei-48"/>
       <use x="150" xlink:href="#SimHei-48"/>
      </g>
     </g>
    </g>
    <g id="xtick_4">
     <g id="line2d_4">
      <g>
       <use style="stroke:#000000;stroke-width:0.8;" x="250.86734" xlink:href="#m959e4c2b21" y="252"/>
      </g>
     </g>
     <g id="text_4">
      <!-- 1500 -->
      <g transform="translate(240.86734 265.875)scale(0.1 -0.1)">
       <use xlink:href="#SimHei-49"/>
       <use x="50" xlink:href="#SimHei-53"/>
       <use x="100" xlink:href="#SimHei-48"/>
       <use x="150" xlink:href="#SimHei-48"/>
      </g>
     </g>
    </g>
    <g id="xtick_5">
     <g id="line2d_5">
      <g>
       <use style="stroke:#000000;stroke-width:0.8;" x="300.646812" xlink:href="#m959e4c2b21" y="252"/>
      </g>
     </g>
     <g id="text_5">
      <!-- 2000 -->
      <defs>
       <path d="M 4.6875 3.90625 
Q 5.078125 9.765625 10.15625 14.453125 
Q 15.234375 19.140625 23.046875 29.09375 
Q 30.859375 39.0625 33.203125 44.53125 
Q 35.546875 50 34.953125 53.90625 
Q 34.375 57.8125 31.25 60.34375 
Q 28.125 62.890625 24.015625 62.5 
Q 19.921875 62.109375 16.203125 59.375 
Q 12.5 56.640625 10.546875 51.171875 
L 3.125 52.34375 
Q 6.25 61.328125 11.125 65.421875 
Q 16.015625 69.53125 22.65625 69.921875 
Q 26.5625 70.3125 29.6875 69.71875 
Q 32.8125 69.140625 36.125 66.984375 
Q 39.453125 64.84375 41.59375 60.546875 
Q 43.75 56.25 43.15625 50.1875 
Q 42.578125 44.140625 37.109375 35.734375 
Q 31.640625 27.34375 16.015625 9.375 
L 44.140625 9.375 
L 44.140625 2.34375 
L 4.6875 2.34375 
z
" id="SimHei-50"/>
      </defs>
      <g transform="translate(290.646812 265.875)scale(0.1 -0.1)">
       <use xlink:href="#SimHei-50"/>
       <use x="50" xlink:href="#SimHei-48"/>
       <use x="100" xlink:href="#SimHei-48"/>
       <use x="150" xlink:href="#SimHei-48"/>
      </g>
     </g>
    </g>
    <g id="text_6">
     <!-- 缺失段序号 -->
     <defs>
      <path d="M 88.671875 -9.375 
Q 79.6875 -2.34375 74.21875 5.265625 
Q 68.75 12.890625 66.40625 20.3125 
Q 63.28125 8.984375 57.03125 1.359375 
Q 50.78125 -6.25 45.3125 -10.546875 
Q 42.1875 -6.640625 38.671875 -5.46875 
Q 44.53125 -2.34375 50.96875 5.46875 
Q 57.421875 13.28125 60.9375 28.125 
Q 53.90625 28.125 46.484375 27.734375 
L 46.484375 34.375 
Q 53.515625 33.984375 61.71875 33.984375 
Q 62.109375 41.40625 62.5 55.46875 
Q 55.859375 55.46875 49.21875 55.078125 
L 49.21875 62.109375 
Q 55.859375 61.71875 62.5 61.71875 
Q 62.5 75 62.109375 81.25 
Q 66.40625 80.46875 71.484375 80.078125 
Q 70.703125 76.953125 70.3125 71.484375 
Q 69.921875 66.015625 69.921875 61.71875 
L 88.28125 61.71875 
Q 87.5 55.078125 87.5 49.21875 
L 87.109375 33.984375 
Q 90.234375 33.984375 95.703125 34.375 
L 95.703125 27.734375 
Q 89.0625 28.125 84.375 28.125 
L 71.09375 28.125 
Q 74.21875 16.40625 81.640625 8.203125 
Q 89.0625 0 95.703125 -3.125 
Q 91.015625 -5.46875 88.671875 -9.375 
z
M 8.984375 47.65625 
Q 6.25 50 1.953125 51.171875 
Q 7.8125 58.59375 11.71875 66.40625 
Q 15.625 74.21875 16.796875 78.90625 
Q 21.09375 77.34375 25.390625 76.171875 
Q 23.046875 73.828125 17.96875 63.28125 
L 32.8125 63.28125 
Q 39.0625 63.28125 45.3125 63.671875 
L 45.3125 56.640625 
Q 38.671875 57.03125 30.859375 57.03125 
L 30.859375 42.96875 
Q 38.671875 42.96875 46.484375 43.359375 
L 46.484375 36.71875 
Q 38.671875 37.109375 30.859375 37.109375 
L 30.859375 7.8125 
L 37.890625 8.59375 
Q 37.890625 25 37.5 28.515625 
L 45.3125 28.515625 
Q 44.921875 25.390625 44.921875 21.484375 
L 44.921875 1.171875 
L 37.890625 1.171875 
L 37.890625 3.125 
L 8.203125 -0.390625 
Q 8.59375 6.640625 8.59375 12.5 
Q 8.59375 18.75 8.203125 26.953125 
L 15.625 26.953125 
Q 15.234375 22.65625 15.234375 6.640625 
L 23.828125 7.421875 
L 23.828125 36.71875 
Q 10.9375 36.71875 5.078125 36.328125 
L 5.078125 43.359375 
Q 10.9375 42.96875 23.828125 42.96875 
L 23.828125 57.03125 
L 14.84375 57.03125 
Q 12.109375 51.953125 8.984375 47.65625 
z
M 79.6875 33.984375 
L 80.078125 55.46875 
L 69.53125 55.46875 
Q 69.140625 38.671875 69.140625 33.984375 
z
" id="SimHei-32570"/>
      <path d="M 32.03125 69.53125 
Q 30.078125 67.578125 26.171875 58.59375 
L 46.09375 58.59375 
Q 46.09375 72.65625 45.703125 79.6875 
Q 49.609375 79.296875 54.6875 78.90625 
Q 53.90625 73.4375 53.703125 69.140625 
Q 53.515625 64.84375 53.515625 58.59375 
L 71.875 58.59375 
Q 78.125 58.59375 84.765625 58.984375 
L 84.765625 51.5625 
Q 78.515625 51.953125 71.875 51.953125 
L 53.515625 51.953125 
Q 53.515625 43.359375 52.734375 34.375 
L 78.90625 34.375 
Q 84.765625 34.375 91.796875 34.765625 
L 91.796875 27.34375 
Q 84.765625 27.734375 78.90625 27.734375 
L 55.859375 27.734375 
Q 60.546875 17.1875 71.875 10.546875 
Q 83.203125 3.90625 94.140625 1.5625 
Q 91.015625 -2.34375 88.671875 -7.421875 
Q 77.34375 -3.125 66.40625 4.484375 
Q 55.46875 12.109375 50 23.046875 
Q 45.3125 12.890625 36.328125 4.6875 
Q 27.34375 -3.515625 12.109375 -10.15625 
Q 10.15625 -6.25 6.25 -2.734375 
Q 19.53125 0.78125 29.875 9.171875 
Q 40.234375 17.578125 43.359375 27.734375 
L 20.703125 27.734375 
Q 14.453125 27.734375 7.03125 27.34375 
L 7.03125 34.765625 
Q 14.453125 34.375 20.703125 34.375 
L 44.921875 34.375 
Q 46.09375 42.578125 46.09375 51.953125 
L 23.4375 51.953125 
Q 18.75 43.75 15.234375 38.28125 
Q 12.109375 40.234375 7.8125 41.796875 
Q 14.84375 50.390625 18.546875 58.59375 
Q 22.265625 66.796875 23.4375 73.046875 
Q 28.125 70.703125 32.03125 69.53125 
z
" id="SimHei-22833"/>
      <path d="M 85.9375 38.671875 
Q 83.59375 27.734375 79.6875 19.328125 
Q 75.78125 10.9375 71.875 6.25 
Q 75.390625 3.515625 82.03125 1.359375 
Q 88.671875 -0.78125 95.703125 -1.953125 
Q 92.96875 -4.296875 91.015625 -10.15625 
Q 80.46875 -7.03125 75.390625 -4.484375 
Q 70.3125 -1.953125 66.015625 1.171875 
Q 59.765625 -2.734375 53.90625 -5.265625 
Q 48.046875 -7.8125 41.015625 -10.15625 
Q 39.453125 -6.25 36.328125 -3.515625 
Q 41.796875 -2.34375 48.4375 0 
Q 55.078125 2.34375 61.328125 6.640625 
Q 58.203125 10.546875 55.078125 17.96875 
Q 51.953125 25 50.390625 32.421875 
Q 47.65625 32.421875 45.3125 32.421875 
L 45.3125 39.0625 
Q 52.734375 38.671875 59.375 38.671875 
z
M 41.40625 72.265625 
Q 35.9375 71.09375 29.484375 69.921875 
Q 23.046875 68.75 20.3125 68.359375 
L 20.3125 55.46875 
Q 32.03125 55.46875 39.453125 56.25 
L 39.453125 48.828125 
Q 32.03125 49.21875 20.3125 49.21875 
L 20.3125 36.71875 
Q 32.03125 36.71875 39.453125 37.109375 
L 39.453125 29.6875 
Q 32.03125 30.078125 20.3125 30.078125 
L 20.3125 15.234375 
Q 30.46875 16.796875 41.015625 19.53125 
Q 40.625 15.625 40.625 12.109375 
Q 29.6875 10.546875 20.3125 8.203125 
L 20.3125 1.5625 
Q 20.3125 -3.125 20.703125 -9.765625 
L 12.5 -9.765625 
Q 12.890625 -3.125 12.890625 1.5625 
L 12.890625 6.640625 
Q 8.984375 5.859375 5.46875 4.6875 
Q 4.6875 10.15625 3.90625 12.890625 
Q 7.8125 13.28125 12.890625 14.0625 
L 12.890625 59.375 
Q 12.890625 66.015625 12.5 73.828125 
Q 17.1875 73.828125 24.609375 75.390625 
Q 32.03125 76.953125 37.109375 80.078125 
Q 38.671875 75.78125 41.40625 72.265625 
z
M 79.6875 77.734375 
Q 79.296875 71.875 79.296875 66.796875 
L 79.296875 57.03125 
Q 79.296875 53.515625 81.828125 52.921875 
Q 84.375 52.34375 93.359375 53.125 
Q 91.796875 50.390625 91.40625 46.09375 
L 79.296875 46.09375 
Q 72.65625 46.09375 72.265625 52.734375 
L 72.265625 71.484375 
L 58.984375 71.484375 
Q 58.984375 61.328125 57.421875 55.078125 
Q 55.859375 48.828125 50 42.578125 
Q 47.265625 45.3125 43.75 47.65625 
Q 51.171875 53.125 51.5625 61.515625 
Q 51.953125 69.921875 51.5625 77.734375 
L 79.6875 77.734375 
z
M 57.421875 32.8125 
Q 58.984375 26.171875 61.90625 20.109375 
Q 64.84375 14.0625 66.796875 12.109375 
Q 69.53125 14.84375 72.265625 20.5 
Q 75 26.171875 76.5625 32.8125 
L 59.375 32.8125 
z
" id="SimHei-27573"/>
      <path d="M 62.5 32.421875 
L 93.359375 32.421875 
Q 89.84375 23.828125 87.109375 16.015625 
Q 83.203125 17.1875 78.90625 17.96875 
Q 80.859375 22.65625 82.421875 26.5625 
L 63.28125 26.5625 
L 63.28125 2.34375 
Q 63.28125 -5.859375 58.78125 -7.21875 
Q 54.296875 -8.59375 46.09375 -8.984375 
Q 44.921875 -4.6875 42.96875 0 
Q 52.34375 -1.171875 54.296875 0.390625 
Q 56.25 1.953125 55.859375 5.859375 
L 55.859375 26.5625 
L 38.28125 26.5625 
Q 32.03125 26.5625 26.171875 26.171875 
L 26.171875 32.8125 
Q 32.8125 32.421875 37.890625 32.421875 
L 57.421875 32.421875 
Q 51.953125 37.5 44.921875 43.359375 
Q 46.484375 44.921875 50.78125 48.4375 
Q 53.125 46.484375 58.203125 42.578125 
L 71.484375 51.171875 
L 46.875 51.171875 
Q 37.5 51.171875 30.46875 50.78125 
L 30.46875 57.8125 
Q 37.5 57.421875 46.875 57.421875 
L 84.375 57.421875 
L 84.375 50.78125 
Q 73.4375 44.921875 62.890625 38.28125 
L 66.796875 35.15625 
z
M 58.203125 82.421875 
Q 59.765625 76.953125 61.328125 70.703125 
L 75.78125 70.703125 
Q 84.765625 70.703125 93.75 71.09375 
L 93.75 64.453125 
Q 84.765625 64.84375 75.78125 64.84375 
L 21.875 64.84375 
Q 21.875 42.96875 21.28125 33.390625 
Q 20.703125 23.828125 18.75 13.859375 
Q 16.796875 3.90625 12.109375 -5.46875 
Q 9.765625 -3.90625 3.90625 -1.953125 
Q 7.421875 4.6875 9.375 10.9375 
Q 11.328125 17.1875 12.5 25.578125 
Q 13.671875 33.984375 13.671875 44.140625 
Q 13.671875 54.6875 13.28125 70.703125 
L 52.34375 70.703125 
Q 51.171875 75.390625 49.21875 80.46875 
Q 53.515625 81.25 58.203125 82.421875 
z
" id="SimHei-24207"/>
      <path d="M 78.515625 76.953125 
Q 78.125 71.09375 78.125 63.671875 
Q 78.125 56.25 78.515625 49.609375 
L 21.875 49.609375 
Q 22.265625 55.078125 22.265625 62.5 
Q 22.265625 70.3125 21.875 76.953125 
L 78.515625 76.953125 
z
M 80.859375 41.015625 
Q 88.28125 41.015625 94.140625 41.40625 
L 94.140625 34.375 
Q 88.28125 34.765625 80.859375 34.765625 
L 38.28125 34.765625 
Q 36.71875 29.296875 34.765625 22.65625 
L 80.859375 22.65625 
Q 79.6875 16.40625 79.09375 12.109375 
Q 78.515625 7.8125 77.34375 1.75 
Q 76.171875 -4.296875 72.65625 -6.4375 
Q 69.140625 -8.59375 50.390625 -9.765625 
Q 48.828125 -5.46875 46.484375 -0.78125 
Q 60.546875 -1.171875 64.25 -0.78125 
Q 67.96875 -0.390625 69.140625 3.3125 
Q 70.3125 7.03125 71.484375 16.015625 
L 25 16.015625 
Q 28.515625 25.390625 30.46875 34.765625 
L 21.09375 34.765625 
Q 12.890625 34.765625 5.859375 34.375 
L 5.859375 41.40625 
Q 12.890625 41.015625 21.09375 41.015625 
z
M 70.703125 55.859375 
L 70.703125 70.703125 
L 29.6875 70.703125 
L 29.6875 55.859375 
z
" id="SimHei-21495"/>
     </defs>
     <g transform="translate(191.818182 279.171875)scale(0.1 -0.1)">
      <use xlink:href="#SimHei-32570"/>
      <use x="100" xlink:href="#SimHei-22833"/>
      <use x="200" xlink:href="#SimHei-27573"/>
      <use x="300" xlink:href="#SimHei-24207"/>
      <use x="400" xlink:href="#SimHei-21495"/>
     </g>
    </g>
   </g>
   <g id="matplotlib.axis_2">
    <g id="ytick_1">
     <g id="line2d_6">
      <defs>
       <path d="M 0 0 
L -3.5 0 
" id="m53768ede81" style="stroke:#000000;stroke-width:0.8;"/>
      </defs>
      <g>
       <use style="stroke:#000000;stroke-width:0.8;" x="90" xlink:href="#m53768ede81" y="244.362645"/>
      </g>
     </g>
     <g id="text_7">
      <!-- 0 -->
      <g transform="translate(78 247.800145)scale(0.1 -0.1)">
       <use xlink:href="#SimHei-48"/>
      </g>
     </g>
    </g>
    <g id="ytick_2">
     <g id="line2d_7">
      <g>
       <use style="stroke:#000000;stroke-width:0.8;" x="90" xlink:href="#m53768ede81" y="216.284132"/>
      </g>
     </g>
     <g id="text_8">
      <!-- 25 -->
      <g transform="translate(73 219.721632)scale(0.1 -0.1)">
       <use xlink:href="#SimHei-50"/>
       <use x="50" xlink:href="#SimHei-53"/>
      </g>
     </g>
    </g>
    <g id="ytick_3">
     <g id="line2d_8">
      <g>
       <use style="stroke:#000000;stroke-width:0.8;" x="90" xlink:href="#m53768ede81" y="188.20562"/>
      </g>
     </g>
     <g id="text_9">
      <!-- 50 -->
      <g transform="translate(73 191.64312)scale(0.1 -0.1)">
       <use xlink:href="#SimHei-53"/>
       <use x="50" xlink:href="#SimHei-48"/>
      </g>
     </g>
    </g>
    <g id="ytick_4">
     <g id="line2d_9">
      <g>
       <use style="stroke:#000000;stroke-width:0.8;" x="90" xlink:href="#m53768ede81" y="160.127107"/>
      </g>
     </g>
     <g id="text_10">
      <!-- 75 -->
      <defs>
       <path d="M 13.28125 2.34375 
Q 20.3125 32.03125 37.890625 61.328125 
L 4.296875 61.328125 
L 4.296875 68.359375 
L 46.09375 68.359375 
L 46.09375 61.71875 
Q 27.734375 32.03125 21.875 2.34375 
L 13.28125 2.34375 
z
" id="SimHei-55"/>
      </defs>
      <g transform="translate(73 163.564607)scale(0.1 -0.1)">
       <use xlink:href="#SimHei-55"/>
       <use x="50" xlink:href="#SimHei-53"/>
      </g>
     </g>
    </g>
    <g id="ytick_5">
     <g id="line2d_10">
      <g>
       <use style="stroke:#000000;stroke-width:0.8;" x="90" xlink:href="#m53768ede81" y="132.048595"/>
      </g>
     </g>
     <g id="text_11">
      <!-- 100 -->
      <g transform="translate(68 135.486095)scale(0.1 -0.1)">
       <use xlink:href="#SimHei-49"/>
       <use x="50" xlink:href="#SimHei-48"/>
       <use x="100" xlink:href="#SimHei-48"/>
      </g>
     </g>
    </g>
    <g id="ytick_6">
     <g id="line2d_11">
      <g>
       <use style="stroke:#000000;stroke-width:0.8;" x="90" xlink:href="#m53768ede81" y="103.970083"/>
      </g>
     </g>
     <g id="text_12">
      <!-- 125 -->
      <g transform="translate(68 107.407583)scale(0.1 -0.1)">
       <use xlink:href="#SimHei-49"/>
       <use x="50" xlink:href="#SimHei-50"/>
       <use x="100" xlink:href="#SimHei-53"/>
      </g>
     </g>
    </g>
    <g id="ytick_7">
     <g id="line2d_12">
      <g>
       <use style="stroke:#000000;stroke-width:0.8;" x="90" xlink:href="#m53768ede81" y="75.89157"/>
      </g>
     </g>
     <g id="text_13">
      <!-- 150 -->
      <g transform="translate(68 79.32907)scale(0.1 -0.1)">
       <use xlink:href="#SimHei-49"/>
       <use x="50" xlink:href="#SimHei-53"/>
       <use x="100" xlink:href="#SimHei-48"/>
      </g>
     </g>
    </g>
    <g id="ytick_8">
     <g id="line2d_13">
      <g>
       <use style="stroke:#000000;stroke-width:0.8;" x="90" xlink:href="#m53768ede81" y="47.813058"/>
      </g>
     </g>
     <g id="text_14">
      <!-- 175 -->
      <g transform="translate(68 51.250558)scale(0.1 -0.1)">
       <use xlink:href="#SimHei-49"/>
       <use x="50" xlink:href="#SimHei-55"/>
       <use x="100" xlink:href="#SimHei-53"/>
      </g>
     </g>
    </g>
    <g id="text_15">
     <!-- 缺失时间(秒) -->
     <defs>
      <path d="M 39.453125 71.484375 
Q 39.0625 57.421875 39.0625 37.5 
Q 39.0625 17.578125 39.453125 6.25 
L 31.25 6.25 
L 31.25 13.671875 
L 15.625 13.671875 
L 15.625 0.78125 
L 7.421875 0.78125 
Q 7.8125 18.75 7.8125 36.71875 
Q 7.8125 55.078125 7.421875 71.484375 
L 39.453125 71.484375 
z
M 76.171875 59.765625 
Q 76.171875 71.484375 75.78125 81.640625 
L 84.375 81.640625 
Q 83.984375 71.484375 83.984375 59.765625 
Q 89.84375 59.765625 96.484375 60.15625 
L 96.484375 52.734375 
Q 89.84375 53.125 83.984375 53.125 
L 83.984375 0.78125 
Q 83.984375 -5.078125 79.296875 -6.640625 
Q 74.609375 -8.203125 67.1875 -8.984375 
Q 67.1875 -4.296875 62.890625 0 
Q 70.3125 -0.78125 73.234375 -0.390625 
Q 76.171875 0 76.171875 4.6875 
L 76.171875 53.125 
Q 56.640625 53.125 43.359375 52.734375 
L 43.359375 60.15625 
Q 55.859375 59.765625 76.171875 59.765625 
z
M 31.25 20.3125 
L 31.25 39.84375 
L 15.625 39.84375 
L 15.625 20.3125 
z
M 31.25 46.484375 
L 31.25 64.84375 
L 15.625 64.84375 
L 15.625 46.484375 
z
M 55.46875 42.578125 
Q 60.546875 34.375 65.234375 25 
Q 61.328125 23.828125 57.03125 21.484375 
Q 53.90625 30.859375 48.046875 39.0625 
Q 51.5625 40.625 55.46875 42.578125 
z
" id="SimHei-26102"/>
      <path d="M 69.53125 55.46875 
Q 69.140625 48.046875 69.140625 42.578125 
L 69.140625 21.875 
Q 69.140625 16.796875 69.53125 9.765625 
L 30.078125 9.765625 
Q 30.46875 16.796875 30.46875 22.265625 
L 30.46875 42.578125 
Q 30.46875 48.046875 30.078125 55.46875 
L 69.53125 55.46875 
z
M 90.625 76.171875 
Q 90.234375 68.75 90.234375 61.328125 
L 90.234375 3.90625 
Q 90.625 -5.078125 85.34375 -7.03125 
Q 80.078125 -8.984375 73.828125 -9.765625 
Q 73.4375 -5.078125 70.703125 -0.390625 
Q 78.125 -0.78125 80.265625 0.390625 
Q 82.421875 1.5625 82.421875 5.46875 
L 82.421875 69.53125 
L 58.984375 69.53125 
Q 49.609375 69.53125 41.40625 69.140625 
L 41.40625 76.5625 
Q 49.609375 76.171875 58.984375 76.171875 
z
M 8.59375 -8.203125 
Q 9.375 -0.390625 9.375 8.203125 
L 9.375 49.21875 
Q 9.375 57.421875 8.59375 62.890625 
L 17.578125 62.890625 
Q 17.1875 57.03125 17.1875 51.5625 
L 17.1875 7.8125 
Q 17.1875 0 17.578125 -8.203125 
z
M 61.71875 16.015625 
L 61.71875 30.46875 
L 37.890625 30.46875 
L 37.890625 16.015625 
z
M 61.71875 36.71875 
L 61.71875 49.21875 
L 37.890625 49.21875 
L 37.890625 36.71875 
z
M 23.828125 82.8125 
Q 27.34375 78.125 34.765625 67.96875 
Q 30.46875 66.015625 26.5625 63.671875 
Q 22.65625 71.484375 16.796875 78.515625 
Q 21.09375 81.640625 23.828125 82.8125 
z
" id="SimHei-38388"/>
      <path d="M 46.484375 -3.125 
L 42.1875 -7.421875 
Q 32.421875 1.953125 27.53125 12.109375 
Q 22.65625 22.265625 22.65625 35.15625 
Q 22.65625 48.046875 27.53125 58.203125 
Q 32.421875 68.359375 42.1875 78.125 
L 46.484375 73.828125 
Q 37.5 65.234375 33 56.046875 
Q 28.515625 46.875 28.515625 35.15625 
Q 28.515625 23.4375 33 14.25 
Q 37.5 5.078125 46.484375 -3.125 
z
" id="SimHei-40"/>
      <path d="M 42.578125 71.09375 
Q 38.671875 70.703125 35.9375 70.109375 
Q 33.203125 69.53125 30.078125 68.75 
L 30.078125 51.953125 
Q 35.15625 51.953125 42.1875 52.34375 
L 42.1875 44.921875 
Q 35.15625 45.3125 30.078125 45.3125 
L 30.078125 2.734375 
Q 30.078125 -2.34375 30.46875 -10.15625 
L 21.875 -10.15625 
Q 22.65625 -2.34375 22.65625 2.734375 
L 22.65625 26.953125 
Q 20.3125 21.484375 16.984375 15.625 
Q 13.671875 9.765625 9.765625 5.859375 
Q 7.03125 9.765625 3.515625 13.28125 
Q 9.375 17.96875 14.0625 26.171875 
Q 18.75 34.375 21.484375 45.3125 
L 19.921875 45.3125 
Q 13.28125 45.3125 5.078125 44.921875 
L 5.078125 52.34375 
Q 13.28125 51.953125 19.921875 51.953125 
L 23.046875 51.953125 
L 23.046875 67.1875 
Q 16.015625 65.234375 10.546875 64.0625 
Q 8.984375 67.1875 6.640625 70.3125 
Q 14.84375 71.484375 22.0625 73.234375 
Q 29.296875 75 37.5 78.90625 
Q 39.453125 75 42.578125 71.09375 
z
M 92.96875 32.8125 
Q 89.0625 29.296875 86.125 23.4375 
Q 83.203125 17.578125 77.921875 11.328125 
Q 72.65625 5.078125 64.453125 -0.1875 
Q 56.25 -5.46875 41.015625 -9.765625 
Q 39.84375 -5.078125 36.71875 -0.78125 
Q 46.484375 0 54.09375 2.921875 
Q 61.71875 5.859375 67.1875 10.9375 
Q 72.65625 16.015625 76.5625 22.65625 
Q 80.46875 29.296875 82.8125 37.109375 
Q 85.546875 35.9375 92.96875 32.8125 
z
M 71.484375 82.421875 
Q 71.09375 76.171875 71.09375 68.75 
L 71.09375 36.328125 
Q 71.09375 30.078125 71.484375 22.265625 
L 63.671875 22.265625 
Q 64.0625 30.46875 64.0625 36.328125 
L 64.0625 68.75 
Q 64.0625 75.390625 63.671875 82.421875 
L 71.484375 82.421875 
z
M 59.375 61.328125 
Q 57.421875 56.640625 55.46875 46.484375 
Q 53.515625 36.328125 51.953125 30.859375 
Q 46.875 32.03125 43.359375 33.203125 
Q 45.3125 36.71875 47.265625 45.3125 
Q 49.21875 53.90625 50.390625 63.28125 
Q 54.6875 62.109375 59.375 61.328125 
z
M 82.421875 65.234375 
Q 85.15625 61.328125 89.0625 56.25 
Q 92.96875 51.171875 96.875 45.3125 
Q 93.359375 43.359375 89.453125 41.015625 
Q 87.109375 45.3125 83.78125 50.1875 
Q 80.46875 55.078125 76.171875 59.765625 
Q 79.296875 62.109375 82.421875 65.234375 
z
M 38.671875 37.5 
Q 40.234375 34.765625 42.1875 31.4375 
Q 44.140625 28.125 46.484375 23.4375 
Q 43.359375 21.875 39.453125 19.53125 
Q 37.890625 23.4375 35.9375 27.140625 
Q 33.984375 30.859375 32.03125 33.59375 
Q 35.15625 35.15625 38.671875 37.5 
z
" id="SimHei-31186"/>
      <path d="M 26.171875 35.15625 
Q 26.171875 22.265625 21.28125 12.109375 
Q 16.40625 1.953125 6.640625 -7.421875 
L 2.34375 -3.125 
Q 11.328125 5.078125 15.8125 14.25 
Q 20.3125 23.4375 20.3125 35.15625 
Q 20.3125 46.875 15.8125 56.046875 
Q 11.328125 65.234375 2.34375 73.828125 
L 6.640625 78.125 
Q 16.40625 68.359375 21.28125 58.203125 
Q 26.171875 48.046875 26.171875 35.15625 
z
" id="SimHei-41"/>
     </defs>
     <g transform="translate(62.75 173.28)rotate(-90)scale(0.1 -0.1)">
      <use xlink:href="#SimHei-32570"/>
      <use x="100" xlink:href="#SimHei-22833"/>
      <use x="200" xlink:href="#SimHei-26102"/>
      <use x="300" xlink:href="#SimHei-38388"/>
      <use x="400" xlink:href="#SimHei-40"/>
      <use x="450" xlink:href="#SimHei-31186"/>
      <use x="550" xlink:href="#SimHei-41"/>
     </g>
    </g>
   </g>
   <g id="line2d_14">
    <path clip-path="url(#p196fa688fb)" d="M 101.528926 215.160992 
L 101.628485 242.116364 
L 101.728044 239.870083 
L 101.827602 57.921322 
L 102.02672 242.116364 
L 102.126279 232.008099 
L 102.225838 242.116364 
L 102.424956 238.746942 
L 102.624074 242.116364 
L 103.619663 242.116364 
L 103.818781 239.870083 
L 104.017899 242.116364 
L 104.117458 242.116364 
L 104.217017 234.25438 
L 104.416135 242.116364 
L 107.602021 242.116364 
L 107.70158 238.746942 
L 108.099816 242.116364 
L 108.398493 242.116364 
L 108.498052 240.993223 
L 108.597611 242.116364 
L 108.69717 233.13124 
L 108.796728 242.116364 
L 108.896287 239.870083 
L 109.095405 242.116364 
L 111.48482 242.116364 
L 111.584379 230.884959 
L 111.683938 242.116364 
L 111.783497 235.377521 
L 111.883056 242.116364 
L 111.982615 202.806446 
L 112.181733 242.116364 
L 114.073352 242.116364 
L 114.172911 141.033719 
L 114.27247 240.993223 
L 114.372029 205.052727 
L 114.471588 66.906446 
L 114.571147 100.600661 
L 114.770265 242.116364 
L 114.869824 97.23124 
L 114.969383 189.32876 
L 115.068942 145.526281 
L 115.26806 242.116364 
L 115.467178 128.679174 
L 115.666296 238.746942 
L 115.865413 242.116364 
L 115.964972 242.116364 
L 116.064531 240.993223 
L 116.263649 242.116364 
L 116.363208 242.116364 
L 116.462767 240.993223 
L 116.661885 242.116364 
L 116.960562 242.116364 
L 117.060121 240.993223 
L 117.15968 242.116364 
L 117.259239 240.993223 
L 117.458357 242.116364 
L 117.557915 242.116364 
L 117.657474 201.683306 
L 117.856592 242.116364 
L 118.05571 242.116364 
L 118.155269 240.993223 
L 118.354387 242.116364 
L 118.553505 242.116364 
L 118.653064 239.870083 
L 118.852182 242.116364 
L 119.0513 242.116364 
L 119.150859 240.993223 
L 119.349976 242.116364 
L 119.549094 242.116364 
L 119.648653 98.35438 
L 119.847771 242.116364 
L 122.734981 242.116364 
L 122.834539 240.993223 
L 122.934098 242.116364 
L 123.033657 240.993223 
L 123.232775 242.116364 
L 123.73057 242.116364 
L 123.830129 239.870083 
L 124.029247 242.116364 
L 124.327924 242.116364 
L 124.427483 239.870083 
L 124.6266 242.116364 
L 125.323513 242.116364 
L 125.423072 240.993223 
L 125.62219 242.116364 
L 125.920867 242.116364 
L 126.020426 239.870083 
L 126.119985 203.929587 
L 126.319102 240.993223 
L 126.418661 155.634545 
L 126.51822 242.116364 
L 126.617779 197.190744 
L 126.717338 52.30562 
L 126.916456 242.116364 
L 127.016015 242.116364 
L 127.215133 239.870083 
L 127.414251 242.116364 
L 127.51381 242.116364 
L 127.712928 239.870083 
L 127.912046 242.116364 
L 128.011605 239.870083 
L 128.210722 242.116364 
L 129.007194 242.116364 
L 129.106753 237.623802 
L 129.305871 242.116364 
L 129.40543 239.870083 
L 129.604548 242.116364 
L 130.002783 242.116364 
L 130.201901 236.500661 
L 130.401019 242.116364 
L 130.600137 242.116364 
L 130.699696 239.870083 
L 130.898814 242.116364 
L 131.396609 242.116364 
L 131.496168 238.746942 
L 131.695285 242.116364 
L 131.794844 237.623802 
L 131.993962 242.116364 
L 132.093521 239.870083 
L 132.19308 242.116364 
L 132.292639 239.870083 
L 132.491757 242.116364 
L 132.591316 240.993223 
L 132.690875 233.13124 
L 132.889993 242.116364 
L 133.686464 242.116364 
L 133.786023 240.993223 
L 133.885582 154.511405 
L 134.0847 242.116364 
L 134.184259 242.116364 
L 134.283818 238.746942 
L 134.682054 242.116364 
L 135.179848 242.116364 
L 135.279407 239.870083 
L 135.378966 242.116364 
L 135.478525 237.623802 
L 135.578084 242.116364 
L 135.677643 234.25438 
L 135.876761 242.116364 
L 135.97632 242.116364 
L 136.175438 237.623802 
L 136.274997 240.993223 
L 136.474115 105.093223 
L 136.673233 242.116364 
L 136.87235 242.116364 
L 136.971909 185.959339 
L 137.071468 242.116364 
L 137.171027 157.880826 
L 137.370145 242.116364 
L 137.86794 242.116364 
L 137.967499 94.984959 
L 138.067058 242.116364 
L 138.166617 183.713058 
L 138.365735 242.116364 
L 138.465294 238.746942 
L 138.564852 225.269256 
L 138.76397 242.116364 
L 138.963088 116.324628 
L 139.162206 242.116364 
L 139.361324 242.116364 
L 139.460883 124.186612 
L 139.560442 242.116364 
L 139.660001 219.653554 
L 139.859119 242.116364 
L 140.456472 242.116364 
L 140.556031 234.25438 
L 140.954267 242.116364 
L 141.053826 242.116364 
L 141.153385 225.269256 
L 141.352503 242.116364 
L 141.551621 242.116364 
L 141.65118 240.993223 
L 141.850298 242.116364 
L 142.447651 242.116364 
L 142.54721 175.851074 
L 142.646769 235.377521 
L 142.746328 232.008099 
L 142.845887 242.116364 
L 142.945446 223.022975 
L 143.144564 239.870083 
L 143.443241 239.870083 
L 143.642359 242.116364 
L 143.741918 239.870083 
L 143.941035 242.116364 
L 144.737507 242.116364 
L 144.837066 228.638678 
L 145.135743 242.116364 
L 145.235302 242.116364 
L 145.334861 238.746942 
L 145.43442 180.343636 
L 145.533979 193.821322 
L 145.633537 163.496529 
L 145.832655 242.116364 
L 154.593842 242.116364 
L 154.693401 239.870083 
L 154.992078 242.116364 
L 155.091637 240.993223 
L 155.191196 242.116364 
L 155.290755 199.437025 
L 155.489873 242.116364 
L 155.589432 242.116364 
L 155.688991 239.870083 
L 155.888109 242.116364 
L 155.987668 240.993223 
L 156.186785 242.116364 
L 157.281934 242.116364 
L 157.381493 240.993223 
L 157.580611 242.116364 
L 157.68017 240.993223 
L 157.779729 242.116364 
L 157.879287 239.870083 
L 157.978846 242.116364 
L 158.078405 240.993223 
L 158.177964 242.116364 
L 158.277523 239.870083 
L 158.5762 242.116364 
L 158.775318 237.623802 
L 158.874877 240.993223 
L 159.073995 238.746942 
L 159.273113 242.116364 
L 159.372672 240.993223 
L 159.571789 242.116364 
L 159.671348 236.500661 
L 159.770907 242.116364 
L 159.970025 233.13124 
L 160.069584 221.899835 
L 160.169143 227.515537 
L 160.268702 242.116364 
L 160.368261 236.500661 
L 160.567379 242.116364 
L 161.662527 242.116364 
L 161.762086 239.870083 
L 161.961204 242.116364 
L 162.259881 242.116364 
L 162.35944 240.993223 
L 162.558558 242.116364 
L 165.545326 242.116364 
L 165.644885 239.870083 
L 165.844003 242.116364 
L 166.939151 242.116364 
L 167.03871 240.993223 
L 167.237828 242.116364 
L 167.337387 242.116364 
L 167.436946 239.870083 
L 167.636064 242.116364 
L 167.735623 242.116364 
L 167.835182 239.870083 
L 168.0343 242.116364 
L 168.332976 242.116364 
L 168.532094 240.993223 
L 168.731212 242.116364 
L 168.830771 235.377521 
L 169.129448 242.116364 
L 169.229007 240.993223 
L 169.428125 242.116364 
L 169.726802 242.116364 
L 169.826361 240.993223 
L 170.025479 242.116364 
L 171.319745 242.116364 
L 171.419304 239.870083 
L 171.518863 242.116364 
L 171.618422 239.870083 
L 171.81754 242.116364 
L 173.310924 242.116364 
L 173.410483 239.870083 
L 173.6096 242.116364 
L 174.704749 242.116364 
L 174.804308 240.993223 
L 175.003426 242.116364 
L 175.202544 242.116364 
L 175.302103 237.623802 
L 175.401661 242.116364 
L 175.50122 240.993223 
L 175.700338 242.116364 
L 175.999015 242.116364 
L 176.098574 240.993223 
L 176.297692 233.13124 
L 176.49681 242.116364 
L 176.596369 240.993223 
L 176.795487 242.116364 
L 176.895046 242.116364 
L 176.994605 238.746942 
L 177.193722 242.116364 
L 177.293281 242.116364 
L 177.39284 230.884959 
L 177.591958 242.116364 
L 177.691517 237.623802 
L 177.890635 242.116364 
L 177.990194 242.116364 
L 178.089753 237.623802 
L 178.288871 242.116364 
L 178.687107 242.116364 
L 178.786666 239.870083 
L 178.886224 242.116364 
L 179.085342 239.870083 
L 179.184901 240.993223 
L 179.28446 239.870083 
L 179.483578 242.116364 
L 179.682696 242.116364 
L 179.782255 240.993223 
L 179.881814 242.116364 
L 179.981373 240.993223 
L 180.180491 242.116364 
L 182.868582 242.116364 
L 182.968141 239.870083 
L 183.0677 242.116364 
L 183.167259 239.870083 
L 183.266818 242.116364 
L 183.366377 239.870083 
L 183.565495 242.116364 
L 183.764613 234.25438 
L 183.963731 242.116364 
L 184.162848 242.116364 
L 184.262407 240.993223 
L 184.461525 242.116364 
L 185.457115 242.116364 
L 185.556674 239.870083 
L 185.755792 242.116364 
L 186.452704 242.116364 
L 186.552263 240.993223 
L 186.751381 242.116364 
L 187.249176 242.116364 
L 187.348735 238.746942 
L 187.448294 242.116364 
L 187.547853 232.008099 
L 187.74697 242.116364 
L 187.846529 239.870083 
L 188.045647 242.116364 
L 188.543442 242.116364 
L 188.643001 240.993223 
L 188.842119 242.116364 
L 189.041237 242.116364 
L 189.240355 240.993223 
L 189.439472 242.116364 
L 189.63859 242.116364 
L 189.738149 239.870083 
L 189.937267 242.116364 
L 190.036826 239.870083 
L 190.235944 242.116364 
L 190.335503 238.746942 
L 190.534621 242.116364 
L 191.629769 242.116364 
L 191.729328 238.746942 
L 191.928446 242.116364 
L 192.426241 242.116364 
L 192.5258 240.993223 
L 192.625359 242.116364 
L 192.724918 239.870083 
L 192.924035 242.116364 
L 194.41742 242.116364 
L 194.716096 238.746942 
L 194.915214 242.116364 
L 196.109922 242.116364 
L 196.209481 237.623802 
L 196.408598 240.993223 
L 196.508157 239.870083 
L 196.707275 242.116364 
L 196.806834 240.993223 
L 196.906393 232.008099 
L 197.105511 242.116364 
L 200.98831 242.116364 
L 201.087869 239.870083 
L 201.286987 242.116364 
L 201.685222 242.116364 
L 201.784781 240.993223 
L 201.983899 242.116364 
L 203.477283 242.116364 
L 203.676401 228.638678 
L 203.875519 242.116364 
L 204.970668 242.116364 
L 205.070227 240.993223 
L 205.269344 228.638678 
L 205.468462 242.116364 
L 205.568021 228.638678 
L 205.767139 242.116364 
L 210.645527 242.116364 
L 210.745086 239.870083 
L 210.944204 242.116364 
L 211.143322 242.116364 
L 211.242881 236.500661 
L 211.441999 242.116364 
L 211.541558 238.746942 
L 211.740676 242.116364 
L 212.537147 242.116364 
L 212.736265 239.870083 
L 212.835824 242.116364 
L 212.935383 237.623802 
L 213.034942 242.116364 
L 213.134501 239.870083 
L 213.333619 242.116364 
L 213.433178 237.623802 
L 213.632296 242.116364 
L 213.731855 240.993223 
L 213.930972 242.116364 
L 214.030531 221.899835 
L 214.229649 242.116364 
L 215.12568 242.116364 
L 215.225239 238.746942 
L 215.324798 242.116364 
L 215.523916 230.884959 
L 215.723033 242.116364 
L 215.922151 242.116364 
L 216.02171 239.870083 
L 216.220828 242.116364 
L 219.406714 242.116364 
L 219.506273 239.870083 
L 219.705391 242.116364 
L 220.601422 242.116364 
L 220.700981 239.870083 
L 220.900098 242.116364 
L 220.999657 242.116364 
L 221.099216 234.25438 
L 221.298334 242.116364 
L 221.69657 242.116364 
L 221.895688 240.993223 
L 222.094806 242.116364 
L 222.493042 242.116364 
L 222.592601 239.870083 
L 222.791718 242.116364 
L 225.181133 242.116364 
L 225.280692 239.870083 
L 225.47981 242.116364 
L 226.475399 242.116364 
L 226.574958 240.993223 
L 226.774076 242.116364 
L 227.37143 242.116364 
L 227.470989 240.993223 
L 227.670107 242.116364 
L 228.367019 242.116364 
L 228.466578 238.746942 
L 228.665696 242.116364 
L 229.760844 242.116364 
L 229.860403 240.993223 
L 230.059521 242.116364 
L 230.955552 242.116364 
L 231.055111 201.683306 
L 231.15467 55.675041 
L 231.353788 242.116364 
L 232.648054 242.116364 
L 232.747613 227.515537 
L 232.847172 194.944463 
L 233.145848 242.116364 
L 233.245407 242.116364 
L 233.344966 240.993223 
L 233.544084 242.116364 
L 233.842761 242.116364 
L 233.94232 240.993223 
L 234.141438 242.116364 
L 234.539674 242.116364 
L 234.639233 239.870083 
L 234.838351 242.116364 
L 235.734381 242.116364 
L 235.83394 240.993223 
L 236.033058 242.116364 
L 236.72997 242.116364 
L 236.829529 182.589917 
L 236.929088 242.116364 
L 237.028647 240.993223 
L 237.227765 242.116364 
L 237.626001 242.116364 
L 237.72556 239.870083 
L 237.924678 242.116364 
L 238.024237 239.870083 
L 238.223355 242.116364 
L 238.522031 242.116364 
L 238.62159 161.250248 
L 238.721149 242.116364 
L 238.820708 239.870083 
L 239.019826 242.116364 
L 241.011005 242.116364 
L 241.110564 240.993223 
L 241.210123 242.116364 
L 241.409241 234.25438 
L 241.608359 242.116364 
L 241.807477 242.116364 
L 242.006594 240.993223 
L 242.106153 227.515537 
L 242.305271 242.116364 
L 242.40483 242.116364 
L 242.504389 234.25438 
L 242.703507 242.116364 
L 242.803066 238.746942 
L 243.002184 242.116364 
L 243.101743 240.993223 
L 243.300861 242.116364 
L 243.40042 237.623802 
L 243.599538 242.116364 
L 244.097332 242.116364 
L 244.29645 239.870083 
L 244.396009 242.116364 
L 244.495568 227.515537 
L 244.694686 242.116364 
L 246.486747 242.116364 
L 246.785424 234.25438 
L 246.984542 242.116364 
L 247.183659 132.048595 
L 247.382777 192.698182 
L 247.482336 188.20562 
L 247.681454 242.116364 
L 247.880572 107.339504 
L 248.179249 242.116364 
L 248.278808 197.190744 
L 248.477926 242.116364 
L 248.677044 234.25438 
L 248.776603 242.116364 
L 248.876162 240.993223 
L 249.075279 242.116364 
L 249.274397 242.116364 
L 249.373956 165.74281 
L 249.473515 197.190744 
L 249.573074 188.20562 
L 249.672633 199.437025 
L 249.772192 242.116364 
L 249.871751 199.437025 
L 249.97131 201.683306 
L 250.070869 191.575041 
L 250.269987 242.116364 
L 250.469105 242.116364 
L 250.568664 240.993223 
L 250.767781 242.116364 
L 250.86734 238.746942 
L 250.966899 242.116364 
L 251.066458 197.190744 
L 251.265576 239.870083 
L 251.365135 233.13124 
L 251.663812 242.116364 
L 251.763371 239.870083 
L 251.86293 242.116364 
L 252.062048 190.451901 
L 252.261166 242.116364 
L 252.360725 139.910579 
L 252.559842 202.806446 
L 252.659401 221.899835 
L 252.75896 193.821322 
L 252.858519 199.437025 
L 252.958078 239.870083 
L 253.057637 210.66843 
L 253.157196 242.116364 
L 253.256755 238.746942 
L 253.654991 242.116364 
L 253.854109 242.116364 
L 253.953668 240.993223 
L 254.152786 242.116364 
L 254.451462 242.116364 
L 254.551021 240.993223 
L 254.65058 153.388264 
L 254.849698 242.116364 
L 254.949257 242.116364 
L 255.048816 190.451901 
L 255.247934 242.116364 
L 255.347493 240.993223 
L 255.447052 172.481653 
L 255.64617 242.116364 
L 255.745729 89.369256 
L 255.944846 242.116364 
L 256.044405 232.008099 
L 256.143964 133.171736 
L 256.343082 199.437025 
L 256.5422 242.116364 
L 256.741318 180.343636 
L 256.840877 199.437025 
L 257.039995 165.74281 
L 257.239113 242.116364 
L 257.338672 114.078347 
L 257.438231 240.993223 
L 257.53779 171.358512 
L 257.637349 242.116364 
L 257.736907 200.560165 
L 257.936025 240.993223 
L 258.035584 239.870083 
L 258.234702 242.116364 
L 258.334261 242.116364 
L 258.43382 220.776694 
L 258.533379 242.116364 
L 258.632938 236.500661 
L 258.732497 197.190744 
L 258.931615 242.116364 
L 259.429409 242.116364 
L 259.528968 201.683306 
L 259.728086 242.116364 
L 262.017942 242.116364 
L 262.21706 236.500661 
L 262.416178 242.116364 
L 262.515737 239.870083 
L 262.714855 242.116364 
L 262.814414 240.993223 
L 263.013531 242.116364 
L 263.11309 242.116364 
L 263.212649 240.993223 
L 263.411767 242.116364 
L 264.905151 242.116364 
L 265.00471 238.746942 
L 265.203828 242.116364 
L 265.502505 242.116364 
L 265.602064 167.989091 
L 265.801182 242.116364 
L 266.0003 239.870083 
L 266.099859 240.993223 
L 266.199418 239.870083 
L 266.398536 242.116364 
L 266.498094 172.481653 
L 266.697212 240.993223 
L 266.796771 242.116364 
L 266.89633 178.097355 
L 266.995889 183.713058 
L 267.195007 242.116364 
L 267.294566 242.116364 
L 267.394125 240.993223 
L 267.493684 188.20562 
L 267.593243 242.116364 
L 267.692802 237.623802 
L 267.792361 236.500661 
L 267.89192 211.79157 
L 267.991479 242.116364 
L 268.091038 232.008099 
L 268.190596 242.116364 
L 268.290155 239.870083 
L 268.489273 187.082479 
L 268.688391 242.116364 
L 268.887509 159.003967 
L 268.987068 193.821322 
L 269.186186 99.477521 
L 269.385304 242.116364 
L 269.683981 57.921322 
L 269.982657 242.116364 
L 270.480452 242.116364 
L 270.580011 198.313884 
L 270.67957 242.116364 
L 270.779129 192.698182 
L 270.878688 240.993223 
L 270.978247 191.575041 
L 271.077806 242.116364 
L 271.177365 199.437025 
L 271.276924 242.116364 
L 271.376483 240.993223 
L 271.575601 201.683306 
L 271.774718 242.116364 
L 271.973836 242.116364 
L 272.073395 240.993223 
L 272.272513 242.116364 
L 272.670749 242.116364 
L 272.869867 240.993223 
L 273.068985 242.116364 
L 273.168544 240.993223 
L 273.367662 242.116364 
L 273.566779 240.993223 
L 273.765897 242.116364 
L 273.965015 240.993223 
L 274.064574 240.993223 
L 274.164133 188.20562 
L 274.363251 242.116364 
L 274.562369 242.116364 
L 274.761487 240.993223 
L 274.960605 242.116364 
L 275.159723 240.993223 
L 275.259281 240.993223 
L 275.458399 242.116364 
L 275.557958 242.116364 
L 275.657517 205.052727 
L 275.856635 242.116364 
L 276.35443 242.116364 
L 276.453989 200.560165 
L 276.653107 242.116364 
L 276.852225 242.116364 
L 276.951783 178.097355 
L 277.150901 242.116364 
L 277.25046 239.870083 
L 277.449578 242.116364 
L 278.046932 242.116364 
L 278.146491 207.299008 
L 278.24605 242.116364 
L 278.345609 197.190744 
L 278.544727 242.116364 
L 278.942962 242.116364 
L 279.14208 239.870083 
L 279.341198 242.116364 
L 279.540316 242.116364 
L 279.639875 212.914711 
L 279.838993 242.116364 
L 280.237229 242.116364 
L 280.336788 238.746942 
L 280.535905 242.116364 
L 281.332377 242.116364 
L 281.431936 239.870083 
L 281.531495 175.851074 
L 281.730613 242.116364 
L 281.830172 238.746942 
L 281.929731 185.959339 
L 282.02929 242.116364 
L 282.128849 203.929587 
L 282.228407 238.746942 
L 282.327966 197.190744 
L 282.527084 242.116364 
L 282.626643 191.575041 
L 282.92532 239.870083 
L 283.024879 121.940331 
L 283.423115 242.116364 
L 283.522674 240.993223 
L 283.622233 237.623802 
L 283.821351 242.116364 
L 284.219586 242.116364 
L 284.418704 237.623802 
L 284.518263 237.623802 
L 284.617822 242.116364 
L 284.717381 106.216364 
L 284.81694 242.116364 
L 285.016058 189.32876 
L 285.115617 239.870083 
L 285.215176 163.496529 
L 285.314735 202.806446 
L 285.414294 197.190744 
L 285.613412 238.746942 
L 285.71297 242.116364 
L 285.812529 240.993223 
L 286.011647 242.116364 
L 286.409883 242.116364 
L 286.509442 232.008099 
L 286.70856 242.116364 
L 288.201944 242.116364 
L 288.401062 239.870083 
L 288.500621 242.116364 
L 288.699739 240.993223 
L 288.898857 242.116364 
L 288.998416 238.746942 
L 289.097975 242.116364 
L 289.197534 238.746942 
L 289.595769 242.116364 
L 289.794887 242.116364 
L 290.093564 238.746942 
L 290.292682 242.116364 
L 290.392241 240.993223 
L 290.4918 229.761818 
L 290.690918 242.116364 
L 290.790477 242.116364 
L 290.890036 239.870083 
L 291.089153 242.116364 
L 291.586948 242.116364 
L 291.686507 239.870083 
L 291.885625 242.116364 
L 292.084743 242.116364 
L 292.184302 240.993223 
L 292.283861 236.500661 
L 292.482979 239.870083 
L 292.682097 242.116364 
L 293.478568 242.116364 
L 293.578127 199.437025 
L 293.777245 242.116364 
L 294.075922 242.116364 
L 294.27504 236.500661 
L 294.474157 242.116364 
L 294.673275 239.870083 
L 294.772834 240.993223 
L 294.872393 237.623802 
L 295.370188 242.116364 
L 295.768424 242.116364 
L 295.867983 240.993223 
L 296.067101 242.116364 
L 296.564895 242.116364 
L 296.664454 239.870083 
L 296.863572 242.116364 
L 297.06269 242.116364 
L 297.162249 239.870083 
L 297.361367 242.116364 
L 297.859162 242.116364 
L 298.157838 237.623802 
L 298.257397 242.116364 
L 298.356956 239.870083 
L 298.556074 242.116364 
L 298.95431 242.116364 
L 299.053869 239.870083 
L 299.252987 242.116364 
L 299.352546 239.870083 
L 299.452105 242.116364 
L 299.551664 239.870083 
L 299.651223 242.116364 
L 299.750781 235.377521 
L 300.149017 242.116364 
L 300.248576 242.116364 
L 300.348135 239.870083 
L 300.646812 242.116364 
L 300.84593 242.116364 
L 301.045048 143.28 
L 301.244166 242.116364 
L 301.443284 238.746942 
L 301.542842 242.116364 
L 301.642401 115.201488 
L 301.74196 242.116364 
L 301.841519 240.993223 
L 301.941078 240.993223 
L 302.040637 239.870083 
L 302.239755 242.116364 
L 302.339314 169.112231 
L 302.538432 242.116364 
L 302.73755 242.116364 
L 302.837109 179.220496 
L 303.135786 239.870083 
L 303.235344 182.589917 
L 303.334903 242.116364 
L 303.434462 193.821322 
L 303.534021 240.993223 
L 303.63358 80.384132 
L 303.832698 203.929587 
L 303.932257 194.944463 
L 304.131375 80.384132 
L 304.230934 124.186612 
L 304.430052 242.116364 
L 304.62917 206.175868 
L 304.828288 242.116364 
L 305.027405 242.116364 
L 305.226523 157.880826 
L 305.425641 242.116364 
L 305.724318 242.116364 
L 305.823877 240.993223 
L 305.923436 121.940331 
L 306.022995 152.265124 
L 306.122554 44.443636 
L 306.222113 200.560165 
L 306.321672 197.190744 
L 306.421231 198.313884 
L 306.52079 242.116364 
L 306.620349 121.940331 
L 306.719908 215.160992 
L 306.819466 188.20562 
L 307.018584 238.746942 
L 307.118143 237.623802 
L 307.317261 242.116364 
L 310.602706 242.116364 
L 310.702265 235.377521 
L 310.901383 242.116364 
L 311.000942 238.746942 
L 311.100501 239.870083 
L 311.299619 165.74281 
L 311.399178 181.466777 
L 311.598296 242.116364 
L 313.390357 242.116364 
L 313.489916 230.884959 
L 313.689034 242.116364 
L 313.788592 238.746942 
L 313.888151 240.993223 
L 313.98771 180.343636 
L 314.186828 242.116364 
L 315.779771 242.116364 
L 315.87933 230.884959 
L 316.078448 239.870083 
L 316.178007 150.018843 
L 316.377125 242.116364 
L 316.576243 242.116364 
L 316.675802 237.623802 
L 316.87492 242.116364 
L 317.372714 242.116364 
L 317.472273 227.515537 
L 317.571832 242.116364 
L 317.671391 234.25438 
L 317.870509 242.116364 
L 318.368304 242.116364 
L 318.467863 214.037851 
L 318.666981 242.116364 
L 321.056395 242.116364 
L 321.155954 238.746942 
L 321.355072 242.116364 
L 321.952426 242.116364 
L 322.051985 239.870083 
L 322.350662 242.116364 
L 323.44581 242.116364 
L 323.545369 239.870083 
L 323.744487 242.116364 
L 323.844046 227.515537 
L 324.043164 242.116364 
L 324.142723 242.116364 
L 324.242282 221.899835 
L 324.441399 242.116364 
L 326.133901 242.116364 
L 326.23346 239.870083 
L 326.333019 242.116364 
L 326.432578 228.638678 
L 326.532137 242.116364 
L 326.631696 232.008099 
L 326.731255 242.116364 
L 326.830814 215.160992 
L 327.029932 242.116364 
L 328.622875 242.116364 
L 328.722434 240.993223 
L 328.921552 242.116364 
L 329.618464 242.116364 
L 329.817582 237.623802 
L 329.917141 242.116364 
L 330.0167 93.861818 
L 330.215818 242.116364 
L 330.414936 240.993223 
L 330.614054 242.116364 
L 331.111849 242.116364 
L 331.211408 236.500661 
L 331.410525 242.116364 
L 331.510084 242.116364 
L 331.609643 240.993223 
L 331.709202 230.884959 
L 331.90832 242.116364 
L 332.107438 242.116364 
L 332.107438 242.116364 
" style="fill:none;stroke:#1f77b4;stroke-linecap:square;stroke-width:1.5;"/>
   </g>
   <g id="line2d_15">
    <path clip-path="url(#p196fa688fb)" d="M 101.528926 215.160992 
L 332.107438 215.160992 
L 332.107438 215.160992 
" style="fill:none;stroke:#ff7f0e;stroke-dasharray:5.55,2.4;stroke-dashoffset:0;stroke-width:1.5;"/>
   </g>
   <g id="patch_3">
    <path d="M 90 252 
L 90 34.56 
" style="fill:none;stroke:#000000;stroke-linecap:square;stroke-linejoin:miter;stroke-width:0.8;"/>
   </g>
   <g id="patch_4">
    <path d="M 343.636364 252 
L 343.636364 34.56 
" style="fill:none;stroke:#000000;stroke-linecap:square;stroke-linejoin:miter;stroke-width:0.8;"/>
   </g>
   <g id="patch_5">
    <path d="M 90 252 
L 343.636364 252 
" style="fill:none;stroke:#000000;stroke-linecap:square;stroke-linejoin:miter;stroke-width:0.8;"/>
   </g>
   <g id="patch_6">
    <path d="M 90 34.56 
L 343.636364 34.56 
" style="fill:none;stroke:#000000;stroke-linecap:square;stroke-linejoin:miter;stroke-width:0.8;"/>
   </g>
   <g id="text_16">
    <!-- 原始缺失曲线 -->
    <defs>
     <path d="M 60.15625 66.796875 
Q 57.421875 62.890625 56.25 57.8125 
L 85.15625 57.8125 
Q 84.765625 54.296875 84.765625 46.875 
L 84.765625 34.765625 
Q 84.765625 28.515625 85.15625 23.046875 
L 63.28125 23.046875 
L 63.28125 -0.78125 
Q 63.28125 -6.25 59.765625 -7.609375 
Q 56.25 -8.984375 48.4375 -9.765625 
Q 47.65625 -5.078125 45.703125 -0.78125 
Q 53.125 -1.171875 54.296875 -0.578125 
Q 55.46875 0 55.46875 2.734375 
L 55.46875 23.046875 
L 33.203125 23.046875 
Q 33.59375 27.734375 33.59375 34.375 
L 33.59375 47.265625 
Q 33.59375 53.515625 33.203125 57.8125 
L 49.21875 57.8125 
Q 51.5625 66.40625 51.5625 69.140625 
L 60.15625 66.796875 
z
M 4.296875 -5.078125 
Q 11.328125 4.296875 13.671875 16.203125 
Q 16.015625 28.125 16.015625 35.9375 
L 16.015625 64.453125 
Q 16.015625 72.65625 15.625 76.5625 
L 78.515625 76.5625 
Q 87.109375 76.5625 90.625 76.953125 
L 90.625 69.921875 
Q 87.5 70.3125 78.515625 70.3125 
L 23.828125 70.3125 
L 23.828125 37.109375 
Q 23.4375 25.78125 22.0625 17.375 
Q 20.703125 8.984375 17.765625 1.953125 
Q 14.84375 -5.078125 12.5 -8.984375 
Q 8.59375 -6.25 4.296875 -5.078125 
z
M 76.953125 43.359375 
L 76.953125 51.953125 
L 41.015625 51.953125 
L 41.015625 43.359375 
z
M 76.953125 29.296875 
L 76.953125 37.5 
L 41.015625 37.5 
L 41.015625 29.296875 
z
M 23.046875 -0.78125 
Q 28.125 2.34375 32.609375 7.03125 
Q 37.109375 11.71875 40.234375 17.1875 
Q 43.75 13.671875 46.484375 11.71875 
Q 35.9375 -0.78125 28.515625 -6.25 
Q 26.171875 -3.515625 23.046875 -0.78125 
z
M 75.390625 16.796875 
Q 89.0625 4.6875 92.578125 0.390625 
Q 89.84375 -1.953125 87.109375 -5.078125 
Q 82.03125 1.171875 70.3125 11.328125 
Q 73.046875 14.453125 75.390625 16.796875 
z
" id="SimHei-21407"/>
     <path d="M 27.34375 79.296875 
Q 25.78125 76.5625 24.796875 71.671875 
Q 23.828125 66.796875 23.046875 60.546875 
L 39.84375 60.546875 
Q 37.5 33.59375 30.46875 17.1875 
Q 35.546875 13.28125 42.578125 6.640625 
Q 39.84375 4.296875 37.109375 0.78125 
Q 31.25 7.8125 27.34375 10.546875 
Q 23.828125 4.296875 19.53125 -0.96875 
Q 15.234375 -6.25 10.9375 -10.546875 
Q 9.375 -8.203125 3.90625 -5.46875 
Q 8.984375 -1.953125 13.46875 3.125 
Q 17.96875 8.203125 21.484375 15.234375 
Q 12.5 21.875 7.8125 24.21875 
Q 13.671875 45.703125 14.84375 53.515625 
Q 10.15625 53.515625 5.078125 53.125 
L 5.078125 60.9375 
Q 10.546875 60.546875 16.015625 60.546875 
Q 18.359375 75.390625 18.359375 81.640625 
Q 24.21875 80.078125 27.34375 79.296875 
z
M 89.453125 32.03125 
Q 89.0625 25.78125 89.0625 10.15625 
Q 89.0625 -5.078125 89.453125 -10.15625 
L 81.25 -10.15625 
L 81.25 -1.5625 
L 53.90625 -1.5625 
L 53.90625 -10.546875 
L 46.09375 -10.546875 
Q 46.484375 -4.6875 46.484375 10.546875 
Q 46.484375 25.78125 46.09375 32.03125 
L 89.453125 32.03125 
z
M 68.75 77.34375 
Q 58.59375 60.546875 50.78125 49.21875 
Q 60.546875 49.21875 66.40625 49.609375 
Q 72.265625 50 81.25 50.390625 
Q 76.171875 57.421875 72.265625 60.9375 
Q 75.390625 62.5 78.515625 66.015625 
Q 89.84375 51.5625 95.703125 44.53125 
Q 93.75 43.359375 89.453125 39.84375 
Q 87.109375 43.359375 85.15625 44.921875 
Q 71.484375 44.140625 61.515625 43.15625 
Q 51.5625 42.1875 44.140625 40.234375 
Q 43.359375 43.75 40.625 48.4375 
Q 44.921875 50.390625 50.578125 60.15625 
Q 56.25 69.921875 59.765625 81.25 
Q 62.890625 78.90625 68.75 77.34375 
z
M 81.25 5.078125 
L 81.25 25 
L 53.90625 25 
L 53.90625 5.078125 
z
M 16.015625 27.734375 
Q 20.3125 24.21875 24.609375 21.875 
Q 26.953125 26.953125 29.296875 36.515625 
Q 31.640625 46.09375 32.03125 53.515625 
L 21.875 53.515625 
Q 20.3125 46.09375 16.015625 27.734375 
z
" id="SimHei-22987"/>
     <path d="M 91.015625 7.8125 
Q 91.015625 -3.125 91.40625 -8.59375 
L 82.421875 -8.59375 
L 82.421875 -0.78125 
L 17.96875 -0.78125 
L 17.96875 -8.59375 
L 8.984375 -8.59375 
Q 9.375 1.953125 9.375 8.59375 
L 9.375 43.359375 
Q 9.375 53.515625 8.984375 60.9375 
L 33.59375 60.9375 
L 33.59375 69.53125 
Q 33.203125 75.78125 33.203125 80.46875 
L 42.1875 80.46875 
Q 41.40625 75.390625 41.40625 69.921875 
L 41.40625 60.9375 
L 57.8125 60.9375 
L 57.8125 70.703125 
Q 57.8125 75.78125 57.421875 80.859375 
L 66.40625 80.859375 
Q 66.015625 76.171875 66.015625 71.09375 
L 66.015625 60.9375 
L 91.40625 60.9375 
Q 91.015625 55.078125 91.015625 42.96875 
z
M 57.8125 5.078125 
L 57.8125 29.296875 
L 41.40625 29.296875 
L 41.40625 5.078125 
z
M 82.421875 5.078125 
L 82.421875 29.296875 
L 66.015625 29.296875 
L 66.015625 5.078125 
z
M 33.59375 5.078125 
L 33.59375 29.296875 
L 17.96875 29.296875 
L 17.96875 5.078125 
z
M 57.8125 35.15625 
L 57.8125 55.078125 
L 41.40625 55.078125 
L 41.40625 35.15625 
z
M 82.421875 35.15625 
L 82.421875 55.078125 
L 66.015625 55.078125 
L 66.015625 35.15625 
z
M 33.59375 35.15625 
L 33.59375 55.078125 
L 17.96875 55.078125 
L 17.96875 35.15625 
z
" id="SimHei-26354"/>
     <path d="M 53.90625 67.1875 
Q 53.90625 73.046875 52.734375 80.078125 
Q 57.8125 79.6875 63.28125 78.90625 
Q 62.109375 76.5625 61.71875 71.28125 
Q 61.328125 66.015625 61.71875 56.25 
L 75 58.59375 
Q 81.640625 60.15625 88.28125 62.109375 
L 89.84375 54.6875 
Q 83.203125 53.90625 76.171875 52.734375 
L 62.109375 50 
Q 62.109375 43.75 62.890625 39.0625 
L 78.125 41.796875 
Q 85.9375 43.359375 92.96875 45.703125 
L 94.140625 38.28125 
Q 87.109375 37.109375 79.296875 35.546875 
L 64.0625 32.8125 
Q 64.84375 25 67.96875 18.359375 
Q 71.484375 21.09375 74.796875 24.609375 
Q 78.125 28.125 80.859375 32.421875 
Q 86.71875 27.734375 89.84375 26.171875 
Q 84.765625 23.828125 81.828125 20.890625 
Q 78.90625 17.96875 72.265625 11.71875 
Q 76.953125 3.90625 80.65625 1.75 
Q 84.375 -0.390625 85.9375 1.5625 
Q 87.5 3.515625 88.671875 9.765625 
Q 92.1875 7.03125 96.875 5.46875 
Q 90.234375 -11.71875 82.421875 -8.390625 
Q 74.609375 -5.078125 66.015625 7.03125 
Q 60.546875 2.734375 55.265625 -0.96875 
Q 50 -4.6875 42.1875 -8.59375 
Q 40.234375 -4.6875 36.328125 -1.5625 
Q 44.140625 1.171875 49.609375 4.296875 
Q 55.078125 7.421875 62.109375 13.28125 
Q 58.59375 21.09375 57.03125 31.640625 
Q 45.3125 29.6875 40.625 28.125 
L 39.453125 35.546875 
Q 44.140625 35.546875 55.46875 37.890625 
Q 54.6875 44.140625 54.6875 48.4375 
Q 44.140625 46.09375 40.234375 44.921875 
L 38.671875 52.34375 
Q 42.578125 52.34375 53.90625 54.6875 
z
M 30.46875 76.171875 
Q 26.5625 72.65625 22.84375 66.203125 
Q 19.140625 59.765625 12.890625 50.390625 
Q 22.265625 50.78125 25.78125 50.78125 
Q 29.296875 56.640625 32.03125 63.671875 
Q 35.9375 60.9375 40.625 59.375 
Q 36.71875 55.46875 32.609375 48.828125 
Q 28.515625 42.1875 18.359375 26.171875 
Q 28.90625 26.953125 37.109375 27.734375 
Q 35.9375 23.828125 35.9375 21.09375 
Q 33.203125 21.09375 23.828125 20.109375 
Q 14.453125 19.140625 8.59375 17.578125 
Q 8.203125 21.484375 6.25 25.78125 
Q 10.9375 26.953125 14.84375 32.03125 
Q 18.75 37.109375 23.046875 44.921875 
Q 10.15625 44.140625 6.640625 41.796875 
Q 5.46875 46.09375 3.125 50.390625 
Q 8.203125 53.90625 12.890625 61.90625 
Q 17.578125 69.921875 21.484375 80.46875 
Q 25.390625 77.734375 30.46875 76.171875 
z
M 40.234375 13.671875 
Q 39.84375 9.375 40.234375 7.03125 
Q 30.46875 5.078125 22.65625 3.125 
Q 14.84375 1.171875 8.203125 -1.171875 
Q 7.03125 3.125 3.90625 7.421875 
Q 14.84375 8.59375 20.703125 9.5625 
Q 26.5625 10.546875 40.234375 13.671875 
z
M 75.78125 62.890625 
Q 73.046875 67.1875 68.359375 73.046875 
L 74.609375 76.171875 
Q 76.171875 74.21875 82.421875 66.796875 
Q 78.515625 65.234375 75.78125 62.890625 
z
" id="SimHei-32447"/>
    </defs>
    <g transform="translate(180.818182 28.56)scale(0.12 -0.12)">
     <use xlink:href="#SimHei-21407"/>
     <use x="100" xlink:href="#SimHei-22987"/>
     <use x="200" xlink:href="#SimHei-32570"/>
     <use x="300" xlink:href="#SimHei-22833"/>
     <use x="400" xlink:href="#SimHei-26354"/>
     <use x="500" xlink:href="#SimHei-32447"/>
    </g>
   </g>
   <g id="legend_1">
    <g id="patch_7">
     <path d="M 170.818182 71.270938 
L 262.818182 71.270938 
Q 264.818182 71.270938 264.818182 69.270938 
L 264.818182 41.56 
Q 264.818182 39.56 262.818182 39.56 
L 170.818182 39.56 
Q 168.818182 39.56 168.818182 41.56 
L 168.818182 69.270938 
Q 168.818182 71.270938 170.818182 71.270938 
z
" style="fill:#ffffff;opacity:0.8;stroke:#cccccc;stroke-linejoin:miter;"/>
    </g>
    <g id="line2d_16">
     <path d="M 172.818182 48.106875 
L 192.818182 48.106875 
" style="fill:none;stroke:#1f77b4;stroke-linecap:square;stroke-width:1.5;"/>
    </g>
    <g id="line2d_17"/>
    <g id="text_17">
     <!-- 缺失线 -->
     <g transform="translate(200.818182 51.606875)scale(0.1 -0.1)">
      <use xlink:href="#SimHei-32570"/>
      <use x="100" xlink:href="#SimHei-22833"/>
      <use x="200" xlink:href="#SimHei-32447"/>
     </g>
    </g>
    <g id="line2d_18">
     <path d="M 172.818182 62.520938 
L 192.818182 62.520938 
" style="fill:none;stroke:#ff7f0e;stroke-dasharray:5.55,2.4;stroke-dashoffset:0;stroke-width:1.5;"/>
    </g>
    <g id="line2d_19"/>
    <g id="text_18">
     <!-- 阈值线(26秒) -->
     <defs>
      <path d="M 81.640625 12.890625 
Q 76.953125 1.171875 72.0625 2.34375 
Q 67.1875 3.515625 62.109375 12.5 
Q 60.15625 9.375 57.609375 5.65625 
Q 55.078125 1.953125 51.953125 -1.5625 
Q 49.21875 0.78125 44.921875 2.734375 
Q 49.21875 6.640625 52.140625 10.734375 
Q 55.078125 14.84375 57.8125 19.53125 
Q 55.078125 27.34375 53.703125 32.609375 
Q 52.34375 37.890625 51.5625 49.609375 
L 29.6875 49.609375 
Q 26.171875 49.609375 21.09375 49.21875 
L 21.09375 55.46875 
Q 26.171875 55.078125 29.6875 55.078125 
L 51.5625 55.078125 
Q 50.78125 62.890625 50.390625 67.1875 
Q 53.515625 66.796875 58.984375 66.796875 
Q 58.59375 60.15625 58.59375 55.078125 
L 69.140625 55.078125 
Q 73.046875 55.078125 79.296875 55.46875 
L 79.296875 49.21875 
Q 73.046875 49.609375 69.140625 49.609375 
L 58.59375 49.609375 
Q 58.59375 45.3125 59.5625 38.671875 
Q 60.546875 32.03125 62.5 27.734375 
Q 63.671875 30.859375 64.640625 34.953125 
Q 65.625 39.0625 66.40625 45.703125 
Q 73.046875 43.75 75.78125 42.578125 
Q 73.4375 39.84375 71.28125 33 
Q 69.140625 26.171875 66.015625 18.75 
Q 67.96875 14.84375 70.890625 12.296875 
Q 73.828125 9.765625 75.78125 17.1875 
Q 79.296875 14.453125 81.640625 12.890625 
z
M 92.1875 76.171875 
Q 91.796875 68.75 91.796875 59.765625 
L 91.796875 1.5625 
Q 91.796875 -6.25 86.71875 -7.421875 
Q 81.640625 -8.59375 75.78125 -9.765625 
Q 74.21875 -5.46875 71.484375 -0.78125 
Q 80.46875 -1.171875 82.8125 -0.78125 
Q 85.15625 -0.390625 85.15625 4.6875 
L 85.15625 70.3125 
L 56.25 70.3125 
Q 47.65625 70.3125 37.5 69.921875 
L 37.5 76.5625 
Q 47.65625 76.171875 55.46875 76.171875 
z
M 47.65625 42.578125 
Q 46.484375 38.28125 46.484375 34.375 
L 46.484375 20.3125 
L 22.65625 20.3125 
Q 23.046875 24.21875 23.046875 26.953125 
L 23.046875 34.375 
Q 23.046875 37.890625 22.65625 42.578125 
L 47.65625 42.578125 
z
M 16.796875 60.15625 
Q 16.40625 54.296875 16.40625 48.4375 
L 16.40625 -8.984375 
L 8.59375 -8.984375 
Q 9.375 1.5625 9.375 9.765625 
L 9.375 46.484375 
Q 9.375 54.6875 8.59375 60.15625 
L 16.796875 60.15625 
z
M 48.4375 16.40625 
Q 48.046875 12.109375 48.4375 10.15625 
Q 43.359375 8.984375 34.375 7.03125 
Q 25.390625 5.078125 20.703125 3.125 
Q 18.75 7.421875 17.578125 11.328125 
Q 22.265625 11.71875 31.046875 13.28125 
Q 39.84375 14.84375 48.4375 16.40625 
z
M 21.484375 82.421875 
Q 25.78125 76.5625 30.859375 68.359375 
Q 26.953125 66.015625 23.046875 64.0625 
Q 18.75 72.265625 14.0625 78.125 
Q 17.96875 81.25 21.484375 82.421875 
z
M 39.84375 26.171875 
L 39.84375 36.71875 
L 29.6875 36.71875 
L 29.6875 26.171875 
z
M 70.3125 68.75 
Q 72.265625 64.84375 75 60.546875 
Q 72.265625 59.375 67.96875 57.03125 
Q 66.015625 61.328125 63.671875 65.234375 
Q 67.578125 67.96875 70.3125 68.75 
z
" id="SimHei-38408"/>
      <path d="M 57.421875 69.53125 
L 57.421875 79.6875 
Q 62.109375 79.296875 67.96875 78.90625 
Q 66.015625 76.171875 65.625 69.53125 
L 80.078125 69.53125 
Q 86.71875 69.53125 91.796875 69.921875 
L 91.796875 62.890625 
Q 86.328125 63.28125 80.078125 63.28125 
L 65.234375 63.28125 
L 64.453125 54.6875 
L 84.375 54.6875 
Q 83.984375 50 83.984375 42.1875 
L 83.984375 2.34375 
Q 91.796875 2.34375 95.3125 2.734375 
L 95.3125 -4.296875 
Q 90.234375 -3.90625 81.25 -3.90625 
L 44.53125 -3.90625 
Q 35.546875 -3.90625 29.6875 -4.296875 
L 29.6875 2.734375 
Q 33.203125 2.34375 40.625 2.34375 
L 40.625 42.1875 
Q 40.625 49.609375 40.234375 54.6875 
L 56.25 54.6875 
L 57.03125 63.28125 
L 50 63.28125 
Q 40.234375 63.28125 34.765625 62.890625 
L 34.765625 69.921875 
Q 39.84375 69.53125 50 69.53125 
z
M 34.765625 76.5625 
Q 31.640625 73.046875 25.78125 58.59375 
L 25.78125 7.03125 
Q 25.78125 -1.171875 26.171875 -8.59375 
L 17.96875 -8.59375 
Q 18.359375 -1.953125 18.359375 5.859375 
L 18.359375 46.09375 
Q 13.671875 38.28125 9.765625 33.59375 
Q 6.640625 37.890625 3.90625 40.234375 
Q 7.8125 44.140625 14.640625 55.265625 
Q 21.484375 66.40625 25.390625 80.46875 
Q 30.859375 77.734375 34.765625 76.5625 
z
M 76.953125 41.40625 
L 76.953125 49.21875 
L 48.046875 49.21875 
L 48.046875 41.40625 
z
M 76.953125 2.34375 
L 76.953125 9.765625 
L 48.046875 9.765625 
L 48.046875 2.34375 
z
M 76.953125 15.625 
L 76.953125 22.65625 
L 48.046875 22.65625 
L 48.046875 15.625 
z
M 76.953125 28.515625 
L 76.953125 35.546875 
L 48.046875 35.546875 
L 48.046875 28.515625 
z
" id="SimHei-20540"/>
      <path d="M 3.515625 19.53125 
Q 4.296875 30.859375 6.046875 34.765625 
Q 7.8125 38.671875 11.328125 44.53125 
L 27.34375 69.53125 
L 36.328125 69.53125 
L 19.921875 43.75 
Q 30.46875 46.484375 36.71875 42.96875 
Q 42.96875 39.453125 45.109375 34.953125 
Q 47.265625 30.46875 47.453125 25.1875 
Q 47.65625 19.921875 45.890625 14.84375 
Q 44.140625 9.765625 39.640625 5.65625 
Q 35.15625 1.5625 27.140625 1.171875 
Q 19.140625 0.78125 13.46875 4.09375 
Q 7.8125 7.421875 5.65625 13.46875 
Q 3.515625 19.53125 4.296875 30.859375 
z
M 12.5 16.015625 
Q 19.53125 8.59375 25.390625 8.203125 
Q 31.25 7.8125 35.15625 12.109375 
Q 39.0625 16.40625 39.0625 24.609375 
Q 39.0625 32.8125 34.171875 35.9375 
Q 29.296875 39.0625 23.234375 38.28125 
Q 17.1875 37.5 14.453125 32.421875 
Q 11.71875 27.34375 12.109375 21.671875 
Q 12.5 16.015625 19.53125 8.59375 
z
" id="SimHei-54"/>
     </defs>
     <g transform="translate(200.818182 66.020938)scale(0.1 -0.1)">
      <use xlink:href="#SimHei-38408"/>
      <use x="100" xlink:href="#SimHei-20540"/>
      <use x="200" xlink:href="#SimHei-32447"/>
      <use x="300" xlink:href="#SimHei-40"/>
      <use x="350" xlink:href="#SimHei-50"/>
      <use x="400" xlink:href="#SimHei-54"/>
      <use x="450" xlink:href="#SimHei-31186"/>
      <use x="550" xlink:href="#SimHei-41"/>
     </g>
    </g>
   </g>
  </g>
  <g id="axes_2">
   <g id="patch_8">
    <path d="M 394.363636 252 
L 648 252 
L 648 34.56 
L 394.363636 34.56 
z
" style="fill:#ffffff;"/>
   </g>
   <g id="matplotlib.axis_3">
    <g id="xtick_6">
     <g id="line2d_20">
      <g>
       <use style="stroke:#000000;stroke-width:0.8;" x="405.892562" xlink:href="#m959e4c2b21" y="252"/>
      </g>
     </g>
     <g id="text_19">
      <!-- 0 -->
      <g transform="translate(403.392562 265.875)scale(0.1 -0.1)">
       <use xlink:href="#SimHei-48"/>
      </g>
     </g>
    </g>
    <g id="xtick_7">
     <g id="line2d_21">
      <g>
       <use style="stroke:#000000;stroke-width:0.8;" x="455.672034" xlink:href="#m959e4c2b21" y="252"/>
      </g>
     </g>
     <g id="text_20">
      <!-- 500 -->
      <g transform="translate(448.172034 265.875)scale(0.1 -0.1)">
       <use xlink:href="#SimHei-53"/>
       <use x="50" xlink:href="#SimHei-48"/>
       <use x="100" xlink:href="#SimHei-48"/>
      </g>
     </g>
    </g>
    <g id="xtick_8">
     <g id="line2d_22">
      <g>
       <use style="stroke:#000000;stroke-width:0.8;" x="505.451505" xlink:href="#m959e4c2b21" y="252"/>
      </g>
     </g>
     <g id="text_21">
      <!-- 1000 -->
      <g transform="translate(495.451505 265.875)scale(0.1 -0.1)">
       <use xlink:href="#SimHei-49"/>
       <use x="50" xlink:href="#SimHei-48"/>
       <use x="100" xlink:href="#SimHei-48"/>
       <use x="150" xlink:href="#SimHei-48"/>
      </g>
     </g>
    </g>
    <g id="xtick_9">
     <g id="line2d_23">
      <g>
       <use style="stroke:#000000;stroke-width:0.8;" x="555.230977" xlink:href="#m959e4c2b21" y="252"/>
      </g>
     </g>
     <g id="text_22">
      <!-- 1500 -->
      <g transform="translate(545.230977 265.875)scale(0.1 -0.1)">
       <use xlink:href="#SimHei-49"/>
       <use x="50" xlink:href="#SimHei-53"/>
       <use x="100" xlink:href="#SimHei-48"/>
       <use x="150" xlink:href="#SimHei-48"/>
      </g>
     </g>
    </g>
    <g id="xtick_10">
     <g id="line2d_24">
      <g>
       <use style="stroke:#000000;stroke-width:0.8;" x="605.010448" xlink:href="#m959e4c2b21" y="252"/>
      </g>
     </g>
     <g id="text_23">
      <!-- 2000 -->
      <g transform="translate(595.010448 265.875)scale(0.1 -0.1)">
       <use xlink:href="#SimHei-50"/>
       <use x="50" xlink:href="#SimHei-48"/>
       <use x="100" xlink:href="#SimHei-48"/>
       <use x="150" xlink:href="#SimHei-48"/>
      </g>
     </g>
    </g>
    <g id="text_24">
     <!-- 缺失段序号 -->
     <g transform="translate(496.181818 279.171875)scale(0.1 -0.1)">
      <use xlink:href="#SimHei-32570"/>
      <use x="100" xlink:href="#SimHei-22833"/>
      <use x="200" xlink:href="#SimHei-27573"/>
      <use x="300" xlink:href="#SimHei-24207"/>
      <use x="400" xlink:href="#SimHei-21495"/>
     </g>
    </g>
   </g>
   <g id="matplotlib.axis_4">
    <g id="ytick_9">
     <g id="line2d_25">
      <g>
       <use style="stroke:#000000;stroke-width:0.8;" x="394.363636" xlink:href="#m53768ede81" y="231.601857"/>
      </g>
     </g>
     <g id="text_25">
      <!-- 0 -->
      <g transform="translate(382.363636 235.039357)scale(0.1 -0.1)">
       <use xlink:href="#SimHei-48"/>
      </g>
     </g>
    </g>
    <g id="ytick_10">
     <g id="line2d_26">
      <g>
       <use style="stroke:#000000;stroke-width:0.8;" x="394.363636" xlink:href="#m53768ede81" y="205.31559"/>
      </g>
     </g>
     <g id="text_26">
      <!-- 25 -->
      <g transform="translate(377.363636 208.75309)scale(0.1 -0.1)">
       <use xlink:href="#SimHei-50"/>
       <use x="50" xlink:href="#SimHei-53"/>
      </g>
     </g>
    </g>
    <g id="ytick_11">
     <g id="line2d_27">
      <g>
       <use style="stroke:#000000;stroke-width:0.8;" x="394.363636" xlink:href="#m53768ede81" y="179.029323"/>
      </g>
     </g>
     <g id="text_27">
      <!-- 50 -->
      <g transform="translate(377.363636 182.466823)scale(0.1 -0.1)">
       <use xlink:href="#SimHei-53"/>
       <use x="50" xlink:href="#SimHei-48"/>
      </g>
     </g>
    </g>
    <g id="ytick_12">
     <g id="line2d_28">
      <g>
       <use style="stroke:#000000;stroke-width:0.8;" x="394.363636" xlink:href="#m53768ede81" y="152.743056"/>
      </g>
     </g>
     <g id="text_28">
      <!-- 75 -->
      <g transform="translate(377.363636 156.180556)scale(0.1 -0.1)">
       <use xlink:href="#SimHei-55"/>
       <use x="50" xlink:href="#SimHei-53"/>
      </g>
     </g>
    </g>
    <g id="ytick_13">
     <g id="line2d_29">
      <g>
       <use style="stroke:#000000;stroke-width:0.8;" x="394.363636" xlink:href="#m53768ede81" y="126.456789"/>
      </g>
     </g>
     <g id="text_29">
      <!-- 100 -->
      <g transform="translate(372.363636 129.894289)scale(0.1 -0.1)">
       <use xlink:href="#SimHei-49"/>
       <use x="50" xlink:href="#SimHei-48"/>
       <use x="100" xlink:href="#SimHei-48"/>
      </g>
     </g>
    </g>
    <g id="ytick_14">
     <g id="line2d_30">
      <g>
       <use style="stroke:#000000;stroke-width:0.8;" x="394.363636" xlink:href="#m53768ede81" y="100.170522"/>
      </g>
     </g>
     <g id="text_30">
      <!-- 125 -->
      <g transform="translate(372.363636 103.608022)scale(0.1 -0.1)">
       <use xlink:href="#SimHei-49"/>
       <use x="50" xlink:href="#SimHei-50"/>
       <use x="100" xlink:href="#SimHei-53"/>
      </g>
     </g>
    </g>
    <g id="ytick_15">
     <g id="line2d_31">
      <g>
       <use style="stroke:#000000;stroke-width:0.8;" x="394.363636" xlink:href="#m53768ede81" y="73.884255"/>
      </g>
     </g>
     <g id="text_31">
      <!-- 150 -->
      <g transform="translate(372.363636 77.321755)scale(0.1 -0.1)">
       <use xlink:href="#SimHei-49"/>
       <use x="50" xlink:href="#SimHei-53"/>
       <use x="100" xlink:href="#SimHei-48"/>
      </g>
     </g>
    </g>
    <g id="ytick_16">
     <g id="line2d_32">
      <g>
       <use style="stroke:#000000;stroke-width:0.8;" x="394.363636" xlink:href="#m53768ede81" y="47.597988"/>
      </g>
     </g>
     <g id="text_32">
      <!-- 175 -->
      <g transform="translate(372.363636 51.035488)scale(0.1 -0.1)">
       <use xlink:href="#SimHei-49"/>
       <use x="50" xlink:href="#SimHei-55"/>
       <use x="100" xlink:href="#SimHei-53"/>
      </g>
     </g>
    </g>
    <g id="text_33">
     <!-- 缺失时间(秒) -->
     <g transform="translate(367.113636 173.28)rotate(-90)scale(0.1 -0.1)">
      <use xlink:href="#SimHei-32570"/>
      <use x="100" xlink:href="#SimHei-22833"/>
      <use x="200" xlink:href="#SimHei-26102"/>
      <use x="300" xlink:href="#SimHei-38388"/>
      <use x="400" xlink:href="#SimHei-40"/>
      <use x="450" xlink:href="#SimHei-31186"/>
      <use x="550" xlink:href="#SimHei-41"/>
     </g>
    </g>
   </g>
   <g id="LineCollection_1">
    <path clip-path="url(#pff5febf44e)" d="M 619.546054 242.116364 
L 619.546054 44.443636 
" style="fill:none;stroke:#ff0000;stroke-dasharray:5.55,2.4;stroke-dashoffset:0;stroke-width:1.5;"/>
   </g>
   <g id="line2d_33">
    <path clip-path="url(#pff5febf44e)" d="M 405.892562 229.498956 
L 579.324241 229.498956 
L 579.523359 228.447505 
L 592.167345 228.447505 
L 592.366463 227.396054 
L 603.815741 227.396054 
L 604.014859 226.344603 
L 608.295893 226.344603 
L 608.495011 225.293153 
L 611.282662 225.293153 
L 611.48178 224.241702 
L 612.676487 224.241702 
L 612.875605 223.190251 
L 613.572517 223.190251 
L 613.771635 222.138801 
L 614.568107 222.138801 
L 614.767225 221.08735 
L 615.065902 221.08735 
L 615.265019 220.035899 
L 615.862373 220.035899 
L 616.061491 218.984449 
L 616.459727 218.984449 
L 616.658845 217.932998 
L 616.758404 217.932998 
L 616.957522 216.881547 
L 617.355757 216.881547 
L 617.554875 215.830097 
L 617.953111 215.830097 
L 618.251788 213.727195 
L 618.351347 213.727195 
L 618.749582 210.572843 
L 618.9487 210.572843 
L 619.645613 204.264139 
L 619.844731 204.264139 
L 620.84032 194.801083 
L 621.138997 194.801083 
L 621.338115 193.749632 
L 621.537233 193.749632 
L 621.736351 192.698182 
L 622.134587 192.698182 
L 622.333704 191.646731 
L 622.632381 191.646731 
L 622.831499 190.59528 
L 623.130176 190.59528 
L 623.329294 189.54383 
L 624.026206 189.54383 
L 624.324883 187.440928 
L 625.220914 187.440928 
L 625.519591 185.338027 
L 625.61915 185.338027 
L 625.818267 184.286576 
L 626.116944 184.286576 
L 626.415621 182.183675 
L 626.614739 182.183675 
L 626.813857 181.132224 
L 626.913416 181.132224 
L 627.112534 180.080774 
L 627.311652 180.080774 
L 627.510769 179.029323 
L 627.909005 179.029323 
L 628.108123 177.977872 
L 628.506359 177.977872 
L 629.004154 173.77207 
L 629.103713 173.77207 
L 629.402389 171.669168 
L 629.601507 171.669168 
L 629.900184 169.566267 
L 630.198861 169.566267 
L 630.397979 167.463366 
L 630.497538 167.463366 
L 630.696656 164.309014 
L 630.995333 160.103211 
L 631.19445 158.000309 
L 631.294009 158.000309 
L 631.592686 155.897408 
L 631.692245 155.897408 
L 631.990922 151.691605 
L 632.886952 142.228549 
L 633.185629 134.868395 
L 633.285188 134.868395 
L 633.484306 131.714043 
L 633.782983 123.302437 
L 634.181219 116.993733 
L 634.380337 116.993733 
L 634.579454 110.685029 
L 634.679013 109.633578 
L 634.878131 102.273424 
L 634.97769 101.221973 
L 635.176808 95.96472 
L 635.575044 90.707466 
L 635.873721 78.090058 
L 636.072839 57.061044 
L 636.172398 57.061044 
L 636.371515 51.803791 
L 636.471074 44.443636 
L 636.471074 44.443636 
" style="fill:none;stroke:#1f77b4;stroke-linecap:square;stroke-width:1.5;"/>
   </g>
   <g id="patch_9">
    <path d="M 394.363636 252 
L 394.363636 34.56 
" style="fill:none;stroke:#000000;stroke-linecap:square;stroke-linejoin:miter;stroke-width:0.8;"/>
   </g>
   <g id="patch_10">
    <path d="M 648 252 
L 648 34.56 
" style="fill:none;stroke:#000000;stroke-linecap:square;stroke-linejoin:miter;stroke-width:0.8;"/>
   </g>
   <g id="patch_11">
    <path d="M 394.363636 252 
L 648 252 
" style="fill:none;stroke:#000000;stroke-linecap:square;stroke-linejoin:miter;stroke-width:0.8;"/>
   </g>
   <g id="patch_12">
    <path d="M 394.363636 34.56 
L 648 34.56 
" style="fill:none;stroke:#000000;stroke-linecap:square;stroke-linejoin:miter;stroke-width:0.8;"/>
   </g>
   <g id="text_34">
    <!-- 排序的缺失曲线 -->
    <defs>
     <path d="M 3.515625 28.515625 
Q 10.546875 29.6875 17.96875 32.421875 
L 17.96875 53.515625 
L 14.84375 53.515625 
Q 10.15625 53.515625 5.46875 53.125 
L 5.46875 60.15625 
Q 9.375 59.765625 14.84375 59.765625 
L 17.96875 59.765625 
L 17.96875 70.3125 
Q 17.96875 75.78125 17.578125 80.859375 
L 26.171875 80.859375 
Q 25.390625 76.5625 25.390625 70.3125 
L 25.390625 59.765625 
Q 32.421875 59.765625 35.546875 60.15625 
L 35.546875 53.125 
Q 29.296875 53.515625 25.390625 53.515625 
L 25.390625 34.765625 
Q 30.46875 36.328125 35.546875 39.0625 
Q 35.546875 34.375 35.9375 32.03125 
Q 32.421875 30.859375 25.390625 28.125 
L 25.390625 -1.5625 
Q 25 -6.640625 22.0625 -7.8125 
Q 19.140625 -8.984375 10.9375 -10.15625 
Q 9.375 -3.515625 7.03125 -1.171875 
Q 13.671875 -1.953125 15.625 -1.75 
Q 17.578125 -1.5625 17.96875 1.171875 
L 17.96875 25.78125 
Q 13.28125 24.21875 7.03125 20.3125 
Q 5.859375 23.828125 3.515625 28.515625 
z
M 78.90625 80.078125 
Q 78.515625 75 78.515625 67.1875 
L 78.515625 62.5 
Q 89.0625 62.5 95.3125 63.28125 
L 95.3125 55.859375 
Q 89.453125 56.25 86.328125 56.25 
L 78.515625 56.25 
L 78.515625 41.015625 
Q 87.890625 41.015625 92.96875 41.40625 
L 92.96875 33.984375 
Q 87.890625 34.375 78.515625 34.375 
L 78.515625 16.796875 
Q 89.84375 16.796875 96.09375 17.1875 
L 96.09375 9.765625 
Q 91.40625 10.15625 78.515625 10.15625 
L 78.515625 4.296875 
Q 78.515625 1.171875 78.90625 -9.375 
L 71.09375 -9.375 
L 71.09375 67.1875 
Q 71.09375 75.78125 70.703125 80.078125 
L 78.90625 80.078125 
z
M 53.515625 67.96875 
Q 53.515625 76.953125 53.125 80.46875 
L 61.328125 80.46875 
Q 60.9375 75 60.9375 66.40625 
L 60.9375 -9.375 
L 53.125 -9.375 
Q 53.515625 -0.78125 53.515625 4.296875 
L 53.515625 10.15625 
Q 41.015625 10.15625 34.765625 9.765625 
L 34.765625 17.1875 
Q 39.84375 16.796875 53.515625 16.796875 
L 53.515625 34.375 
Q 43.359375 34.375 39.453125 33.59375 
L 39.453125 41.40625 
Q 42.96875 41.015625 53.515625 41.015625 
L 53.515625 56.25 
Q 42.1875 56.25 38.28125 55.859375 
L 38.28125 63.28125 
Q 42.578125 62.5 53.515625 62.5 
z
" id="SimHei-25490"/>
     <path d="M 32.8125 77.734375 
Q 30.859375 74.21875 27.34375 61.71875 
L 44.921875 61.71875 
Q 44.53125 55.078125 44.53125 44.921875 
L 44.53125 10.546875 
Q 44.53125 4.6875 44.921875 -6.25 
L 37.109375 -6.25 
L 37.109375 1.5625 
L 17.1875 1.5625 
L 17.1875 -7.03125 
L 9.375 -7.03125 
Q 9.765625 5.46875 9.765625 8.59375 
L 9.765625 44.53125 
Q 9.765625 55.078125 9.375 61.71875 
L 20.703125 61.71875 
Q 22.65625 70.703125 23.828125 80.46875 
Q 29.296875 78.515625 32.8125 77.734375 
z
M 91.015625 48.046875 
Q 90.625 24.21875 89.0625 2.734375 
Q 88.28125 -4.296875 81.640625 -6.640625 
Q 75 -8.984375 66.796875 -9.765625 
Q 66.40625 -5.46875 63.28125 -0.78125 
Q 71.09375 -1.171875 75.578125 -0.390625 
Q 80.078125 0.390625 81.25 3.125 
Q 82.421875 5.859375 83 19.140625 
Q 83.59375 32.421875 83.984375 56.25 
L 61.328125 56.25 
Q 58.203125 48.828125 52.34375 38.671875 
Q 49.609375 41.40625 45.703125 42.96875 
Q 49.21875 47.65625 52.34375 54.296875 
Q 55.46875 60.9375 57.8125 68.75 
Q 60.15625 76.5625 60.546875 80.859375 
Q 66.015625 78.515625 69.921875 77.34375 
Q 67.96875 74.21875 66.59375 70.5 
Q 65.234375 66.796875 63.671875 63.28125 
L 91.40625 63.28125 
Q 91.015625 55.078125 91.015625 48.046875 
z
M 37.109375 8.203125 
L 37.109375 28.90625 
L 17.1875 28.90625 
L 17.1875 8.203125 
z
M 37.109375 35.546875 
L 37.109375 55.078125 
L 17.1875 55.078125 
L 17.1875 35.546875 
z
M 67.96875 32.03125 
Q 70.3125 27.34375 73.4375 19.921875 
Q 70.703125 18.75 66.015625 16.015625 
Q 63.28125 23.4375 60.9375 28.703125 
Q 58.59375 33.984375 56.25 37.5 
Q 58.984375 39.0625 63.28125 41.40625 
z
" id="SimHei-30340"/>
    </defs>
    <g transform="translate(479.181818 28.56)scale(0.12 -0.12)">
     <use xlink:href="#SimHei-25490"/>
     <use x="100" xlink:href="#SimHei-24207"/>
     <use x="200" xlink:href="#SimHei-30340"/>
     <use x="300" xlink:href="#SimHei-32570"/>
     <use x="400" xlink:href="#SimHei-22833"/>
     <use x="500" xlink:href="#SimHei-26354"/>
     <use x="600" xlink:href="#SimHei-32447"/>
    </g>
   </g>
   <g id="legend_2">
    <g id="patch_13">
     <path d="M 401.363636 71.270938 
L 493.363636 71.270938 
Q 495.363636 71.270938 495.363636 69.270938 
L 495.363636 41.56 
Q 495.363636 39.56 493.363636 39.56 
L 401.363636 39.56 
Q 399.363636 39.56 399.363636 41.56 
L 399.363636 69.270938 
Q 399.363636 71.270938 401.363636 71.270938 
z
" style="fill:#ffffff;opacity:0.8;stroke:#cccccc;stroke-linejoin:miter;"/>
    </g>
    <g id="line2d_34">
     <path d="M 403.363636 48.106875 
L 423.363636 48.106875 
" style="fill:none;stroke:#1f77b4;stroke-linecap:square;stroke-width:1.5;"/>
    </g>
    <g id="line2d_35"/>
    <g id="text_35">
     <!-- 缺失线 -->
     <g transform="translate(431.363636 51.606875)scale(0.1 -0.1)">
      <use xlink:href="#SimHei-32570"/>
      <use x="100" xlink:href="#SimHei-22833"/>
      <use x="200" xlink:href="#SimHei-32447"/>
     </g>
    </g>
    <g id="line2d_36">
     <path d="M 403.363636 62.520938 
L 423.363636 62.520938 
" style="fill:none;stroke:#ff0000;stroke-dasharray:5.55,2.4;stroke-dashoffset:0;stroke-width:1.5;"/>
    </g>
    <g id="text_36">
     <!-- 阈值线(26秒) -->
     <g transform="translate(431.363636 66.020938)scale(0.1 -0.1)">
      <use xlink:href="#SimHei-38408"/>
      <use x="100" xlink:href="#SimHei-20540"/>
      <use x="200" xlink:href="#SimHei-32447"/>
      <use x="300" xlink:href="#SimHei-40"/>
      <use x="350" xlink:href="#SimHei-50"/>
      <use x="400" xlink:href="#SimHei-54"/>
      <use x="450" xlink:href="#SimHei-31186"/>
      <use x="550" xlink:href="#SimHei-41"/>
     </g>
    </g>
   </g>
  </g>
 </g>
 <defs>
  <clipPath id="p196fa688fb">
   <rect height="217.44" width="253.636364" x="90" y="34.56"/>
  </clipPath>
  <clipPath id="pff5febf44e">
   <rect height="217.44" width="253.636364" x="394.363636" y="34.56"/>
  </clipPath>
 </defs>
</svg>
