<?xml version="1.0" encoding="utf-8" standalone="no"?>
<!DOCTYPE svg PUBLIC "-//W3C//DTD SVG 1.1//EN"
  "http://www.w3.org/Graphics/SVG/1.1/DTD/svg11.dtd">
<!-- Created with matplotlib (https://matplotlib.org/) -->
<svg height="288pt" version="1.1" viewBox="0 0 720 288" width="720pt" xmlns="http://www.w3.org/2000/svg" xmlns:xlink="http://www.w3.org/1999/xlink">
 <defs>
  <style type="text/css">
*{stroke-linecap:butt;stroke-linejoin:round;}
  </style>
 </defs>
 <g id="figure_1">
  <g id="patch_1">
   <path d="M 0 288 
L 720 288 
L 720 0 
L 0 0 
z
" style="fill:#ffffff;"/>
  </g>
  <g id="axes_1">
   <g id="patch_2">
    <path d="M 90 252 
L 343.636364 252 
L 343.636364 34.56 
L 90 34.56 
z
" style="fill:#ffffff;"/>
   </g>
   <g id="matplotlib.axis_1">
    <g id="xtick_1">
     <g id="line2d_1">
      <defs>
       <path d="M 0 0 
L 0 3.5 
" id="m064b8324b6" style="stroke:#000000;stroke-width:0.8;"/>
      </defs>
      <g>
       <use style="stroke:#000000;stroke-width:0.8;" x="101.528926" xlink:href="#m064b8324b6" y="252"/>
      </g>
     </g>
     <g id="text_1">
      <!-- 0 -->
      <defs>
       <path d="M 3.125 29.296875 
Q 3.90625 50 6.4375 56.046875 
Q 8.984375 62.109375 13.671875 66.015625 
Q 18.359375 69.921875 25.1875 69.921875 
Q 32.03125 69.921875 37.109375 64.25 
Q 42.1875 58.59375 43.75 50 
Q 45.3125 41.40625 44.71875 30.265625 
Q 44.140625 19.140625 40.8125 12.109375 
Q 37.5 5.078125 30.859375 2.34375 
Q 24.21875 -0.390625 17.578125 2.921875 
Q 10.9375 6.25 8.203125 11.71875 
Q 5.46875 17.1875 4.296875 23.234375 
Q 3.125 29.296875 3.90625 50 
z
M 12.890625 52.734375 
Q 10.546875 31.25 12.5 22.84375 
Q 14.453125 14.453125 18.9375 10.9375 
Q 23.4375 7.421875 28.125 9.5625 
Q 32.8125 11.71875 34.953125 18.15625 
Q 37.109375 24.609375 37.109375 32.21875 
Q 37.109375 39.84375 36.515625 46.09375 
Q 35.9375 52.34375 33 57.421875 
Q 30.078125 62.5 25.1875 62.6875 
Q 20.3125 62.890625 16.59375 57.8125 
Q 12.890625 52.734375 10.546875 31.25 
z
" id="SimHei-48"/>
      </defs>
      <g transform="translate(99.028926 265.875)scale(0.1 -0.1)">
       <use xlink:href="#SimHei-48"/>
      </g>
     </g>
    </g>
    <g id="xtick_2">
     <g id="line2d_2">
      <g>
       <use style="stroke:#000000;stroke-width:0.8;" x="142.339282" xlink:href="#m064b8324b6" y="252"/>
      </g>
     </g>
     <g id="text_2">
      <!-- 100 -->
      <defs>
       <path d="M 21.875 56.25 
Q 16.796875 51.171875 8.984375 46.484375 
L 8.984375 53.90625 
Q 18.75 60.546875 25 69.53125 
L 29.6875 69.53125 
L 29.6875 2.34375 
L 21.875 2.34375 
z
" id="SimHei-49"/>
      </defs>
      <g transform="translate(134.839282 265.875)scale(0.1 -0.1)">
       <use xlink:href="#SimHei-49"/>
       <use x="50" xlink:href="#SimHei-48"/>
       <use x="100" xlink:href="#SimHei-48"/>
      </g>
     </g>
    </g>
    <g id="xtick_3">
     <g id="line2d_3">
      <g>
       <use style="stroke:#000000;stroke-width:0.8;" x="183.149638" xlink:href="#m064b8324b6" y="252"/>
      </g>
     </g>
     <g id="text_3">
      <!-- 200 -->
      <defs>
       <path d="M 4.6875 3.90625 
Q 5.078125 9.765625 10.15625 14.453125 
Q 15.234375 19.140625 23.046875 29.09375 
Q 30.859375 39.0625 33.203125 44.53125 
Q 35.546875 50 34.953125 53.90625 
Q 34.375 57.8125 31.25 60.34375 
Q 28.125 62.890625 24.015625 62.5 
Q 19.921875 62.109375 16.203125 59.375 
Q 12.5 56.640625 10.546875 51.171875 
L 3.125 52.34375 
Q 6.25 61.328125 11.125 65.421875 
Q 16.015625 69.53125 22.65625 69.921875 
Q 26.5625 70.3125 29.6875 69.71875 
Q 32.8125 69.140625 36.125 66.984375 
Q 39.453125 64.84375 41.59375 60.546875 
Q 43.75 56.25 43.15625 50.1875 
Q 42.578125 44.140625 37.109375 35.734375 
Q 31.640625 27.34375 16.015625 9.375 
L 44.140625 9.375 
L 44.140625 2.34375 
L 4.6875 2.34375 
z
" id="SimHei-50"/>
      </defs>
      <g transform="translate(175.649638 265.875)scale(0.1 -0.1)">
       <use xlink:href="#SimHei-50"/>
       <use x="50" xlink:href="#SimHei-48"/>
       <use x="100" xlink:href="#SimHei-48"/>
      </g>
     </g>
    </g>
    <g id="xtick_4">
     <g id="line2d_4">
      <g>
       <use style="stroke:#000000;stroke-width:0.8;" x="223.959994" xlink:href="#m064b8324b6" y="252"/>
      </g>
     </g>
     <g id="text_4">
      <!-- 300 -->
      <defs>
       <path d="M 3.90625 19.140625 
L 10.9375 20.3125 
Q 12.5 15.234375 16.015625 11.90625 
Q 19.53125 8.59375 24.796875 8.78125 
Q 30.078125 8.984375 33.203125 13.078125 
Q 36.328125 17.1875 35.9375 22.453125 
Q 35.546875 27.734375 31.828125 30.65625 
Q 28.125 33.59375 19.921875 34.765625 
L 19.921875 39.84375 
Q 28.125 40.625 31.828125 44.140625 
Q 35.546875 47.65625 35.15625 53.3125 
Q 34.765625 58.984375 30.078125 61.515625 
Q 25.390625 64.0625 20.109375 62.109375 
Q 14.84375 60.15625 11.71875 51.171875 
L 4.6875 52.34375 
Q 7.03125 59.375 11.125 64.0625 
Q 15.234375 68.75 22.265625 69.53125 
Q 29.296875 70.3125 34.5625 67.765625 
Q 39.84375 65.234375 41.984375 59.953125 
Q 44.140625 54.6875 42.578125 48.4375 
Q 41.015625 42.1875 33.59375 37.5 
Q 39.0625 35.15625 41.984375 30.46875 
Q 44.921875 25.78125 43.9375 18.15625 
Q 42.96875 10.546875 37.109375 5.859375 
Q 31.25 1.171875 23.828125 1.359375 
Q 16.40625 1.5625 10.9375 6.046875 
Q 5.46875 10.546875 3.90625 19.140625 
z
" id="SimHei-51"/>
      </defs>
      <g transform="translate(216.459994 265.875)scale(0.1 -0.1)">
       <use xlink:href="#SimHei-51"/>
       <use x="50" xlink:href="#SimHei-48"/>
       <use x="100" xlink:href="#SimHei-48"/>
      </g>
     </g>
    </g>
    <g id="xtick_5">
     <g id="line2d_5">
      <g>
       <use style="stroke:#000000;stroke-width:0.8;" x="264.77035" xlink:href="#m064b8324b6" y="252"/>
      </g>
     </g>
     <g id="text_5">
      <!-- 400 -->
      <defs>
       <path d="M 31.25 17.1875 
L 1.171875 17.1875 
L 1.171875 23.828125 
L 32.8125 69.53125 
L 38.671875 69.53125 
L 38.671875 23.828125 
L 48.046875 23.828125 
L 48.046875 17.1875 
L 38.671875 17.1875 
L 38.671875 2.34375 
L 31.25 2.34375 
z
M 31.25 23.828125 
L 31.25 54.6875 
L 9.375 23.828125 
z
" id="SimHei-52"/>
      </defs>
      <g transform="translate(257.27035 265.875)scale(0.1 -0.1)">
       <use xlink:href="#SimHei-52"/>
       <use x="50" xlink:href="#SimHei-48"/>
       <use x="100" xlink:href="#SimHei-48"/>
      </g>
     </g>
    </g>
    <g id="xtick_6">
     <g id="line2d_6">
      <g>
       <use style="stroke:#000000;stroke-width:0.8;" x="305.580707" xlink:href="#m064b8324b6" y="252"/>
      </g>
     </g>
     <g id="text_6">
      <!-- 500 -->
      <defs>
       <path d="M 8.59375 20.703125 
Q 11.328125 10.15625 17.96875 8.984375 
Q 24.609375 7.8125 28.703125 10.34375 
Q 32.8125 12.890625 34.5625 16.984375 
Q 36.328125 21.09375 36.125 26.171875 
Q 35.9375 31.25 33.390625 34.765625 
Q 30.859375 38.28125 26.953125 39.453125 
Q 23.046875 40.625 18.15625 39.453125 
Q 13.28125 38.28125 10.15625 33.984375 
L 3.515625 34.765625 
Q 4.296875 37.109375 10.9375 68.359375 
L 41.796875 68.359375 
L 41.796875 61.328125 
L 16.796875 61.328125 
Q 14.84375 50.78125 12.890625 44.53125 
Q 18.75 47.265625 23.828125 47.0625 
Q 28.90625 46.875 33.59375 44.71875 
Q 38.28125 42.578125 40.421875 38.859375 
Q 42.578125 35.15625 43.546875 31.4375 
Q 44.53125 27.734375 44.328125 23.4375 
Q 44.140625 19.140625 42.578125 14.640625 
Q 41.015625 10.15625 37.890625 7.21875 
Q 34.765625 4.296875 30.265625 2.53125 
Q 25.78125 0.78125 19.921875 1.171875 
Q 14.0625 1.5625 8.78125 5.46875 
Q 3.515625 9.375 1.5625 18.75 
z
" id="SimHei-53"/>
      </defs>
      <g transform="translate(298.080707 265.875)scale(0.1 -0.1)">
       <use xlink:href="#SimHei-53"/>
       <use x="50" xlink:href="#SimHei-48"/>
       <use x="100" xlink:href="#SimHei-48"/>
      </g>
     </g>
    </g>
    <g id="text_7">
     <!-- 缺失段序号 -->
     <defs>
      <path d="M 88.671875 -9.375 
Q 79.6875 -2.34375 74.21875 5.265625 
Q 68.75 12.890625 66.40625 20.3125 
Q 63.28125 8.984375 57.03125 1.359375 
Q 50.78125 -6.25 45.3125 -10.546875 
Q 42.1875 -6.640625 38.671875 -5.46875 
Q 44.53125 -2.34375 50.96875 5.46875 
Q 57.421875 13.28125 60.9375 28.125 
Q 53.90625 28.125 46.484375 27.734375 
L 46.484375 34.375 
Q 53.515625 33.984375 61.71875 33.984375 
Q 62.109375 41.40625 62.5 55.46875 
Q 55.859375 55.46875 49.21875 55.078125 
L 49.21875 62.109375 
Q 55.859375 61.71875 62.5 61.71875 
Q 62.5 75 62.109375 81.25 
Q 66.40625 80.46875 71.484375 80.078125 
Q 70.703125 76.953125 70.3125 71.484375 
Q 69.921875 66.015625 69.921875 61.71875 
L 88.28125 61.71875 
Q 87.5 55.078125 87.5 49.21875 
L 87.109375 33.984375 
Q 90.234375 33.984375 95.703125 34.375 
L 95.703125 27.734375 
Q 89.0625 28.125 84.375 28.125 
L 71.09375 28.125 
Q 74.21875 16.40625 81.640625 8.203125 
Q 89.0625 0 95.703125 -3.125 
Q 91.015625 -5.46875 88.671875 -9.375 
z
M 8.984375 47.65625 
Q 6.25 50 1.953125 51.171875 
Q 7.8125 58.59375 11.71875 66.40625 
Q 15.625 74.21875 16.796875 78.90625 
Q 21.09375 77.34375 25.390625 76.171875 
Q 23.046875 73.828125 17.96875 63.28125 
L 32.8125 63.28125 
Q 39.0625 63.28125 45.3125 63.671875 
L 45.3125 56.640625 
Q 38.671875 57.03125 30.859375 57.03125 
L 30.859375 42.96875 
Q 38.671875 42.96875 46.484375 43.359375 
L 46.484375 36.71875 
Q 38.671875 37.109375 30.859375 37.109375 
L 30.859375 7.8125 
L 37.890625 8.59375 
Q 37.890625 25 37.5 28.515625 
L 45.3125 28.515625 
Q 44.921875 25.390625 44.921875 21.484375 
L 44.921875 1.171875 
L 37.890625 1.171875 
L 37.890625 3.125 
L 8.203125 -0.390625 
Q 8.59375 6.640625 8.59375 12.5 
Q 8.59375 18.75 8.203125 26.953125 
L 15.625 26.953125 
Q 15.234375 22.65625 15.234375 6.640625 
L 23.828125 7.421875 
L 23.828125 36.71875 
Q 10.9375 36.71875 5.078125 36.328125 
L 5.078125 43.359375 
Q 10.9375 42.96875 23.828125 42.96875 
L 23.828125 57.03125 
L 14.84375 57.03125 
Q 12.109375 51.953125 8.984375 47.65625 
z
M 79.6875 33.984375 
L 80.078125 55.46875 
L 69.53125 55.46875 
Q 69.140625 38.671875 69.140625 33.984375 
z
" id="SimHei-32570"/>
      <path d="M 32.03125 69.53125 
Q 30.078125 67.578125 26.171875 58.59375 
L 46.09375 58.59375 
Q 46.09375 72.65625 45.703125 79.6875 
Q 49.609375 79.296875 54.6875 78.90625 
Q 53.90625 73.4375 53.703125 69.140625 
Q 53.515625 64.84375 53.515625 58.59375 
L 71.875 58.59375 
Q 78.125 58.59375 84.765625 58.984375 
L 84.765625 51.5625 
Q 78.515625 51.953125 71.875 51.953125 
L 53.515625 51.953125 
Q 53.515625 43.359375 52.734375 34.375 
L 78.90625 34.375 
Q 84.765625 34.375 91.796875 34.765625 
L 91.796875 27.34375 
Q 84.765625 27.734375 78.90625 27.734375 
L 55.859375 27.734375 
Q 60.546875 17.1875 71.875 10.546875 
Q 83.203125 3.90625 94.140625 1.5625 
Q 91.015625 -2.34375 88.671875 -7.421875 
Q 77.34375 -3.125 66.40625 4.484375 
Q 55.46875 12.109375 50 23.046875 
Q 45.3125 12.890625 36.328125 4.6875 
Q 27.34375 -3.515625 12.109375 -10.15625 
Q 10.15625 -6.25 6.25 -2.734375 
Q 19.53125 0.78125 29.875 9.171875 
Q 40.234375 17.578125 43.359375 27.734375 
L 20.703125 27.734375 
Q 14.453125 27.734375 7.03125 27.34375 
L 7.03125 34.765625 
Q 14.453125 34.375 20.703125 34.375 
L 44.921875 34.375 
Q 46.09375 42.578125 46.09375 51.953125 
L 23.4375 51.953125 
Q 18.75 43.75 15.234375 38.28125 
Q 12.109375 40.234375 7.8125 41.796875 
Q 14.84375 50.390625 18.546875 58.59375 
Q 22.265625 66.796875 23.4375 73.046875 
Q 28.125 70.703125 32.03125 69.53125 
z
" id="SimHei-22833"/>
      <path d="M 85.9375 38.671875 
Q 83.59375 27.734375 79.6875 19.328125 
Q 75.78125 10.9375 71.875 6.25 
Q 75.390625 3.515625 82.03125 1.359375 
Q 88.671875 -0.78125 95.703125 -1.953125 
Q 92.96875 -4.296875 91.015625 -10.15625 
Q 80.46875 -7.03125 75.390625 -4.484375 
Q 70.3125 -1.953125 66.015625 1.171875 
Q 59.765625 -2.734375 53.90625 -5.265625 
Q 48.046875 -7.8125 41.015625 -10.15625 
Q 39.453125 -6.25 36.328125 -3.515625 
Q 41.796875 -2.34375 48.4375 0 
Q 55.078125 2.34375 61.328125 6.640625 
Q 58.203125 10.546875 55.078125 17.96875 
Q 51.953125 25 50.390625 32.421875 
Q 47.65625 32.421875 45.3125 32.421875 
L 45.3125 39.0625 
Q 52.734375 38.671875 59.375 38.671875 
z
M 41.40625 72.265625 
Q 35.9375 71.09375 29.484375 69.921875 
Q 23.046875 68.75 20.3125 68.359375 
L 20.3125 55.46875 
Q 32.03125 55.46875 39.453125 56.25 
L 39.453125 48.828125 
Q 32.03125 49.21875 20.3125 49.21875 
L 20.3125 36.71875 
Q 32.03125 36.71875 39.453125 37.109375 
L 39.453125 29.6875 
Q 32.03125 30.078125 20.3125 30.078125 
L 20.3125 15.234375 
Q 30.46875 16.796875 41.015625 19.53125 
Q 40.625 15.625 40.625 12.109375 
Q 29.6875 10.546875 20.3125 8.203125 
L 20.3125 1.5625 
Q 20.3125 -3.125 20.703125 -9.765625 
L 12.5 -9.765625 
Q 12.890625 -3.125 12.890625 1.5625 
L 12.890625 6.640625 
Q 8.984375 5.859375 5.46875 4.6875 
Q 4.6875 10.15625 3.90625 12.890625 
Q 7.8125 13.28125 12.890625 14.0625 
L 12.890625 59.375 
Q 12.890625 66.015625 12.5 73.828125 
Q 17.1875 73.828125 24.609375 75.390625 
Q 32.03125 76.953125 37.109375 80.078125 
Q 38.671875 75.78125 41.40625 72.265625 
z
M 79.6875 77.734375 
Q 79.296875 71.875 79.296875 66.796875 
L 79.296875 57.03125 
Q 79.296875 53.515625 81.828125 52.921875 
Q 84.375 52.34375 93.359375 53.125 
Q 91.796875 50.390625 91.40625 46.09375 
L 79.296875 46.09375 
Q 72.65625 46.09375 72.265625 52.734375 
L 72.265625 71.484375 
L 58.984375 71.484375 
Q 58.984375 61.328125 57.421875 55.078125 
Q 55.859375 48.828125 50 42.578125 
Q 47.265625 45.3125 43.75 47.65625 
Q 51.171875 53.125 51.5625 61.515625 
Q 51.953125 69.921875 51.5625 77.734375 
L 79.6875 77.734375 
z
M 57.421875 32.8125 
Q 58.984375 26.171875 61.90625 20.109375 
Q 64.84375 14.0625 66.796875 12.109375 
Q 69.53125 14.84375 72.265625 20.5 
Q 75 26.171875 76.5625 32.8125 
L 59.375 32.8125 
z
" id="SimHei-27573"/>
      <path d="M 62.5 32.421875 
L 93.359375 32.421875 
Q 89.84375 23.828125 87.109375 16.015625 
Q 83.203125 17.1875 78.90625 17.96875 
Q 80.859375 22.65625 82.421875 26.5625 
L 63.28125 26.5625 
L 63.28125 2.34375 
Q 63.28125 -5.859375 58.78125 -7.21875 
Q 54.296875 -8.59375 46.09375 -8.984375 
Q 44.921875 -4.6875 42.96875 0 
Q 52.34375 -1.171875 54.296875 0.390625 
Q 56.25 1.953125 55.859375 5.859375 
L 55.859375 26.5625 
L 38.28125 26.5625 
Q 32.03125 26.5625 26.171875 26.171875 
L 26.171875 32.8125 
Q 32.8125 32.421875 37.890625 32.421875 
L 57.421875 32.421875 
Q 51.953125 37.5 44.921875 43.359375 
Q 46.484375 44.921875 50.78125 48.4375 
Q 53.125 46.484375 58.203125 42.578125 
L 71.484375 51.171875 
L 46.875 51.171875 
Q 37.5 51.171875 30.46875 50.78125 
L 30.46875 57.8125 
Q 37.5 57.421875 46.875 57.421875 
L 84.375 57.421875 
L 84.375 50.78125 
Q 73.4375 44.921875 62.890625 38.28125 
L 66.796875 35.15625 
z
M 58.203125 82.421875 
Q 59.765625 76.953125 61.328125 70.703125 
L 75.78125 70.703125 
Q 84.765625 70.703125 93.75 71.09375 
L 93.75 64.453125 
Q 84.765625 64.84375 75.78125 64.84375 
L 21.875 64.84375 
Q 21.875 42.96875 21.28125 33.390625 
Q 20.703125 23.828125 18.75 13.859375 
Q 16.796875 3.90625 12.109375 -5.46875 
Q 9.765625 -3.90625 3.90625 -1.953125 
Q 7.421875 4.6875 9.375 10.9375 
Q 11.328125 17.1875 12.5 25.578125 
Q 13.671875 33.984375 13.671875 44.140625 
Q 13.671875 54.6875 13.28125 70.703125 
L 52.34375 70.703125 
Q 51.171875 75.390625 49.21875 80.46875 
Q 53.515625 81.25 58.203125 82.421875 
z
" id="SimHei-24207"/>
      <path d="M 78.515625 76.953125 
Q 78.125 71.09375 78.125 63.671875 
Q 78.125 56.25 78.515625 49.609375 
L 21.875 49.609375 
Q 22.265625 55.078125 22.265625 62.5 
Q 22.265625 70.3125 21.875 76.953125 
L 78.515625 76.953125 
z
M 80.859375 41.015625 
Q 88.28125 41.015625 94.140625 41.40625 
L 94.140625 34.375 
Q 88.28125 34.765625 80.859375 34.765625 
L 38.28125 34.765625 
Q 36.71875 29.296875 34.765625 22.65625 
L 80.859375 22.65625 
Q 79.6875 16.40625 79.09375 12.109375 
Q 78.515625 7.8125 77.34375 1.75 
Q 76.171875 -4.296875 72.65625 -6.4375 
Q 69.140625 -8.59375 50.390625 -9.765625 
Q 48.828125 -5.46875 46.484375 -0.78125 
Q 60.546875 -1.171875 64.25 -0.78125 
Q 67.96875 -0.390625 69.140625 3.3125 
Q 70.3125 7.03125 71.484375 16.015625 
L 25 16.015625 
Q 28.515625 25.390625 30.46875 34.765625 
L 21.09375 34.765625 
Q 12.890625 34.765625 5.859375 34.375 
L 5.859375 41.40625 
Q 12.890625 41.015625 21.09375 41.015625 
z
M 70.703125 55.859375 
L 70.703125 70.703125 
L 29.6875 70.703125 
L 29.6875 55.859375 
z
" id="SimHei-21495"/>
     </defs>
     <g transform="translate(191.818182 279.171875)scale(0.1 -0.1)">
      <use xlink:href="#SimHei-32570"/>
      <use x="100" xlink:href="#SimHei-22833"/>
      <use x="200" xlink:href="#SimHei-27573"/>
      <use x="300" xlink:href="#SimHei-24207"/>
      <use x="400" xlink:href="#SimHei-21495"/>
     </g>
    </g>
   </g>
   <g id="matplotlib.axis_2">
    <g id="ytick_1">
     <g id="line2d_7">
      <defs>
       <path d="M 0 0 
L -3.5 0 
" id="m1897474398" style="stroke:#000000;stroke-width:0.8;"/>
      </defs>
      <g>
       <use style="stroke:#000000;stroke-width:0.8;" x="90" xlink:href="#m1897474398" y="244.375481"/>
      </g>
     </g>
     <g id="text_8">
      <!-- 0 -->
      <g transform="translate(78 247.812981)scale(0.1 -0.1)">
       <use xlink:href="#SimHei-48"/>
      </g>
     </g>
    </g>
    <g id="ytick_2">
     <g id="line2d_8">
      <g>
       <use style="stroke:#000000;stroke-width:0.8;" x="90" xlink:href="#m1897474398" y="216.136519"/>
      </g>
     </g>
     <g id="text_9">
      <!-- 25 -->
      <g transform="translate(73 219.574019)scale(0.1 -0.1)">
       <use xlink:href="#SimHei-50"/>
       <use x="50" xlink:href="#SimHei-53"/>
      </g>
     </g>
    </g>
    <g id="ytick_3">
     <g id="line2d_9">
      <g>
       <use style="stroke:#000000;stroke-width:0.8;" x="90" xlink:href="#m1897474398" y="187.897558"/>
      </g>
     </g>
     <g id="text_10">
      <!-- 50 -->
      <g transform="translate(73 191.335058)scale(0.1 -0.1)">
       <use xlink:href="#SimHei-53"/>
       <use x="50" xlink:href="#SimHei-48"/>
      </g>
     </g>
    </g>
    <g id="ytick_4">
     <g id="line2d_10">
      <g>
       <use style="stroke:#000000;stroke-width:0.8;" x="90" xlink:href="#m1897474398" y="159.658597"/>
      </g>
     </g>
     <g id="text_11">
      <!-- 75 -->
      <defs>
       <path d="M 13.28125 2.34375 
Q 20.3125 32.03125 37.890625 61.328125 
L 4.296875 61.328125 
L 4.296875 68.359375 
L 46.09375 68.359375 
L 46.09375 61.71875 
Q 27.734375 32.03125 21.875 2.34375 
L 13.28125 2.34375 
z
" id="SimHei-55"/>
      </defs>
      <g transform="translate(73 163.096097)scale(0.1 -0.1)">
       <use xlink:href="#SimHei-55"/>
       <use x="50" xlink:href="#SimHei-53"/>
      </g>
     </g>
    </g>
    <g id="ytick_5">
     <g id="line2d_11">
      <g>
       <use style="stroke:#000000;stroke-width:0.8;" x="90" xlink:href="#m1897474398" y="131.419636"/>
      </g>
     </g>
     <g id="text_12">
      <!-- 100 -->
      <g transform="translate(68 134.857136)scale(0.1 -0.1)">
       <use xlink:href="#SimHei-49"/>
       <use x="50" xlink:href="#SimHei-48"/>
       <use x="100" xlink:href="#SimHei-48"/>
      </g>
     </g>
    </g>
    <g id="ytick_6">
     <g id="line2d_12">
      <g>
       <use style="stroke:#000000;stroke-width:0.8;" x="90" xlink:href="#m1897474398" y="103.180675"/>
      </g>
     </g>
     <g id="text_13">
      <!-- 125 -->
      <g transform="translate(68 106.618175)scale(0.1 -0.1)">
       <use xlink:href="#SimHei-49"/>
       <use x="50" xlink:href="#SimHei-50"/>
       <use x="100" xlink:href="#SimHei-53"/>
      </g>
     </g>
    </g>
    <g id="ytick_7">
     <g id="line2d_13">
      <g>
       <use style="stroke:#000000;stroke-width:0.8;" x="90" xlink:href="#m1897474398" y="74.941714"/>
      </g>
     </g>
     <g id="text_14">
      <!-- 150 -->
      <g transform="translate(68 78.379214)scale(0.1 -0.1)">
       <use xlink:href="#SimHei-49"/>
       <use x="50" xlink:href="#SimHei-53"/>
       <use x="100" xlink:href="#SimHei-48"/>
      </g>
     </g>
    </g>
    <g id="ytick_8">
     <g id="line2d_14">
      <g>
       <use style="stroke:#000000;stroke-width:0.8;" x="90" xlink:href="#m1897474398" y="46.702753"/>
      </g>
     </g>
     <g id="text_15">
      <!-- 175 -->
      <g transform="translate(68 50.140253)scale(0.1 -0.1)">
       <use xlink:href="#SimHei-49"/>
       <use x="50" xlink:href="#SimHei-55"/>
       <use x="100" xlink:href="#SimHei-53"/>
      </g>
     </g>
    </g>
    <g id="text_16">
     <!-- 缺失时间(秒) -->
     <defs>
      <path d="M 39.453125 71.484375 
Q 39.0625 57.421875 39.0625 37.5 
Q 39.0625 17.578125 39.453125 6.25 
L 31.25 6.25 
L 31.25 13.671875 
L 15.625 13.671875 
L 15.625 0.78125 
L 7.421875 0.78125 
Q 7.8125 18.75 7.8125 36.71875 
Q 7.8125 55.078125 7.421875 71.484375 
L 39.453125 71.484375 
z
M 76.171875 59.765625 
Q 76.171875 71.484375 75.78125 81.640625 
L 84.375 81.640625 
Q 83.984375 71.484375 83.984375 59.765625 
Q 89.84375 59.765625 96.484375 60.15625 
L 96.484375 52.734375 
Q 89.84375 53.125 83.984375 53.125 
L 83.984375 0.78125 
Q 83.984375 -5.078125 79.296875 -6.640625 
Q 74.609375 -8.203125 67.1875 -8.984375 
Q 67.1875 -4.296875 62.890625 0 
Q 70.3125 -0.78125 73.234375 -0.390625 
Q 76.171875 0 76.171875 4.6875 
L 76.171875 53.125 
Q 56.640625 53.125 43.359375 52.734375 
L 43.359375 60.15625 
Q 55.859375 59.765625 76.171875 59.765625 
z
M 31.25 20.3125 
L 31.25 39.84375 
L 15.625 39.84375 
L 15.625 20.3125 
z
M 31.25 46.484375 
L 31.25 64.84375 
L 15.625 64.84375 
L 15.625 46.484375 
z
M 55.46875 42.578125 
Q 60.546875 34.375 65.234375 25 
Q 61.328125 23.828125 57.03125 21.484375 
Q 53.90625 30.859375 48.046875 39.0625 
Q 51.5625 40.625 55.46875 42.578125 
z
" id="SimHei-26102"/>
      <path d="M 69.53125 55.46875 
Q 69.140625 48.046875 69.140625 42.578125 
L 69.140625 21.875 
Q 69.140625 16.796875 69.53125 9.765625 
L 30.078125 9.765625 
Q 30.46875 16.796875 30.46875 22.265625 
L 30.46875 42.578125 
Q 30.46875 48.046875 30.078125 55.46875 
L 69.53125 55.46875 
z
M 90.625 76.171875 
Q 90.234375 68.75 90.234375 61.328125 
L 90.234375 3.90625 
Q 90.625 -5.078125 85.34375 -7.03125 
Q 80.078125 -8.984375 73.828125 -9.765625 
Q 73.4375 -5.078125 70.703125 -0.390625 
Q 78.125 -0.78125 80.265625 0.390625 
Q 82.421875 1.5625 82.421875 5.46875 
L 82.421875 69.53125 
L 58.984375 69.53125 
Q 49.609375 69.53125 41.40625 69.140625 
L 41.40625 76.5625 
Q 49.609375 76.171875 58.984375 76.171875 
z
M 8.59375 -8.203125 
Q 9.375 -0.390625 9.375 8.203125 
L 9.375 49.21875 
Q 9.375 57.421875 8.59375 62.890625 
L 17.578125 62.890625 
Q 17.1875 57.03125 17.1875 51.5625 
L 17.1875 7.8125 
Q 17.1875 0 17.578125 -8.203125 
z
M 61.71875 16.015625 
L 61.71875 30.46875 
L 37.890625 30.46875 
L 37.890625 16.015625 
z
M 61.71875 36.71875 
L 61.71875 49.21875 
L 37.890625 49.21875 
L 37.890625 36.71875 
z
M 23.828125 82.8125 
Q 27.34375 78.125 34.765625 67.96875 
Q 30.46875 66.015625 26.5625 63.671875 
Q 22.65625 71.484375 16.796875 78.515625 
Q 21.09375 81.640625 23.828125 82.8125 
z
" id="SimHei-38388"/>
      <path d="M 46.484375 -3.125 
L 42.1875 -7.421875 
Q 32.421875 1.953125 27.53125 12.109375 
Q 22.65625 22.265625 22.65625 35.15625 
Q 22.65625 48.046875 27.53125 58.203125 
Q 32.421875 68.359375 42.1875 78.125 
L 46.484375 73.828125 
Q 37.5 65.234375 33 56.046875 
Q 28.515625 46.875 28.515625 35.15625 
Q 28.515625 23.4375 33 14.25 
Q 37.5 5.078125 46.484375 -3.125 
z
" id="SimHei-40"/>
      <path d="M 42.578125 71.09375 
Q 38.671875 70.703125 35.9375 70.109375 
Q 33.203125 69.53125 30.078125 68.75 
L 30.078125 51.953125 
Q 35.15625 51.953125 42.1875 52.34375 
L 42.1875 44.921875 
Q 35.15625 45.3125 30.078125 45.3125 
L 30.078125 2.734375 
Q 30.078125 -2.34375 30.46875 -10.15625 
L 21.875 -10.15625 
Q 22.65625 -2.34375 22.65625 2.734375 
L 22.65625 26.953125 
Q 20.3125 21.484375 16.984375 15.625 
Q 13.671875 9.765625 9.765625 5.859375 
Q 7.03125 9.765625 3.515625 13.28125 
Q 9.375 17.96875 14.0625 26.171875 
Q 18.75 34.375 21.484375 45.3125 
L 19.921875 45.3125 
Q 13.28125 45.3125 5.078125 44.921875 
L 5.078125 52.34375 
Q 13.28125 51.953125 19.921875 51.953125 
L 23.046875 51.953125 
L 23.046875 67.1875 
Q 16.015625 65.234375 10.546875 64.0625 
Q 8.984375 67.1875 6.640625 70.3125 
Q 14.84375 71.484375 22.0625 73.234375 
Q 29.296875 75 37.5 78.90625 
Q 39.453125 75 42.578125 71.09375 
z
M 92.96875 32.8125 
Q 89.0625 29.296875 86.125 23.4375 
Q 83.203125 17.578125 77.921875 11.328125 
Q 72.65625 5.078125 64.453125 -0.1875 
Q 56.25 -5.46875 41.015625 -9.765625 
Q 39.84375 -5.078125 36.71875 -0.78125 
Q 46.484375 0 54.09375 2.921875 
Q 61.71875 5.859375 67.1875 10.9375 
Q 72.65625 16.015625 76.5625 22.65625 
Q 80.46875 29.296875 82.8125 37.109375 
Q 85.546875 35.9375 92.96875 32.8125 
z
M 71.484375 82.421875 
Q 71.09375 76.171875 71.09375 68.75 
L 71.09375 36.328125 
Q 71.09375 30.078125 71.484375 22.265625 
L 63.671875 22.265625 
Q 64.0625 30.46875 64.0625 36.328125 
L 64.0625 68.75 
Q 64.0625 75.390625 63.671875 82.421875 
L 71.484375 82.421875 
z
M 59.375 61.328125 
Q 57.421875 56.640625 55.46875 46.484375 
Q 53.515625 36.328125 51.953125 30.859375 
Q 46.875 32.03125 43.359375 33.203125 
Q 45.3125 36.71875 47.265625 45.3125 
Q 49.21875 53.90625 50.390625 63.28125 
Q 54.6875 62.109375 59.375 61.328125 
z
M 82.421875 65.234375 
Q 85.15625 61.328125 89.0625 56.25 
Q 92.96875 51.171875 96.875 45.3125 
Q 93.359375 43.359375 89.453125 41.015625 
Q 87.109375 45.3125 83.78125 50.1875 
Q 80.46875 55.078125 76.171875 59.765625 
Q 79.296875 62.109375 82.421875 65.234375 
z
M 38.671875 37.5 
Q 40.234375 34.765625 42.1875 31.4375 
Q 44.140625 28.125 46.484375 23.4375 
Q 43.359375 21.875 39.453125 19.53125 
Q 37.890625 23.4375 35.9375 27.140625 
Q 33.984375 30.859375 32.03125 33.59375 
Q 35.15625 35.15625 38.671875 37.5 
z
" id="SimHei-31186"/>
      <path d="M 26.171875 35.15625 
Q 26.171875 22.265625 21.28125 12.109375 
Q 16.40625 1.953125 6.640625 -7.421875 
L 2.34375 -3.125 
Q 11.328125 5.078125 15.8125 14.25 
Q 20.3125 23.4375 20.3125 35.15625 
Q 20.3125 46.875 15.8125 56.046875 
Q 11.328125 65.234375 2.34375 73.828125 
L 6.640625 78.125 
Q 16.40625 68.359375 21.28125 58.203125 
Q 26.171875 48.046875 26.171875 35.15625 
z
" id="SimHei-41"/>
     </defs>
     <g transform="translate(62.75 173.28)rotate(-90)scale(0.1 -0.1)">
      <use xlink:href="#SimHei-32570"/>
      <use x="100" xlink:href="#SimHei-22833"/>
      <use x="200" xlink:href="#SimHei-26102"/>
      <use x="300" xlink:href="#SimHei-38388"/>
      <use x="400" xlink:href="#SimHei-40"/>
      <use x="450" xlink:href="#SimHei-31186"/>
      <use x="550" xlink:href="#SimHei-41"/>
     </g>
    </g>
   </g>
   <g id="line2d_15">
    <path clip-path="url(#p05678ae583)" d="M 101.528926 166.435948 
L 101.937029 194.674909 
L 102.345133 242.116364 
L 103.569443 242.116364 
L 103.977547 100.921558 
L 104.385651 242.116364 
L 104.793754 152.881247 
L 105.201858 175.472416 
L 105.609961 120.124052 
L 106.018065 173.213299 
L 106.426168 184.508883 
L 106.834272 242.116364 
L 107.242375 242.116364 
L 107.650479 139.326545 
L 108.058583 198.063584 
L 108.466686 139.326545 
L 108.87479 184.508883 
L 109.282893 186.768 
L 109.690997 242.116364 
L 110.0991 173.213299 
L 110.507204 194.674909 
L 110.915308 186.768 
L 111.731515 194.674909 
L 112.139618 194.674909 
L 112.547722 181.120208 
L 112.955825 192.415792 
L 113.363929 193.545351 
L 113.772032 231.950338 
L 114.180136 158.529039 
L 114.58824 196.934026 
L 114.996343 224.043429 
L 115.404447 242.116364 
L 117.444965 242.116364 
L 117.853068 220.654753 
L 118.261172 224.043429 
L 118.669275 242.116364 
L 119.077379 194.674909 
L 119.485482 234.209455 
L 119.893586 225.172987 
L 120.301689 242.116364 
L 121.117897 106.569351 
L 121.526 123.512727 
L 121.934104 242.116364 
L 122.342207 208.22961 
L 122.750311 195.804468 
L 123.158414 137.067429 
L 123.566518 194.674909 
L 123.974622 144.974338 
L 124.382725 242.116364 
L 124.790829 179.990649 
L 125.198932 201.45226 
L 125.607036 190.156675 
L 126.015139 96.403325 
L 126.423243 185.638442 
L 126.831346 89.625974 
L 127.23945 51.220987 
L 127.647554 192.415792 
L 128.055657 190.156675 
L 128.871864 196.934026 
L 129.279968 202.581818 
L 129.688071 191.286234 
L 130.096175 195.804468 
L 130.504279 50.091429 
L 130.912382 100.921558 
L 131.320486 190.156675 
L 131.728589 242.116364 
L 132.136693 227.432104 
L 132.544796 177.731532 
L 132.9529 157.399481 
L 133.361003 175.472416 
L 133.769107 202.581818 
L 134.177211 94.144208 
L 134.585314 156.269922 
L 134.993418 173.213299 
L 135.401521 176.601974 
L 135.809625 52.350545 
L 136.217728 191.286234 
L 136.625832 242.116364 
L 137.033935 184.508883 
L 137.442039 242.116364 
L 137.850143 242.116364 
L 138.258246 240.986805 
L 138.66635 242.116364 
L 139.074453 242.116364 
L 139.482557 198.063584 
L 139.89066 80.589506 
L 140.298764 191.286234 
L 140.706868 142.715221 
L 141.114971 242.116364 
L 141.523075 219.525195 
L 141.931178 184.508883 
L 142.339282 123.512727 
L 142.747385 201.45226 
L 143.155489 190.156675 
L 143.563592 67.034805 
L 143.971696 146.103896 
L 144.3798 47.832312 
L 144.787903 102.051117 
L 145.196007 54.609662 
L 145.60411 155.140364 
L 146.012214 63.64613 
L 146.828421 231.950338 
L 147.644628 157.399481 
L 148.460835 242.116364 
L 148.868939 116.735377 
L 149.277042 183.379325 
L 149.685146 150.62213 
L 150.093249 103.180675 
L 150.501353 168.695065 
L 150.909457 146.103896 
L 151.31756 186.768 
L 151.725664 123.512727 
L 152.133767 96.403325 
L 152.541871 207.100052 
L 152.949974 159.658597 
L 153.358078 185.638442 
L 153.766182 170.954182 
L 154.174285 182.249766 
L 154.582389 131.419636 
L 154.990492 196.934026 
L 155.398596 163.047273 
L 155.806699 157.399481 
L 156.214803 185.638442 
L 156.622906 176.601974 
L 157.03101 183.379325 
L 157.439114 201.45226 
L 157.847217 189.027117 
L 158.255321 140.456104 
L 158.663424 208.22961 
L 159.071528 242.116364 
L 159.479631 142.715221 
L 159.887735 242.116364 
L 160.295839 221.784312 
L 160.703942 129.160519 
L 161.112046 187.897558 
L 161.520149 148.363013 
L 161.928253 242.116364 
L 163.560667 242.116364 
L 163.968771 115.605818 
L 164.376874 128.030961 
L 164.784978 191.286234 
L 165.601185 97.532883 
L 166.009288 242.116364 
L 166.417392 242.116364 
L 166.825496 190.156675 
L 167.233599 242.116364 
L 168.45791 242.116364 
L 168.866013 181.120208 
L 169.274117 189.027117 
L 169.68222 172.08374 
L 170.090324 195.804468 
L 170.498428 242.116364 
L 170.906531 242.116364 
L 171.722738 116.735377 
L 172.130842 151.751688 
L 172.538945 202.581818 
L 172.947049 96.403325 
L 173.355152 196.934026 
L 173.763256 140.456104 
L 174.579463 242.116364 
L 174.987567 76.071273 
L 175.39567 140.456104 
L 176.211877 242.116364 
L 176.619981 174.342857 
L 177.028085 198.063584 
L 177.436188 196.934026 
L 177.844292 242.116364 
L 178.252395 242.116364 
L 178.660499 160.788156 
L 179.068602 177.731532 
L 179.476706 181.120208 
L 179.884809 154.010805 
L 180.292913 74.941714 
L 180.701017 242.116364 
L 181.517224 242.116364 
L 182.333431 155.140364 
L 182.741534 138.196987 
L 183.149638 242.116364 
L 183.557742 242.116364 
L 184.373949 159.658597 
L 184.782052 194.674909 
L 185.190156 168.695065 
L 185.598259 207.100052 
L 186.006363 175.472416 
L 186.414466 65.905247 
L 186.82257 161.917714 
L 187.230674 186.768 
L 187.638777 176.601974 
L 188.046881 115.605818 
L 188.454984 242.116364 
L 188.863088 138.196987 
L 189.271191 126.901403 
L 189.679295 149.492571 
L 190.087399 192.415792 
L 190.495502 185.638442 
L 190.903606 187.897558 
L 191.311709 182.249766 
L 191.719813 211.618286 
L 192.127916 159.658597 
L 192.53602 242.116364 
L 192.944123 176.601974 
L 193.352227 242.116364 
L 193.760331 219.525195 
L 194.168434 219.525195 
L 194.984641 176.601974 
L 195.392745 152.881247 
L 195.800848 146.103896 
L 196.208952 168.695065 
L 196.617056 79.459948 
L 197.025159 187.897558 
L 197.433263 196.934026 
L 197.841366 192.415792 
L 198.24947 120.124052 
L 198.657573 242.116364 
L 199.47378 242.116364 
L 199.881884 163.047273 
L 200.289988 183.379325 
L 200.698091 82.848623 
L 201.106195 191.286234 
L 201.514298 193.545351 
L 201.922402 118.994494 
L 202.330505 133.678753 
L 202.738609 177.731532 
L 203.146712 83.978182 
L 203.554816 242.116364 
L 204.371023 242.116364 
L 204.779127 191.286234 
L 205.18723 181.120208 
L 205.595334 185.638442 
L 206.003437 94.144208 
L 206.411541 156.269922 
L 206.819645 129.160519 
L 207.227748 182.249766 
L 207.635852 187.897558 
L 208.043955 159.658597 
L 208.452059 218.395636 
L 208.860162 205.970494 
L 209.268266 168.695065 
L 209.676369 176.601974 
L 210.084473 233.079896 
L 210.492577 196.934026 
L 210.90068 201.45226 
L 211.308784 242.116364 
L 211.716887 202.581818 
L 212.533094 159.658597 
L 212.941198 242.116364 
L 213.757405 242.116364 
L 214.165509 68.164364 
L 214.573612 242.116364 
L 216.61413 242.116364 
L 217.022234 185.638442 
L 217.430337 242.116364 
L 217.838441 178.861091 
L 218.246544 242.116364 
L 218.654648 196.934026 
L 219.062751 201.45226 
L 219.470855 242.116364 
L 219.878959 141.585662 
L 220.287062 242.116364 
L 220.695166 125.771844 
L 221.103269 201.45226 
L 221.511373 144.974338 
L 221.919476 122.383169 
L 222.32758 198.063584 
L 222.735683 159.658597 
L 223.143787 195.804468 
L 223.551891 192.415792 
L 223.959994 186.768 
L 224.368098 200.322701 
L 224.776201 193.545351 
L 225.184305 137.067429 
L 225.592408 164.176831 
L 226.408616 189.027117 
L 226.816719 192.415792 
L 227.224823 123.512727 
L 227.632926 195.804468 
L 228.04103 184.508883 
L 228.449133 141.585662 
L 229.26534 198.063584 
L 229.673444 195.804468 
L 230.081548 198.063584 
L 230.489651 192.415792 
L 230.897755 139.326545 
L 231.713962 242.116364 
L 232.938273 242.116364 
L 233.346376 192.415792 
L 233.75448 88.496416 
L 234.162583 179.990649 
L 234.570687 126.901403 
L 234.97879 133.678753 
L 235.386894 107.698909 
L 235.794997 103.180675 
L 236.203101 191.286234 
L 236.611205 198.063584 
L 237.019308 242.116364 
L 237.835515 137.067429 
L 238.243619 242.116364 
L 238.651722 150.62213 
L 239.059826 174.342857 
L 239.467929 184.508883 
L 239.876033 181.120208 
L 240.284137 46.702753 
L 240.69224 44.443636 
L 241.100344 242.116364 
L 241.508447 242.116364 
L 241.916551 236.468571 
L 242.324654 238.727688 
L 242.732758 239.857247 
L 243.140862 242.116364 
L 243.548965 195.804468 
L 243.957069 100.921558 
L 244.365172 187.897558 
L 244.773276 166.435948 
L 245.181379 242.116364 
L 245.589483 242.116364 
L 245.997586 148.363013 
L 246.40569 147.233455 
L 246.813794 175.472416 
L 247.221897 154.010805 
L 247.630001 242.116364 
L 248.038104 72.682597 
L 248.446208 176.601974 
L 248.854311 167.565506 
L 249.262415 184.508883 
L 249.670519 178.861091 
L 250.078622 105.439792 
L 250.486726 190.156675 
L 250.894829 242.116364 
L 251.711036 242.116364 
L 252.11914 148.363013 
L 252.527243 242.116364 
L 252.935347 46.702753 
L 253.343451 155.140364 
L 253.751554 199.193143 
L 254.159658 126.901403 
L 254.567761 190.156675 
L 254.975865 174.342857 
L 255.383968 114.47626 
L 255.792072 242.116364 
L 256.608279 106.569351 
L 257.016383 242.116364 
L 257.424486 242.116364 
L 257.83259 193.545351 
L 258.240693 195.804468 
L 258.648797 131.419636 
L 259.0569 193.545351 
L 259.465004 168.695065 
L 259.873108 196.934026 
L 260.281211 202.581818 
L 260.689315 174.342857 
L 261.097418 185.638442 
L 261.505522 204.840935 
L 261.913625 181.120208 
L 262.321729 189.027117 
L 262.729833 181.120208 
L 263.954143 242.116364 
L 264.362247 167.565506 
L 265.178454 228.561662 
L 265.586557 242.116364 
L 265.994661 207.100052 
L 266.402765 228.561662 
L 266.810868 242.116364 
L 267.218972 155.140364 
L 268.035179 228.561662 
L 268.443282 184.508883 
L 268.851386 203.711377 
L 269.25949 116.735377 
L 269.667593 191.286234 
L 270.4838 168.695065 
L 270.891904 187.897558 
L 271.300007 150.62213 
L 271.708111 69.293922 
L 272.116214 200.322701 
L 272.524318 186.768 
L 272.932422 70.423481 
L 273.748629 242.116364 
L 274.156732 93.014649 
L 274.564836 144.974338 
L 275.381043 184.508883 
L 275.789146 242.116364 
L 276.19725 203.711377 
L 276.605354 200.322701 
L 277.013457 201.45226 
L 277.421561 141.585662 
L 277.829664 169.824623 
L 278.237768 242.116364 
L 278.645871 242.116364 
L 279.053975 194.674909 
L 279.462079 238.727688 
L 279.870182 216.136519 
L 280.278286 220.654753 
L 280.686389 238.727688 
L 281.094493 210.488727 
L 281.502596 227.432104 
L 281.9107 191.286234 
L 282.318803 210.488727 
L 282.726907 210.488727 
L 283.135011 235.339013 
L 283.543114 178.861091 
L 283.951218 191.286234 
L 284.767425 176.601974 
L 285.175528 181.120208 
L 285.583632 128.030961 
L 285.991736 242.116364 
L 286.399839 207.100052 
L 286.807943 133.678753 
L 287.216046 126.901403 
L 287.62415 189.027117 
L 288.032253 200.322701 
L 288.84846 189.027117 
L 289.256564 201.45226 
L 289.664668 187.897558 
L 290.072771 135.93787 
L 290.480875 186.768 
L 290.888978 50.091429 
L 291.297082 187.897558 
L 291.705185 70.423481 
L 292.113289 95.273766 
L 292.521393 182.249766 
L 292.929496 191.286234 
L 293.3376 169.824623 
L 293.745703 195.804468 
L 294.153807 207.100052 
L 294.56191 200.322701 
L 294.970014 176.601974 
L 295.378117 181.120208 
L 295.786221 173.213299 
L 296.194325 182.249766 
L 296.602428 200.322701 
L 297.010532 195.804468 
L 297.418635 199.193143 
L 297.826739 158.529039 
L 298.234842 147.233455 
L 298.642946 177.731532 
L 299.05105 189.027117 
L 299.459153 164.176831 
L 299.867257 125.771844 
L 300.27536 144.974338 
L 300.683464 179.990649 
L 301.091567 199.193143 
L 301.499671 231.950338 
L 301.907774 190.156675 
L 302.723982 242.116364 
L 303.948292 242.116364 
L 304.356396 209.359169 
L 304.764499 212.747844 
L 305.172603 242.116364 
L 305.580707 208.22961 
L 305.98881 158.529039 
L 306.396914 135.93787 
L 306.805017 201.45226 
L 307.213121 117.864935 
L 307.621224 242.116364 
L 308.029328 231.950338 
L 308.437431 60.257455 
L 308.845535 203.711377 
L 309.253639 207.100052 
L 309.661742 137.067429 
L 310.069846 227.432104 
L 310.477949 195.804468 
L 310.886053 143.844779 
L 311.294156 174.342857 
L 311.70226 111.087584 
L 312.110363 124.642286 
L 312.518467 181.120208 
L 312.926571 160.788156 
L 313.334674 199.193143 
L 313.742778 198.063584 
L 314.150881 168.695065 
L 314.558985 118.994494 
L 314.967088 139.326545 
L 315.375192 201.45226 
L 315.783296 237.59813 
L 316.191399 133.678753 
L 316.599503 185.638442 
L 317.007606 201.45226 
L 317.41571 172.08374 
L 317.823813 91.885091 
L 318.231917 152.881247 
L 318.64002 231.950338 
L 319.048124 216.136519 
L 319.456228 82.848623 
L 319.864331 166.435948 
L 320.272435 175.472416 
L 320.680538 150.62213 
L 321.088642 242.116364 
L 322.721056 242.116364 
L 323.12916 239.857247 
L 323.945367 239.857247 
L 324.35347 182.249766 
L 324.761574 194.674909 
L 325.169677 192.415792 
L 325.577781 239.857247 
L 325.985885 239.857247 
L 326.393988 203.711377 
L 326.802092 191.286234 
L 327.210195 198.063584 
L 327.618299 112.217143 
L 328.026402 198.063584 
L 328.434506 182.249766 
L 328.84261 170.954182 
L 329.250713 191.286234 
L 330.06692 115.605818 
L 330.475024 199.193143 
L 330.883127 182.249766 
L 331.291231 199.193143 
L 332.107438 147.233455 
L 332.107438 147.233455 
" style="fill:none;stroke:#1f77b4;stroke-linecap:square;stroke-width:1.5;"/>
   </g>
   <g id="line2d_16">
    <path clip-path="url(#p05678ae583)" d="M 101.528926 229.691221 
L 332.107438 229.691221 
L 332.107438 229.691221 
" style="fill:none;stroke:#ff7f0e;stroke-dasharray:5.55,2.4;stroke-dashoffset:0;stroke-width:1.5;"/>
   </g>
   <g id="patch_3">
    <path d="M 90 252 
L 90 34.56 
" style="fill:none;stroke:#000000;stroke-linecap:square;stroke-linejoin:miter;stroke-width:0.8;"/>
   </g>
   <g id="patch_4">
    <path d="M 343.636364 252 
L 343.636364 34.56 
" style="fill:none;stroke:#000000;stroke-linecap:square;stroke-linejoin:miter;stroke-width:0.8;"/>
   </g>
   <g id="patch_5">
    <path d="M 90 252 
L 343.636364 252 
" style="fill:none;stroke:#000000;stroke-linecap:square;stroke-linejoin:miter;stroke-width:0.8;"/>
   </g>
   <g id="patch_6">
    <path d="M 90 34.56 
L 343.636364 34.56 
" style="fill:none;stroke:#000000;stroke-linecap:square;stroke-linejoin:miter;stroke-width:0.8;"/>
   </g>
   <g id="text_17">
    <!-- 原始缺失曲线 -->
    <defs>
     <path d="M 60.15625 66.796875 
Q 57.421875 62.890625 56.25 57.8125 
L 85.15625 57.8125 
Q 84.765625 54.296875 84.765625 46.875 
L 84.765625 34.765625 
Q 84.765625 28.515625 85.15625 23.046875 
L 63.28125 23.046875 
L 63.28125 -0.78125 
Q 63.28125 -6.25 59.765625 -7.609375 
Q 56.25 -8.984375 48.4375 -9.765625 
Q 47.65625 -5.078125 45.703125 -0.78125 
Q 53.125 -1.171875 54.296875 -0.578125 
Q 55.46875 0 55.46875 2.734375 
L 55.46875 23.046875 
L 33.203125 23.046875 
Q 33.59375 27.734375 33.59375 34.375 
L 33.59375 47.265625 
Q 33.59375 53.515625 33.203125 57.8125 
L 49.21875 57.8125 
Q 51.5625 66.40625 51.5625 69.140625 
L 60.15625 66.796875 
z
M 4.296875 -5.078125 
Q 11.328125 4.296875 13.671875 16.203125 
Q 16.015625 28.125 16.015625 35.9375 
L 16.015625 64.453125 
Q 16.015625 72.65625 15.625 76.5625 
L 78.515625 76.5625 
Q 87.109375 76.5625 90.625 76.953125 
L 90.625 69.921875 
Q 87.5 70.3125 78.515625 70.3125 
L 23.828125 70.3125 
L 23.828125 37.109375 
Q 23.4375 25.78125 22.0625 17.375 
Q 20.703125 8.984375 17.765625 1.953125 
Q 14.84375 -5.078125 12.5 -8.984375 
Q 8.59375 -6.25 4.296875 -5.078125 
z
M 76.953125 43.359375 
L 76.953125 51.953125 
L 41.015625 51.953125 
L 41.015625 43.359375 
z
M 76.953125 29.296875 
L 76.953125 37.5 
L 41.015625 37.5 
L 41.015625 29.296875 
z
M 23.046875 -0.78125 
Q 28.125 2.34375 32.609375 7.03125 
Q 37.109375 11.71875 40.234375 17.1875 
Q 43.75 13.671875 46.484375 11.71875 
Q 35.9375 -0.78125 28.515625 -6.25 
Q 26.171875 -3.515625 23.046875 -0.78125 
z
M 75.390625 16.796875 
Q 89.0625 4.6875 92.578125 0.390625 
Q 89.84375 -1.953125 87.109375 -5.078125 
Q 82.03125 1.171875 70.3125 11.328125 
Q 73.046875 14.453125 75.390625 16.796875 
z
" id="SimHei-21407"/>
     <path d="M 27.34375 79.296875 
Q 25.78125 76.5625 24.796875 71.671875 
Q 23.828125 66.796875 23.046875 60.546875 
L 39.84375 60.546875 
Q 37.5 33.59375 30.46875 17.1875 
Q 35.546875 13.28125 42.578125 6.640625 
Q 39.84375 4.296875 37.109375 0.78125 
Q 31.25 7.8125 27.34375 10.546875 
Q 23.828125 4.296875 19.53125 -0.96875 
Q 15.234375 -6.25 10.9375 -10.546875 
Q 9.375 -8.203125 3.90625 -5.46875 
Q 8.984375 -1.953125 13.46875 3.125 
Q 17.96875 8.203125 21.484375 15.234375 
Q 12.5 21.875 7.8125 24.21875 
Q 13.671875 45.703125 14.84375 53.515625 
Q 10.15625 53.515625 5.078125 53.125 
L 5.078125 60.9375 
Q 10.546875 60.546875 16.015625 60.546875 
Q 18.359375 75.390625 18.359375 81.640625 
Q 24.21875 80.078125 27.34375 79.296875 
z
M 89.453125 32.03125 
Q 89.0625 25.78125 89.0625 10.15625 
Q 89.0625 -5.078125 89.453125 -10.15625 
L 81.25 -10.15625 
L 81.25 -1.5625 
L 53.90625 -1.5625 
L 53.90625 -10.546875 
L 46.09375 -10.546875 
Q 46.484375 -4.6875 46.484375 10.546875 
Q 46.484375 25.78125 46.09375 32.03125 
L 89.453125 32.03125 
z
M 68.75 77.34375 
Q 58.59375 60.546875 50.78125 49.21875 
Q 60.546875 49.21875 66.40625 49.609375 
Q 72.265625 50 81.25 50.390625 
Q 76.171875 57.421875 72.265625 60.9375 
Q 75.390625 62.5 78.515625 66.015625 
Q 89.84375 51.5625 95.703125 44.53125 
Q 93.75 43.359375 89.453125 39.84375 
Q 87.109375 43.359375 85.15625 44.921875 
Q 71.484375 44.140625 61.515625 43.15625 
Q 51.5625 42.1875 44.140625 40.234375 
Q 43.359375 43.75 40.625 48.4375 
Q 44.921875 50.390625 50.578125 60.15625 
Q 56.25 69.921875 59.765625 81.25 
Q 62.890625 78.90625 68.75 77.34375 
z
M 81.25 5.078125 
L 81.25 25 
L 53.90625 25 
L 53.90625 5.078125 
z
M 16.015625 27.734375 
Q 20.3125 24.21875 24.609375 21.875 
Q 26.953125 26.953125 29.296875 36.515625 
Q 31.640625 46.09375 32.03125 53.515625 
L 21.875 53.515625 
Q 20.3125 46.09375 16.015625 27.734375 
z
" id="SimHei-22987"/>
     <path d="M 91.015625 7.8125 
Q 91.015625 -3.125 91.40625 -8.59375 
L 82.421875 -8.59375 
L 82.421875 -0.78125 
L 17.96875 -0.78125 
L 17.96875 -8.59375 
L 8.984375 -8.59375 
Q 9.375 1.953125 9.375 8.59375 
L 9.375 43.359375 
Q 9.375 53.515625 8.984375 60.9375 
L 33.59375 60.9375 
L 33.59375 69.53125 
Q 33.203125 75.78125 33.203125 80.46875 
L 42.1875 80.46875 
Q 41.40625 75.390625 41.40625 69.921875 
L 41.40625 60.9375 
L 57.8125 60.9375 
L 57.8125 70.703125 
Q 57.8125 75.78125 57.421875 80.859375 
L 66.40625 80.859375 
Q 66.015625 76.171875 66.015625 71.09375 
L 66.015625 60.9375 
L 91.40625 60.9375 
Q 91.015625 55.078125 91.015625 42.96875 
z
M 57.8125 5.078125 
L 57.8125 29.296875 
L 41.40625 29.296875 
L 41.40625 5.078125 
z
M 82.421875 5.078125 
L 82.421875 29.296875 
L 66.015625 29.296875 
L 66.015625 5.078125 
z
M 33.59375 5.078125 
L 33.59375 29.296875 
L 17.96875 29.296875 
L 17.96875 5.078125 
z
M 57.8125 35.15625 
L 57.8125 55.078125 
L 41.40625 55.078125 
L 41.40625 35.15625 
z
M 82.421875 35.15625 
L 82.421875 55.078125 
L 66.015625 55.078125 
L 66.015625 35.15625 
z
M 33.59375 35.15625 
L 33.59375 55.078125 
L 17.96875 55.078125 
L 17.96875 35.15625 
z
" id="SimHei-26354"/>
     <path d="M 53.90625 67.1875 
Q 53.90625 73.046875 52.734375 80.078125 
Q 57.8125 79.6875 63.28125 78.90625 
Q 62.109375 76.5625 61.71875 71.28125 
Q 61.328125 66.015625 61.71875 56.25 
L 75 58.59375 
Q 81.640625 60.15625 88.28125 62.109375 
L 89.84375 54.6875 
Q 83.203125 53.90625 76.171875 52.734375 
L 62.109375 50 
Q 62.109375 43.75 62.890625 39.0625 
L 78.125 41.796875 
Q 85.9375 43.359375 92.96875 45.703125 
L 94.140625 38.28125 
Q 87.109375 37.109375 79.296875 35.546875 
L 64.0625 32.8125 
Q 64.84375 25 67.96875 18.359375 
Q 71.484375 21.09375 74.796875 24.609375 
Q 78.125 28.125 80.859375 32.421875 
Q 86.71875 27.734375 89.84375 26.171875 
Q 84.765625 23.828125 81.828125 20.890625 
Q 78.90625 17.96875 72.265625 11.71875 
Q 76.953125 3.90625 80.65625 1.75 
Q 84.375 -0.390625 85.9375 1.5625 
Q 87.5 3.515625 88.671875 9.765625 
Q 92.1875 7.03125 96.875 5.46875 
Q 90.234375 -11.71875 82.421875 -8.390625 
Q 74.609375 -5.078125 66.015625 7.03125 
Q 60.546875 2.734375 55.265625 -0.96875 
Q 50 -4.6875 42.1875 -8.59375 
Q 40.234375 -4.6875 36.328125 -1.5625 
Q 44.140625 1.171875 49.609375 4.296875 
Q 55.078125 7.421875 62.109375 13.28125 
Q 58.59375 21.09375 57.03125 31.640625 
Q 45.3125 29.6875 40.625 28.125 
L 39.453125 35.546875 
Q 44.140625 35.546875 55.46875 37.890625 
Q 54.6875 44.140625 54.6875 48.4375 
Q 44.140625 46.09375 40.234375 44.921875 
L 38.671875 52.34375 
Q 42.578125 52.34375 53.90625 54.6875 
z
M 30.46875 76.171875 
Q 26.5625 72.65625 22.84375 66.203125 
Q 19.140625 59.765625 12.890625 50.390625 
Q 22.265625 50.78125 25.78125 50.78125 
Q 29.296875 56.640625 32.03125 63.671875 
Q 35.9375 60.9375 40.625 59.375 
Q 36.71875 55.46875 32.609375 48.828125 
Q 28.515625 42.1875 18.359375 26.171875 
Q 28.90625 26.953125 37.109375 27.734375 
Q 35.9375 23.828125 35.9375 21.09375 
Q 33.203125 21.09375 23.828125 20.109375 
Q 14.453125 19.140625 8.59375 17.578125 
Q 8.203125 21.484375 6.25 25.78125 
Q 10.9375 26.953125 14.84375 32.03125 
Q 18.75 37.109375 23.046875 44.921875 
Q 10.15625 44.140625 6.640625 41.796875 
Q 5.46875 46.09375 3.125 50.390625 
Q 8.203125 53.90625 12.890625 61.90625 
Q 17.578125 69.921875 21.484375 80.46875 
Q 25.390625 77.734375 30.46875 76.171875 
z
M 40.234375 13.671875 
Q 39.84375 9.375 40.234375 7.03125 
Q 30.46875 5.078125 22.65625 3.125 
Q 14.84375 1.171875 8.203125 -1.171875 
Q 7.03125 3.125 3.90625 7.421875 
Q 14.84375 8.59375 20.703125 9.5625 
Q 26.5625 10.546875 40.234375 13.671875 
z
M 75.78125 62.890625 
Q 73.046875 67.1875 68.359375 73.046875 
L 74.609375 76.171875 
Q 76.171875 74.21875 82.421875 66.796875 
Q 78.515625 65.234375 75.78125 62.890625 
z
" id="SimHei-32447"/>
    </defs>
    <g transform="translate(180.818182 28.56)scale(0.12 -0.12)">
     <use xlink:href="#SimHei-21407"/>
     <use x="100" xlink:href="#SimHei-22987"/>
     <use x="200" xlink:href="#SimHei-32570"/>
     <use x="300" xlink:href="#SimHei-22833"/>
     <use x="400" xlink:href="#SimHei-26354"/>
     <use x="500" xlink:href="#SimHei-32447"/>
    </g>
   </g>
   <g id="legend_1">
    <g id="patch_7">
     <path d="M 170.818182 71.270938 
L 262.818182 71.270938 
Q 264.818182 71.270938 264.818182 69.270938 
L 264.818182 41.56 
Q 264.818182 39.56 262.818182 39.56 
L 170.818182 39.56 
Q 168.818182 39.56 168.818182 41.56 
L 168.818182 69.270938 
Q 168.818182 71.270938 170.818182 71.270938 
z
" style="fill:#ffffff;opacity:0.8;stroke:#cccccc;stroke-linejoin:miter;"/>
    </g>
    <g id="line2d_17">
     <path d="M 172.818182 48.106875 
L 192.818182 48.106875 
" style="fill:none;stroke:#1f77b4;stroke-linecap:square;stroke-width:1.5;"/>
    </g>
    <g id="line2d_18"/>
    <g id="text_18">
     <!-- 缺失线 -->
     <g transform="translate(200.818182 51.606875)scale(0.1 -0.1)">
      <use xlink:href="#SimHei-32570"/>
      <use x="100" xlink:href="#SimHei-22833"/>
      <use x="200" xlink:href="#SimHei-32447"/>
     </g>
    </g>
    <g id="line2d_19">
     <path d="M 172.818182 62.520938 
L 192.818182 62.520938 
" style="fill:none;stroke:#ff7f0e;stroke-dasharray:5.55,2.4;stroke-dashoffset:0;stroke-width:1.5;"/>
    </g>
    <g id="line2d_20"/>
    <g id="text_19">
     <!-- 阈值线(13秒) -->
     <defs>
      <path d="M 81.640625 12.890625 
Q 76.953125 1.171875 72.0625 2.34375 
Q 67.1875 3.515625 62.109375 12.5 
Q 60.15625 9.375 57.609375 5.65625 
Q 55.078125 1.953125 51.953125 -1.5625 
Q 49.21875 0.78125 44.921875 2.734375 
Q 49.21875 6.640625 52.140625 10.734375 
Q 55.078125 14.84375 57.8125 19.53125 
Q 55.078125 27.34375 53.703125 32.609375 
Q 52.34375 37.890625 51.5625 49.609375 
L 29.6875 49.609375 
Q 26.171875 49.609375 21.09375 49.21875 
L 21.09375 55.46875 
Q 26.171875 55.078125 29.6875 55.078125 
L 51.5625 55.078125 
Q 50.78125 62.890625 50.390625 67.1875 
Q 53.515625 66.796875 58.984375 66.796875 
Q 58.59375 60.15625 58.59375 55.078125 
L 69.140625 55.078125 
Q 73.046875 55.078125 79.296875 55.46875 
L 79.296875 49.21875 
Q 73.046875 49.609375 69.140625 49.609375 
L 58.59375 49.609375 
Q 58.59375 45.3125 59.5625 38.671875 
Q 60.546875 32.03125 62.5 27.734375 
Q 63.671875 30.859375 64.640625 34.953125 
Q 65.625 39.0625 66.40625 45.703125 
Q 73.046875 43.75 75.78125 42.578125 
Q 73.4375 39.84375 71.28125 33 
Q 69.140625 26.171875 66.015625 18.75 
Q 67.96875 14.84375 70.890625 12.296875 
Q 73.828125 9.765625 75.78125 17.1875 
Q 79.296875 14.453125 81.640625 12.890625 
z
M 92.1875 76.171875 
Q 91.796875 68.75 91.796875 59.765625 
L 91.796875 1.5625 
Q 91.796875 -6.25 86.71875 -7.421875 
Q 81.640625 -8.59375 75.78125 -9.765625 
Q 74.21875 -5.46875 71.484375 -0.78125 
Q 80.46875 -1.171875 82.8125 -0.78125 
Q 85.15625 -0.390625 85.15625 4.6875 
L 85.15625 70.3125 
L 56.25 70.3125 
Q 47.65625 70.3125 37.5 69.921875 
L 37.5 76.5625 
Q 47.65625 76.171875 55.46875 76.171875 
z
M 47.65625 42.578125 
Q 46.484375 38.28125 46.484375 34.375 
L 46.484375 20.3125 
L 22.65625 20.3125 
Q 23.046875 24.21875 23.046875 26.953125 
L 23.046875 34.375 
Q 23.046875 37.890625 22.65625 42.578125 
L 47.65625 42.578125 
z
M 16.796875 60.15625 
Q 16.40625 54.296875 16.40625 48.4375 
L 16.40625 -8.984375 
L 8.59375 -8.984375 
Q 9.375 1.5625 9.375 9.765625 
L 9.375 46.484375 
Q 9.375 54.6875 8.59375 60.15625 
L 16.796875 60.15625 
z
M 48.4375 16.40625 
Q 48.046875 12.109375 48.4375 10.15625 
Q 43.359375 8.984375 34.375 7.03125 
Q 25.390625 5.078125 20.703125 3.125 
Q 18.75 7.421875 17.578125 11.328125 
Q 22.265625 11.71875 31.046875 13.28125 
Q 39.84375 14.84375 48.4375 16.40625 
z
M 21.484375 82.421875 
Q 25.78125 76.5625 30.859375 68.359375 
Q 26.953125 66.015625 23.046875 64.0625 
Q 18.75 72.265625 14.0625 78.125 
Q 17.96875 81.25 21.484375 82.421875 
z
M 39.84375 26.171875 
L 39.84375 36.71875 
L 29.6875 36.71875 
L 29.6875 26.171875 
z
M 70.3125 68.75 
Q 72.265625 64.84375 75 60.546875 
Q 72.265625 59.375 67.96875 57.03125 
Q 66.015625 61.328125 63.671875 65.234375 
Q 67.578125 67.96875 70.3125 68.75 
z
" id="SimHei-38408"/>
      <path d="M 57.421875 69.53125 
L 57.421875 79.6875 
Q 62.109375 79.296875 67.96875 78.90625 
Q 66.015625 76.171875 65.625 69.53125 
L 80.078125 69.53125 
Q 86.71875 69.53125 91.796875 69.921875 
L 91.796875 62.890625 
Q 86.328125 63.28125 80.078125 63.28125 
L 65.234375 63.28125 
L 64.453125 54.6875 
L 84.375 54.6875 
Q 83.984375 50 83.984375 42.1875 
L 83.984375 2.34375 
Q 91.796875 2.34375 95.3125 2.734375 
L 95.3125 -4.296875 
Q 90.234375 -3.90625 81.25 -3.90625 
L 44.53125 -3.90625 
Q 35.546875 -3.90625 29.6875 -4.296875 
L 29.6875 2.734375 
Q 33.203125 2.34375 40.625 2.34375 
L 40.625 42.1875 
Q 40.625 49.609375 40.234375 54.6875 
L 56.25 54.6875 
L 57.03125 63.28125 
L 50 63.28125 
Q 40.234375 63.28125 34.765625 62.890625 
L 34.765625 69.921875 
Q 39.84375 69.53125 50 69.53125 
z
M 34.765625 76.5625 
Q 31.640625 73.046875 25.78125 58.59375 
L 25.78125 7.03125 
Q 25.78125 -1.171875 26.171875 -8.59375 
L 17.96875 -8.59375 
Q 18.359375 -1.953125 18.359375 5.859375 
L 18.359375 46.09375 
Q 13.671875 38.28125 9.765625 33.59375 
Q 6.640625 37.890625 3.90625 40.234375 
Q 7.8125 44.140625 14.640625 55.265625 
Q 21.484375 66.40625 25.390625 80.46875 
Q 30.859375 77.734375 34.765625 76.5625 
z
M 76.953125 41.40625 
L 76.953125 49.21875 
L 48.046875 49.21875 
L 48.046875 41.40625 
z
M 76.953125 2.34375 
L 76.953125 9.765625 
L 48.046875 9.765625 
L 48.046875 2.34375 
z
M 76.953125 15.625 
L 76.953125 22.65625 
L 48.046875 22.65625 
L 48.046875 15.625 
z
M 76.953125 28.515625 
L 76.953125 35.546875 
L 48.046875 35.546875 
L 48.046875 28.515625 
z
" id="SimHei-20540"/>
     </defs>
     <g transform="translate(200.818182 66.020938)scale(0.1 -0.1)">
      <use xlink:href="#SimHei-38408"/>
      <use x="100" xlink:href="#SimHei-20540"/>
      <use x="200" xlink:href="#SimHei-32447"/>
      <use x="300" xlink:href="#SimHei-40"/>
      <use x="350" xlink:href="#SimHei-49"/>
      <use x="400" xlink:href="#SimHei-51"/>
      <use x="450" xlink:href="#SimHei-31186"/>
      <use x="550" xlink:href="#SimHei-41"/>
     </g>
    </g>
   </g>
  </g>
  <g id="axes_2">
   <g id="patch_8">
    <path d="M 394.363636 252 
L 648 252 
L 648 34.56 
L 394.363636 34.56 
z
" style="fill:#ffffff;"/>
   </g>
   <g id="matplotlib.axis_3">
    <g id="xtick_7">
     <g id="line2d_21">
      <g>
       <use style="stroke:#000000;stroke-width:0.8;" x="405.892562" xlink:href="#m064b8324b6" y="252"/>
      </g>
     </g>
     <g id="text_20">
      <!-- 0 -->
      <g transform="translate(403.392562 265.875)scale(0.1 -0.1)">
       <use xlink:href="#SimHei-48"/>
      </g>
     </g>
    </g>
    <g id="xtick_8">
     <g id="line2d_22">
      <g>
       <use style="stroke:#000000;stroke-width:0.8;" x="446.702918" xlink:href="#m064b8324b6" y="252"/>
      </g>
     </g>
     <g id="text_21">
      <!-- 100 -->
      <g transform="translate(439.202918 265.875)scale(0.1 -0.1)">
       <use xlink:href="#SimHei-49"/>
       <use x="50" xlink:href="#SimHei-48"/>
       <use x="100" xlink:href="#SimHei-48"/>
      </g>
     </g>
    </g>
    <g id="xtick_9">
     <g id="line2d_23">
      <g>
       <use style="stroke:#000000;stroke-width:0.8;" x="487.513274" xlink:href="#m064b8324b6" y="252"/>
      </g>
     </g>
     <g id="text_22">
      <!-- 200 -->
      <g transform="translate(480.013274 265.875)scale(0.1 -0.1)">
       <use xlink:href="#SimHei-50"/>
       <use x="50" xlink:href="#SimHei-48"/>
       <use x="100" xlink:href="#SimHei-48"/>
      </g>
     </g>
    </g>
    <g id="xtick_10">
     <g id="line2d_24">
      <g>
       <use style="stroke:#000000;stroke-width:0.8;" x="528.323631" xlink:href="#m064b8324b6" y="252"/>
      </g>
     </g>
     <g id="text_23">
      <!-- 300 -->
      <g transform="translate(520.823631 265.875)scale(0.1 -0.1)">
       <use xlink:href="#SimHei-51"/>
       <use x="50" xlink:href="#SimHei-48"/>
       <use x="100" xlink:href="#SimHei-48"/>
      </g>
     </g>
    </g>
    <g id="xtick_11">
     <g id="line2d_25">
      <g>
       <use style="stroke:#000000;stroke-width:0.8;" x="569.133987" xlink:href="#m064b8324b6" y="252"/>
      </g>
     </g>
     <g id="text_24">
      <!-- 400 -->
      <g transform="translate(561.633987 265.875)scale(0.1 -0.1)">
       <use xlink:href="#SimHei-52"/>
       <use x="50" xlink:href="#SimHei-48"/>
       <use x="100" xlink:href="#SimHei-48"/>
      </g>
     </g>
    </g>
    <g id="xtick_12">
     <g id="line2d_26">
      <g>
       <use style="stroke:#000000;stroke-width:0.8;" x="609.944343" xlink:href="#m064b8324b6" y="252"/>
      </g>
     </g>
     <g id="text_25">
      <!-- 500 -->
      <g transform="translate(602.444343 265.875)scale(0.1 -0.1)">
       <use xlink:href="#SimHei-53"/>
       <use x="50" xlink:href="#SimHei-48"/>
       <use x="100" xlink:href="#SimHei-48"/>
      </g>
     </g>
    </g>
    <g id="text_26">
     <!-- 缺失段序号 -->
     <g transform="translate(496.181818 279.171875)scale(0.1 -0.1)">
      <use xlink:href="#SimHei-32570"/>
      <use x="100" xlink:href="#SimHei-22833"/>
      <use x="200" xlink:href="#SimHei-27573"/>
      <use x="300" xlink:href="#SimHei-24207"/>
      <use x="400" xlink:href="#SimHei-21495"/>
     </g>
    </g>
   </g>
   <g id="matplotlib.axis_4">
    <g id="ytick_9">
     <g id="line2d_27">
      <g>
       <use style="stroke:#000000;stroke-width:0.8;" x="394.363636" xlink:href="#m1897474398" y="231.54563"/>
      </g>
     </g>
     <g id="text_27">
      <!-- 0 -->
      <g transform="translate(382.363636 234.98313)scale(0.1 -0.1)">
       <use xlink:href="#SimHei-48"/>
      </g>
     </g>
    </g>
    <g id="ytick_10">
     <g id="line2d_28">
      <g>
       <use style="stroke:#000000;stroke-width:0.8;" x="394.363636" xlink:href="#m1897474398" y="205.118794"/>
      </g>
     </g>
     <g id="text_28">
      <!-- 25 -->
      <g transform="translate(377.363636 208.556294)scale(0.1 -0.1)">
       <use xlink:href="#SimHei-50"/>
       <use x="50" xlink:href="#SimHei-53"/>
      </g>
     </g>
    </g>
    <g id="ytick_11">
     <g id="line2d_29">
      <g>
       <use style="stroke:#000000;stroke-width:0.8;" x="394.363636" xlink:href="#m1897474398" y="178.691959"/>
      </g>
     </g>
     <g id="text_29">
      <!-- 50 -->
      <g transform="translate(377.363636 182.129459)scale(0.1 -0.1)">
       <use xlink:href="#SimHei-53"/>
       <use x="50" xlink:href="#SimHei-48"/>
      </g>
     </g>
    </g>
    <g id="ytick_12">
     <g id="line2d_30">
      <g>
       <use style="stroke:#000000;stroke-width:0.8;" x="394.363636" xlink:href="#m1897474398" y="152.265124"/>
      </g>
     </g>
     <g id="text_30">
      <!-- 75 -->
      <g transform="translate(377.363636 155.702624)scale(0.1 -0.1)">
       <use xlink:href="#SimHei-55"/>
       <use x="50" xlink:href="#SimHei-53"/>
      </g>
     </g>
    </g>
    <g id="ytick_13">
     <g id="line2d_31">
      <g>
       <use style="stroke:#000000;stroke-width:0.8;" x="394.363636" xlink:href="#m1897474398" y="125.838289"/>
      </g>
     </g>
     <g id="text_31">
      <!-- 100 -->
      <g transform="translate(372.363636 129.275789)scale(0.1 -0.1)">
       <use xlink:href="#SimHei-49"/>
       <use x="50" xlink:href="#SimHei-48"/>
       <use x="100" xlink:href="#SimHei-48"/>
      </g>
     </g>
    </g>
    <g id="ytick_14">
     <g id="line2d_32">
      <g>
       <use style="stroke:#000000;stroke-width:0.8;" x="394.363636" xlink:href="#m1897474398" y="99.411454"/>
      </g>
     </g>
     <g id="text_32">
      <!-- 125 -->
      <g transform="translate(372.363636 102.848954)scale(0.1 -0.1)">
       <use xlink:href="#SimHei-49"/>
       <use x="50" xlink:href="#SimHei-50"/>
       <use x="100" xlink:href="#SimHei-53"/>
      </g>
     </g>
    </g>
    <g id="ytick_15">
     <g id="line2d_33">
      <g>
       <use style="stroke:#000000;stroke-width:0.8;" x="394.363636" xlink:href="#m1897474398" y="72.984618"/>
      </g>
     </g>
     <g id="text_33">
      <!-- 150 -->
      <g transform="translate(372.363636 76.422118)scale(0.1 -0.1)">
       <use xlink:href="#SimHei-49"/>
       <use x="50" xlink:href="#SimHei-53"/>
       <use x="100" xlink:href="#SimHei-48"/>
      </g>
     </g>
    </g>
    <g id="ytick_16">
     <g id="line2d_34">
      <g>
       <use style="stroke:#000000;stroke-width:0.8;" x="394.363636" xlink:href="#m1897474398" y="46.557783"/>
      </g>
     </g>
     <g id="text_34">
      <!-- 175 -->
      <g transform="translate(372.363636 49.995283)scale(0.1 -0.1)">
       <use xlink:href="#SimHei-49"/>
       <use x="50" xlink:href="#SimHei-55"/>
       <use x="100" xlink:href="#SimHei-53"/>
      </g>
     </g>
    </g>
    <g id="text_35">
     <!-- 缺失时间(秒) -->
     <g transform="translate(367.113636 173.28)rotate(-90)scale(0.1 -0.1)">
      <use xlink:href="#SimHei-32570"/>
      <use x="100" xlink:href="#SimHei-22833"/>
      <use x="200" xlink:href="#SimHei-26102"/>
      <use x="300" xlink:href="#SimHei-38388"/>
      <use x="400" xlink:href="#SimHei-40"/>
      <use x="450" xlink:href="#SimHei-31186"/>
      <use x="550" xlink:href="#SimHei-41"/>
     </g>
    </g>
   </g>
   <g id="LineCollection_1">
    <path clip-path="url(#pd08c7765e8)" d="M 459.354129 242.116364 
L 459.354129 44.443636 
" style="fill:none;stroke:#ff0000;stroke-dasharray:5.55,2.4;stroke-dashoffset:0;stroke-width:1.5;"/>
   </g>
   <g id="line2d_35">
    <path clip-path="url(#pd08c7765e8)" d="M 405.892562 229.431483 
L 450.783954 229.431483 
L 451.600161 227.317336 
L 453.640679 227.317336 
L 454.048782 226.260263 
L 454.864989 226.260263 
L 457.313611 219.917822 
L 458.946025 219.917822 
L 459.354129 217.803675 
L 459.762232 216.746602 
L 460.578439 216.746602 
L 460.986543 215.689528 
L 461.80275 215.689528 
L 462.210854 213.575382 
L 462.618957 212.518308 
L 463.027061 212.518308 
L 463.435164 210.404161 
L 463.843268 209.347088 
L 464.251371 209.347088 
L 464.659475 208.290015 
L 465.475682 208.290015 
L 465.883786 207.232941 
L 466.291889 205.118794 
L 466.699993 205.118794 
L 467.108096 203.004648 
L 468.332407 199.833427 
L 469.148614 199.833427 
L 469.964821 197.719281 
L 470.781028 197.719281 
L 471.189132 196.662207 
L 473.22965 196.662207 
L 474.45396 193.490987 
L 475.678271 193.490987 
L 476.086375 192.433913 
L 478.534996 192.433913 
L 478.9431 191.37684 
L 483.024135 191.37684 
L 483.432239 190.319767 
L 486.288964 190.319767 
L 486.697067 189.262693 
L 489.145689 189.262693 
L 489.553792 188.20562 
L 493.634828 188.20562 
L 494.042931 187.148546 
L 497.715863 187.148546 
L 498.123967 186.091473 
L 503.02121 186.091473 
L 503.429313 185.0344 
L 507.102245 185.0344 
L 507.510349 183.977326 
L 509.550867 183.977326 
L 509.95897 182.920253 
L 513.223799 182.920253 
L 513.631902 181.863179 
L 519.753456 181.863179 
L 520.161559 180.806106 
L 523.018284 180.806106 
L 523.426388 179.749033 
L 525.875009 179.749033 
L 526.283113 178.691959 
L 529.139838 178.691959 
L 529.547941 177.634886 
L 531.996563 177.634886 
L 532.404666 176.577812 
L 535.669495 176.577812 
L 536.077598 175.520739 
L 539.75053 175.520739 
L 540.158634 174.463666 
L 540.974841 174.463666 
L 541.382944 173.406592 
L 544.647773 173.406592 
L 545.055877 172.349519 
L 549.545016 172.349519 
L 549.953119 171.292445 
L 550.769326 171.292445 
L 551.17743 170.235372 
L 552.401741 170.235372 
L 552.809844 169.178298 
L 554.034155 169.178298 
L 554.442258 168.121225 
L 558.115191 168.121225 
L 558.523294 167.064152 
L 560.563812 167.064152 
L 560.971915 166.007078 
L 563.012433 166.007078 
L 563.420537 164.950005 
L 564.644848 164.950005 
L 565.052951 163.892931 
L 565.461055 163.892931 
L 565.869158 162.835858 
L 566.277262 162.835858 
L 566.685365 161.778785 
L 567.501572 161.778785 
L 567.909676 160.721711 
L 570.358297 160.721711 
L 570.766401 159.664638 
L 571.174504 159.664638 
L 571.582608 158.607564 
L 572.806919 158.607564 
L 573.623126 156.493418 
L 574.031229 156.493418 
L 574.439333 155.436344 
L 574.847437 155.436344 
L 575.663644 153.322197 
L 576.071747 153.322197 
L 576.479851 152.265124 
L 578.520369 152.265124 
L 578.928472 151.208051 
L 579.744679 151.208051 
L 580.152783 150.150977 
L 581.377094 150.150977 
L 581.785197 149.093904 
L 582.193301 149.093904 
L 582.601404 148.03683 
L 583.825715 148.03683 
L 584.233818 146.979757 
L 584.641922 146.979757 
L 585.050026 145.922684 
L 585.866233 145.922684 
L 586.68244 143.808537 
L 587.906751 143.808537 
L 588.722958 141.69439 
L 589.947268 141.69439 
L 590.355372 140.637316 
L 591.171579 140.637316 
L 591.579683 139.580243 
L 592.39589 139.580243 
L 592.803993 138.52317 
L 594.028304 138.52317 
L 594.844511 136.409023 
L 595.660718 136.409023 
L 596.068822 135.351949 
L 596.885029 135.351949 
L 597.293132 134.294876 
L 598.10934 134.294876 
L 598.517443 133.237803 
L 599.741754 133.237803 
L 600.149857 132.180729 
L 600.557961 132.180729 
L 600.966065 131.123656 
L 602.190375 131.123656 
L 602.598479 130.066582 
L 603.006582 130.066582 
L 603.414686 127.952436 
L 604.638997 127.952436 
L 605.0471 125.838289 
L 605.455204 125.838289 
L 605.863307 123.724142 
L 606.271411 123.724142 
L 606.679514 122.667069 
L 607.087618 122.667069 
L 607.495721 121.609995 
L 608.720032 121.609995 
L 609.128136 120.552922 
L 609.536239 120.552922 
L 610.352446 118.438775 
L 611.576757 118.438775 
L 611.984861 117.381702 
L 612.392964 115.267555 
L 612.801068 115.267555 
L 613.209171 114.210481 
L 613.617275 114.210481 
L 614.433482 112.096334 
L 615.249689 112.096334 
L 615.657793 111.039261 
L 616.474 111.039261 
L 616.882103 109.982188 
L 617.290207 107.868041 
L 617.698311 106.810967 
L 618.106414 103.639747 
L 618.514518 102.582674 
L 618.922621 102.582674 
L 619.330725 101.5256 
L 619.738828 99.411454 
L 620.146932 99.411454 
L 620.963139 97.297307 
L 621.779346 97.297307 
L 622.18745 94.126087 
L 622.595553 93.069013 
L 623.41176 93.069013 
L 624.227968 90.954866 
L 624.636071 90.954866 
L 625.452278 88.840719 
L 625.860382 86.726573 
L 626.268485 85.669499 
L 626.676589 81.441206 
L 627.084692 80.384132 
L 627.492796 80.384132 
L 627.9009 78.269985 
L 628.309003 77.212912 
L 628.717107 74.041692 
L 629.12521 72.984618 
L 629.941417 68.756325 
L 630.349521 68.756325 
L 631.981935 64.528031 
L 632.390039 62.413884 
L 632.798142 59.242664 
L 633.206246 53.957297 
L 633.614349 51.84315 
L 634.430557 49.729003 
L 634.83866 49.729003 
L 635.246764 47.614857 
L 635.654867 46.557783 
L 636.062971 46.557783 
L 636.471074 44.443636 
L 636.471074 44.443636 
" style="fill:none;stroke:#1f77b4;stroke-linecap:square;stroke-width:1.5;"/>
   </g>
   <g id="patch_9">
    <path d="M 394.363636 252 
L 394.363636 34.56 
" style="fill:none;stroke:#000000;stroke-linecap:square;stroke-linejoin:miter;stroke-width:0.8;"/>
   </g>
   <g id="patch_10">
    <path d="M 648 252 
L 648 34.56 
" style="fill:none;stroke:#000000;stroke-linecap:square;stroke-linejoin:miter;stroke-width:0.8;"/>
   </g>
   <g id="patch_11">
    <path d="M 394.363636 252 
L 648 252 
" style="fill:none;stroke:#000000;stroke-linecap:square;stroke-linejoin:miter;stroke-width:0.8;"/>
   </g>
   <g id="patch_12">
    <path d="M 394.363636 34.56 
L 648 34.56 
" style="fill:none;stroke:#000000;stroke-linecap:square;stroke-linejoin:miter;stroke-width:0.8;"/>
   </g>
   <g id="text_36">
    <!-- 排序的缺失曲线 -->
    <defs>
     <path d="M 3.515625 28.515625 
Q 10.546875 29.6875 17.96875 32.421875 
L 17.96875 53.515625 
L 14.84375 53.515625 
Q 10.15625 53.515625 5.46875 53.125 
L 5.46875 60.15625 
Q 9.375 59.765625 14.84375 59.765625 
L 17.96875 59.765625 
L 17.96875 70.3125 
Q 17.96875 75.78125 17.578125 80.859375 
L 26.171875 80.859375 
Q 25.390625 76.5625 25.390625 70.3125 
L 25.390625 59.765625 
Q 32.421875 59.765625 35.546875 60.15625 
L 35.546875 53.125 
Q 29.296875 53.515625 25.390625 53.515625 
L 25.390625 34.765625 
Q 30.46875 36.328125 35.546875 39.0625 
Q 35.546875 34.375 35.9375 32.03125 
Q 32.421875 30.859375 25.390625 28.125 
L 25.390625 -1.5625 
Q 25 -6.640625 22.0625 -7.8125 
Q 19.140625 -8.984375 10.9375 -10.15625 
Q 9.375 -3.515625 7.03125 -1.171875 
Q 13.671875 -1.953125 15.625 -1.75 
Q 17.578125 -1.5625 17.96875 1.171875 
L 17.96875 25.78125 
Q 13.28125 24.21875 7.03125 20.3125 
Q 5.859375 23.828125 3.515625 28.515625 
z
M 78.90625 80.078125 
Q 78.515625 75 78.515625 67.1875 
L 78.515625 62.5 
Q 89.0625 62.5 95.3125 63.28125 
L 95.3125 55.859375 
Q 89.453125 56.25 86.328125 56.25 
L 78.515625 56.25 
L 78.515625 41.015625 
Q 87.890625 41.015625 92.96875 41.40625 
L 92.96875 33.984375 
Q 87.890625 34.375 78.515625 34.375 
L 78.515625 16.796875 
Q 89.84375 16.796875 96.09375 17.1875 
L 96.09375 9.765625 
Q 91.40625 10.15625 78.515625 10.15625 
L 78.515625 4.296875 
Q 78.515625 1.171875 78.90625 -9.375 
L 71.09375 -9.375 
L 71.09375 67.1875 
Q 71.09375 75.78125 70.703125 80.078125 
L 78.90625 80.078125 
z
M 53.515625 67.96875 
Q 53.515625 76.953125 53.125 80.46875 
L 61.328125 80.46875 
Q 60.9375 75 60.9375 66.40625 
L 60.9375 -9.375 
L 53.125 -9.375 
Q 53.515625 -0.78125 53.515625 4.296875 
L 53.515625 10.15625 
Q 41.015625 10.15625 34.765625 9.765625 
L 34.765625 17.1875 
Q 39.84375 16.796875 53.515625 16.796875 
L 53.515625 34.375 
Q 43.359375 34.375 39.453125 33.59375 
L 39.453125 41.40625 
Q 42.96875 41.015625 53.515625 41.015625 
L 53.515625 56.25 
Q 42.1875 56.25 38.28125 55.859375 
L 38.28125 63.28125 
Q 42.578125 62.5 53.515625 62.5 
z
" id="SimHei-25490"/>
     <path d="M 32.8125 77.734375 
Q 30.859375 74.21875 27.34375 61.71875 
L 44.921875 61.71875 
Q 44.53125 55.078125 44.53125 44.921875 
L 44.53125 10.546875 
Q 44.53125 4.6875 44.921875 -6.25 
L 37.109375 -6.25 
L 37.109375 1.5625 
L 17.1875 1.5625 
L 17.1875 -7.03125 
L 9.375 -7.03125 
Q 9.765625 5.46875 9.765625 8.59375 
L 9.765625 44.53125 
Q 9.765625 55.078125 9.375 61.71875 
L 20.703125 61.71875 
Q 22.65625 70.703125 23.828125 80.46875 
Q 29.296875 78.515625 32.8125 77.734375 
z
M 91.015625 48.046875 
Q 90.625 24.21875 89.0625 2.734375 
Q 88.28125 -4.296875 81.640625 -6.640625 
Q 75 -8.984375 66.796875 -9.765625 
Q 66.40625 -5.46875 63.28125 -0.78125 
Q 71.09375 -1.171875 75.578125 -0.390625 
Q 80.078125 0.390625 81.25 3.125 
Q 82.421875 5.859375 83 19.140625 
Q 83.59375 32.421875 83.984375 56.25 
L 61.328125 56.25 
Q 58.203125 48.828125 52.34375 38.671875 
Q 49.609375 41.40625 45.703125 42.96875 
Q 49.21875 47.65625 52.34375 54.296875 
Q 55.46875 60.9375 57.8125 68.75 
Q 60.15625 76.5625 60.546875 80.859375 
Q 66.015625 78.515625 69.921875 77.34375 
Q 67.96875 74.21875 66.59375 70.5 
Q 65.234375 66.796875 63.671875 63.28125 
L 91.40625 63.28125 
Q 91.015625 55.078125 91.015625 48.046875 
z
M 37.109375 8.203125 
L 37.109375 28.90625 
L 17.1875 28.90625 
L 17.1875 8.203125 
z
M 37.109375 35.546875 
L 37.109375 55.078125 
L 17.1875 55.078125 
L 17.1875 35.546875 
z
M 67.96875 32.03125 
Q 70.3125 27.34375 73.4375 19.921875 
Q 70.703125 18.75 66.015625 16.015625 
Q 63.28125 23.4375 60.9375 28.703125 
Q 58.59375 33.984375 56.25 37.5 
Q 58.984375 39.0625 63.28125 41.40625 
z
" id="SimHei-30340"/>
    </defs>
    <g transform="translate(479.181818 28.56)scale(0.12 -0.12)">
     <use xlink:href="#SimHei-25490"/>
     <use x="100" xlink:href="#SimHei-24207"/>
     <use x="200" xlink:href="#SimHei-30340"/>
     <use x="300" xlink:href="#SimHei-32570"/>
     <use x="400" xlink:href="#SimHei-22833"/>
     <use x="500" xlink:href="#SimHei-26354"/>
     <use x="600" xlink:href="#SimHei-32447"/>
    </g>
   </g>
   <g id="legend_2">
    <g id="patch_13">
     <path d="M 401.363636 71.270938 
L 493.363636 71.270938 
Q 495.363636 71.270938 495.363636 69.270938 
L 495.363636 41.56 
Q 495.363636 39.56 493.363636 39.56 
L 401.363636 39.56 
Q 399.363636 39.56 399.363636 41.56 
L 399.363636 69.270938 
Q 399.363636 71.270938 401.363636 71.270938 
z
" style="fill:#ffffff;opacity:0.8;stroke:#cccccc;stroke-linejoin:miter;"/>
    </g>
    <g id="line2d_36">
     <path d="M 403.363636 48.106875 
L 423.363636 48.106875 
" style="fill:none;stroke:#1f77b4;stroke-linecap:square;stroke-width:1.5;"/>
    </g>
    <g id="line2d_37"/>
    <g id="text_37">
     <!-- 缺失线 -->
     <g transform="translate(431.363636 51.606875)scale(0.1 -0.1)">
      <use xlink:href="#SimHei-32570"/>
      <use x="100" xlink:href="#SimHei-22833"/>
      <use x="200" xlink:href="#SimHei-32447"/>
     </g>
    </g>
    <g id="line2d_38">
     <path d="M 403.363636 62.520938 
L 423.363636 62.520938 
" style="fill:none;stroke:#ff0000;stroke-dasharray:5.55,2.4;stroke-dashoffset:0;stroke-width:1.5;"/>
    </g>
    <g id="text_38">
     <!-- 阈值线(13秒) -->
     <g transform="translate(431.363636 66.020938)scale(0.1 -0.1)">
      <use xlink:href="#SimHei-38408"/>
      <use x="100" xlink:href="#SimHei-20540"/>
      <use x="200" xlink:href="#SimHei-32447"/>
      <use x="300" xlink:href="#SimHei-40"/>
      <use x="350" xlink:href="#SimHei-49"/>
      <use x="400" xlink:href="#SimHei-51"/>
      <use x="450" xlink:href="#SimHei-31186"/>
      <use x="550" xlink:href="#SimHei-41"/>
     </g>
    </g>
   </g>
  </g>
 </g>
 <defs>
  <clipPath id="p05678ae583">
   <rect height="217.44" width="253.636364" x="90" y="34.56"/>
  </clipPath>
  <clipPath id="pd08c7765e8">
   <rect height="217.44" width="253.636364" x="394.363636" y="34.56"/>
  </clipPath>
 </defs>
</svg>
