<?xml version="1.0" encoding="utf-8" standalone="no"?>
<!DOCTYPE svg PUBLIC "-//W3C//DTD SVG 1.1//EN"
  "http://www.w3.org/Graphics/SVG/1.1/DTD/svg11.dtd">
<!-- Created with matplotlib (https://matplotlib.org/) -->
<svg height="288pt" version="1.1" viewBox="0 0 720 288" width="720pt" xmlns="http://www.w3.org/2000/svg" xmlns:xlink="http://www.w3.org/1999/xlink">
 <defs>
  <style type="text/css">
*{stroke-linecap:butt;stroke-linejoin:round;}
  </style>
 </defs>
 <g id="figure_1">
  <g id="patch_1">
   <path d="M 0 288 
L 720 288 
L 720 0 
L 0 0 
z
" style="fill:#ffffff;"/>
  </g>
  <g id="axes_1">
   <g id="patch_2">
    <path d="M 90 252 
L 343.636364 252 
L 343.636364 34.56 
L 90 34.56 
z
" style="fill:#ffffff;"/>
   </g>
   <g id="matplotlib.axis_1">
    <g id="xtick_1">
     <g id="line2d_1">
      <defs>
       <path d="M 0 0 
L 0 3.5 
" id="m62774893a5" style="stroke:#000000;stroke-width:0.8;"/>
      </defs>
      <g>
       <use style="stroke:#000000;stroke-width:0.8;" x="101.528926" xlink:href="#m62774893a5" y="252"/>
      </g>
     </g>
     <g id="text_1">
      <!-- 0 -->
      <defs>
       <path d="M 3.125 29.296875 
Q 3.90625 50 6.4375 56.046875 
Q 8.984375 62.109375 13.671875 66.015625 
Q 18.359375 69.921875 25.1875 69.921875 
Q 32.03125 69.921875 37.109375 64.25 
Q 42.1875 58.59375 43.75 50 
Q 45.3125 41.40625 44.71875 30.265625 
Q 44.140625 19.140625 40.8125 12.109375 
Q 37.5 5.078125 30.859375 2.34375 
Q 24.21875 -0.390625 17.578125 2.921875 
Q 10.9375 6.25 8.203125 11.71875 
Q 5.46875 17.1875 4.296875 23.234375 
Q 3.125 29.296875 3.90625 50 
z
M 12.890625 52.734375 
Q 10.546875 31.25 12.5 22.84375 
Q 14.453125 14.453125 18.9375 10.9375 
Q 23.4375 7.421875 28.125 9.5625 
Q 32.8125 11.71875 34.953125 18.15625 
Q 37.109375 24.609375 37.109375 32.21875 
Q 37.109375 39.84375 36.515625 46.09375 
Q 35.9375 52.34375 33 57.421875 
Q 30.078125 62.5 25.1875 62.6875 
Q 20.3125 62.890625 16.59375 57.8125 
Q 12.890625 52.734375 10.546875 31.25 
z
" id="SimHei-48"/>
      </defs>
      <g transform="translate(99.028926 265.875)scale(0.1 -0.1)">
       <use xlink:href="#SimHei-48"/>
      </g>
     </g>
    </g>
    <g id="xtick_2">
     <g id="line2d_2">
      <g>
       <use style="stroke:#000000;stroke-width:0.8;" x="146.829223" xlink:href="#m62774893a5" y="252"/>
      </g>
     </g>
     <g id="text_2">
      <!-- 200 -->
      <defs>
       <path d="M 4.6875 3.90625 
Q 5.078125 9.765625 10.15625 14.453125 
Q 15.234375 19.140625 23.046875 29.09375 
Q 30.859375 39.0625 33.203125 44.53125 
Q 35.546875 50 34.953125 53.90625 
Q 34.375 57.8125 31.25 60.34375 
Q 28.125 62.890625 24.015625 62.5 
Q 19.921875 62.109375 16.203125 59.375 
Q 12.5 56.640625 10.546875 51.171875 
L 3.125 52.34375 
Q 6.25 61.328125 11.125 65.421875 
Q 16.015625 69.53125 22.65625 69.921875 
Q 26.5625 70.3125 29.6875 69.71875 
Q 32.8125 69.140625 36.125 66.984375 
Q 39.453125 64.84375 41.59375 60.546875 
Q 43.75 56.25 43.15625 50.1875 
Q 42.578125 44.140625 37.109375 35.734375 
Q 31.640625 27.34375 16.015625 9.375 
L 44.140625 9.375 
L 44.140625 2.34375 
L 4.6875 2.34375 
z
" id="SimHei-50"/>
      </defs>
      <g transform="translate(139.329223 265.875)scale(0.1 -0.1)">
       <use xlink:href="#SimHei-50"/>
       <use x="50" xlink:href="#SimHei-48"/>
       <use x="100" xlink:href="#SimHei-48"/>
      </g>
     </g>
    </g>
    <g id="xtick_3">
     <g id="line2d_3">
      <g>
       <use style="stroke:#000000;stroke-width:0.8;" x="192.12952" xlink:href="#m62774893a5" y="252"/>
      </g>
     </g>
     <g id="text_3">
      <!-- 400 -->
      <defs>
       <path d="M 31.25 17.1875 
L 1.171875 17.1875 
L 1.171875 23.828125 
L 32.8125 69.53125 
L 38.671875 69.53125 
L 38.671875 23.828125 
L 48.046875 23.828125 
L 48.046875 17.1875 
L 38.671875 17.1875 
L 38.671875 2.34375 
L 31.25 2.34375 
z
M 31.25 23.828125 
L 31.25 54.6875 
L 9.375 23.828125 
z
" id="SimHei-52"/>
      </defs>
      <g transform="translate(184.62952 265.875)scale(0.1 -0.1)">
       <use xlink:href="#SimHei-52"/>
       <use x="50" xlink:href="#SimHei-48"/>
       <use x="100" xlink:href="#SimHei-48"/>
      </g>
     </g>
    </g>
    <g id="xtick_4">
     <g id="line2d_4">
      <g>
       <use style="stroke:#000000;stroke-width:0.8;" x="237.429817" xlink:href="#m62774893a5" y="252"/>
      </g>
     </g>
     <g id="text_4">
      <!-- 600 -->
      <defs>
       <path d="M 3.515625 19.53125 
Q 4.296875 30.859375 6.046875 34.765625 
Q 7.8125 38.671875 11.328125 44.53125 
L 27.34375 69.53125 
L 36.328125 69.53125 
L 19.921875 43.75 
Q 30.46875 46.484375 36.71875 42.96875 
Q 42.96875 39.453125 45.109375 34.953125 
Q 47.265625 30.46875 47.453125 25.1875 
Q 47.65625 19.921875 45.890625 14.84375 
Q 44.140625 9.765625 39.640625 5.65625 
Q 35.15625 1.5625 27.140625 1.171875 
Q 19.140625 0.78125 13.46875 4.09375 
Q 7.8125 7.421875 5.65625 13.46875 
Q 3.515625 19.53125 4.296875 30.859375 
z
M 12.5 16.015625 
Q 19.53125 8.59375 25.390625 8.203125 
Q 31.25 7.8125 35.15625 12.109375 
Q 39.0625 16.40625 39.0625 24.609375 
Q 39.0625 32.8125 34.171875 35.9375 
Q 29.296875 39.0625 23.234375 38.28125 
Q 17.1875 37.5 14.453125 32.421875 
Q 11.71875 27.34375 12.109375 21.671875 
Q 12.5 16.015625 19.53125 8.59375 
z
" id="SimHei-54"/>
      </defs>
      <g transform="translate(229.929817 265.875)scale(0.1 -0.1)">
       <use xlink:href="#SimHei-54"/>
       <use x="50" xlink:href="#SimHei-48"/>
       <use x="100" xlink:href="#SimHei-48"/>
      </g>
     </g>
    </g>
    <g id="xtick_5">
     <g id="line2d_5">
      <g>
       <use style="stroke:#000000;stroke-width:0.8;" x="282.730114" xlink:href="#m62774893a5" y="252"/>
      </g>
     </g>
     <g id="text_5">
      <!-- 800 -->
      <defs>
       <path d="M 2.734375 16.796875 
Q 2.734375 26.171875 5.078125 30.65625 
Q 7.421875 35.15625 12.890625 37.890625 
Q 8.203125 40.625 6.640625 43.9375 
Q 5.078125 47.265625 4.875 51.5625 
Q 4.6875 55.859375 6.046875 58.984375 
Q 7.421875 62.109375 10.15625 64.84375 
Q 12.890625 67.578125 16.203125 68.546875 
Q 19.53125 69.53125 23.4375 69.53125 
Q 27.34375 69.53125 30.46875 68.75 
Q 33.59375 67.96875 37.109375 65.421875 
Q 40.625 62.890625 42.1875 58.203125 
Q 43.75 53.515625 41.984375 47.265625 
Q 40.234375 41.015625 32.8125 37.5 
Q 39.453125 35.546875 42.1875 31.4375 
Q 44.921875 27.34375 44.921875 21.484375 
Q 44.921875 15.625 43.15625 12.109375 
Q 41.40625 8.59375 39.25 6.25 
Q 37.109375 3.90625 33.390625 2.53125 
Q 29.6875 1.171875 24.015625 1.171875 
Q 18.359375 1.171875 14.25 2.53125 
Q 10.15625 3.90625 7.421875 6.640625 
Q 4.6875 9.375 3.703125 13.078125 
Q 2.734375 16.796875 2.734375 26.171875 
z
M 10.9375 26.5625 
Q 10.546875 17.1875 12.296875 13.671875 
Q 14.0625 10.15625 18.75 9.171875 
Q 23.4375 8.203125 28.515625 9.375 
Q 33.59375 10.546875 35.546875 14.84375 
Q 37.5 19.140625 36.90625 23.4375 
Q 36.328125 27.734375 32.03125 30.65625 
Q 27.734375 33.59375 22.65625 33.203125 
Q 17.578125 32.8125 14.25 29.6875 
Q 10.9375 26.5625 10.546875 17.1875 
z
M 12.109375 56.25 
Q 12.109375 48.4375 14.84375 44.921875 
Q 17.578125 41.40625 23.4375 41.40625 
Q 29.296875 41.40625 32.21875 44.921875 
Q 35.15625 48.4375 34.953125 53.3125 
Q 34.765625 58.203125 31.4375 60.546875 
Q 28.125 62.890625 22.453125 62.5 
Q 16.796875 62.109375 14.453125 59.171875 
Q 12.109375 56.25 12.109375 48.4375 
z
" id="SimHei-56"/>
      </defs>
      <g transform="translate(275.230114 265.875)scale(0.1 -0.1)">
       <use xlink:href="#SimHei-56"/>
       <use x="50" xlink:href="#SimHei-48"/>
       <use x="100" xlink:href="#SimHei-48"/>
      </g>
     </g>
    </g>
    <g id="xtick_6">
     <g id="line2d_6">
      <g>
       <use style="stroke:#000000;stroke-width:0.8;" x="328.030411" xlink:href="#m62774893a5" y="252"/>
      </g>
     </g>
     <g id="text_6">
      <!-- 1000 -->
      <defs>
       <path d="M 21.875 56.25 
Q 16.796875 51.171875 8.984375 46.484375 
L 8.984375 53.90625 
Q 18.75 60.546875 25 69.53125 
L 29.6875 69.53125 
L 29.6875 2.34375 
L 21.875 2.34375 
z
" id="SimHei-49"/>
      </defs>
      <g transform="translate(318.030411 265.875)scale(0.1 -0.1)">
       <use xlink:href="#SimHei-49"/>
       <use x="50" xlink:href="#SimHei-48"/>
       <use x="100" xlink:href="#SimHei-48"/>
       <use x="150" xlink:href="#SimHei-48"/>
      </g>
     </g>
    </g>
    <g id="text_7">
     <!-- 缺失段序号 -->
     <defs>
      <path d="M 88.671875 -9.375 
Q 79.6875 -2.34375 74.21875 5.265625 
Q 68.75 12.890625 66.40625 20.3125 
Q 63.28125 8.984375 57.03125 1.359375 
Q 50.78125 -6.25 45.3125 -10.546875 
Q 42.1875 -6.640625 38.671875 -5.46875 
Q 44.53125 -2.34375 50.96875 5.46875 
Q 57.421875 13.28125 60.9375 28.125 
Q 53.90625 28.125 46.484375 27.734375 
L 46.484375 34.375 
Q 53.515625 33.984375 61.71875 33.984375 
Q 62.109375 41.40625 62.5 55.46875 
Q 55.859375 55.46875 49.21875 55.078125 
L 49.21875 62.109375 
Q 55.859375 61.71875 62.5 61.71875 
Q 62.5 75 62.109375 81.25 
Q 66.40625 80.46875 71.484375 80.078125 
Q 70.703125 76.953125 70.3125 71.484375 
Q 69.921875 66.015625 69.921875 61.71875 
L 88.28125 61.71875 
Q 87.5 55.078125 87.5 49.21875 
L 87.109375 33.984375 
Q 90.234375 33.984375 95.703125 34.375 
L 95.703125 27.734375 
Q 89.0625 28.125 84.375 28.125 
L 71.09375 28.125 
Q 74.21875 16.40625 81.640625 8.203125 
Q 89.0625 0 95.703125 -3.125 
Q 91.015625 -5.46875 88.671875 -9.375 
z
M 8.984375 47.65625 
Q 6.25 50 1.953125 51.171875 
Q 7.8125 58.59375 11.71875 66.40625 
Q 15.625 74.21875 16.796875 78.90625 
Q 21.09375 77.34375 25.390625 76.171875 
Q 23.046875 73.828125 17.96875 63.28125 
L 32.8125 63.28125 
Q 39.0625 63.28125 45.3125 63.671875 
L 45.3125 56.640625 
Q 38.671875 57.03125 30.859375 57.03125 
L 30.859375 42.96875 
Q 38.671875 42.96875 46.484375 43.359375 
L 46.484375 36.71875 
Q 38.671875 37.109375 30.859375 37.109375 
L 30.859375 7.8125 
L 37.890625 8.59375 
Q 37.890625 25 37.5 28.515625 
L 45.3125 28.515625 
Q 44.921875 25.390625 44.921875 21.484375 
L 44.921875 1.171875 
L 37.890625 1.171875 
L 37.890625 3.125 
L 8.203125 -0.390625 
Q 8.59375 6.640625 8.59375 12.5 
Q 8.59375 18.75 8.203125 26.953125 
L 15.625 26.953125 
Q 15.234375 22.65625 15.234375 6.640625 
L 23.828125 7.421875 
L 23.828125 36.71875 
Q 10.9375 36.71875 5.078125 36.328125 
L 5.078125 43.359375 
Q 10.9375 42.96875 23.828125 42.96875 
L 23.828125 57.03125 
L 14.84375 57.03125 
Q 12.109375 51.953125 8.984375 47.65625 
z
M 79.6875 33.984375 
L 80.078125 55.46875 
L 69.53125 55.46875 
Q 69.140625 38.671875 69.140625 33.984375 
z
" id="SimHei-32570"/>
      <path d="M 32.03125 69.53125 
Q 30.078125 67.578125 26.171875 58.59375 
L 46.09375 58.59375 
Q 46.09375 72.65625 45.703125 79.6875 
Q 49.609375 79.296875 54.6875 78.90625 
Q 53.90625 73.4375 53.703125 69.140625 
Q 53.515625 64.84375 53.515625 58.59375 
L 71.875 58.59375 
Q 78.125 58.59375 84.765625 58.984375 
L 84.765625 51.5625 
Q 78.515625 51.953125 71.875 51.953125 
L 53.515625 51.953125 
Q 53.515625 43.359375 52.734375 34.375 
L 78.90625 34.375 
Q 84.765625 34.375 91.796875 34.765625 
L 91.796875 27.34375 
Q 84.765625 27.734375 78.90625 27.734375 
L 55.859375 27.734375 
Q 60.546875 17.1875 71.875 10.546875 
Q 83.203125 3.90625 94.140625 1.5625 
Q 91.015625 -2.34375 88.671875 -7.421875 
Q 77.34375 -3.125 66.40625 4.484375 
Q 55.46875 12.109375 50 23.046875 
Q 45.3125 12.890625 36.328125 4.6875 
Q 27.34375 -3.515625 12.109375 -10.15625 
Q 10.15625 -6.25 6.25 -2.734375 
Q 19.53125 0.78125 29.875 9.171875 
Q 40.234375 17.578125 43.359375 27.734375 
L 20.703125 27.734375 
Q 14.453125 27.734375 7.03125 27.34375 
L 7.03125 34.765625 
Q 14.453125 34.375 20.703125 34.375 
L 44.921875 34.375 
Q 46.09375 42.578125 46.09375 51.953125 
L 23.4375 51.953125 
Q 18.75 43.75 15.234375 38.28125 
Q 12.109375 40.234375 7.8125 41.796875 
Q 14.84375 50.390625 18.546875 58.59375 
Q 22.265625 66.796875 23.4375 73.046875 
Q 28.125 70.703125 32.03125 69.53125 
z
" id="SimHei-22833"/>
      <path d="M 85.9375 38.671875 
Q 83.59375 27.734375 79.6875 19.328125 
Q 75.78125 10.9375 71.875 6.25 
Q 75.390625 3.515625 82.03125 1.359375 
Q 88.671875 -0.78125 95.703125 -1.953125 
Q 92.96875 -4.296875 91.015625 -10.15625 
Q 80.46875 -7.03125 75.390625 -4.484375 
Q 70.3125 -1.953125 66.015625 1.171875 
Q 59.765625 -2.734375 53.90625 -5.265625 
Q 48.046875 -7.8125 41.015625 -10.15625 
Q 39.453125 -6.25 36.328125 -3.515625 
Q 41.796875 -2.34375 48.4375 0 
Q 55.078125 2.34375 61.328125 6.640625 
Q 58.203125 10.546875 55.078125 17.96875 
Q 51.953125 25 50.390625 32.421875 
Q 47.65625 32.421875 45.3125 32.421875 
L 45.3125 39.0625 
Q 52.734375 38.671875 59.375 38.671875 
z
M 41.40625 72.265625 
Q 35.9375 71.09375 29.484375 69.921875 
Q 23.046875 68.75 20.3125 68.359375 
L 20.3125 55.46875 
Q 32.03125 55.46875 39.453125 56.25 
L 39.453125 48.828125 
Q 32.03125 49.21875 20.3125 49.21875 
L 20.3125 36.71875 
Q 32.03125 36.71875 39.453125 37.109375 
L 39.453125 29.6875 
Q 32.03125 30.078125 20.3125 30.078125 
L 20.3125 15.234375 
Q 30.46875 16.796875 41.015625 19.53125 
Q 40.625 15.625 40.625 12.109375 
Q 29.6875 10.546875 20.3125 8.203125 
L 20.3125 1.5625 
Q 20.3125 -3.125 20.703125 -9.765625 
L 12.5 -9.765625 
Q 12.890625 -3.125 12.890625 1.5625 
L 12.890625 6.640625 
Q 8.984375 5.859375 5.46875 4.6875 
Q 4.6875 10.15625 3.90625 12.890625 
Q 7.8125 13.28125 12.890625 14.0625 
L 12.890625 59.375 
Q 12.890625 66.015625 12.5 73.828125 
Q 17.1875 73.828125 24.609375 75.390625 
Q 32.03125 76.953125 37.109375 80.078125 
Q 38.671875 75.78125 41.40625 72.265625 
z
M 79.6875 77.734375 
Q 79.296875 71.875 79.296875 66.796875 
L 79.296875 57.03125 
Q 79.296875 53.515625 81.828125 52.921875 
Q 84.375 52.34375 93.359375 53.125 
Q 91.796875 50.390625 91.40625 46.09375 
L 79.296875 46.09375 
Q 72.65625 46.09375 72.265625 52.734375 
L 72.265625 71.484375 
L 58.984375 71.484375 
Q 58.984375 61.328125 57.421875 55.078125 
Q 55.859375 48.828125 50 42.578125 
Q 47.265625 45.3125 43.75 47.65625 
Q 51.171875 53.125 51.5625 61.515625 
Q 51.953125 69.921875 51.5625 77.734375 
L 79.6875 77.734375 
z
M 57.421875 32.8125 
Q 58.984375 26.171875 61.90625 20.109375 
Q 64.84375 14.0625 66.796875 12.109375 
Q 69.53125 14.84375 72.265625 20.5 
Q 75 26.171875 76.5625 32.8125 
L 59.375 32.8125 
z
" id="SimHei-27573"/>
      <path d="M 62.5 32.421875 
L 93.359375 32.421875 
Q 89.84375 23.828125 87.109375 16.015625 
Q 83.203125 17.1875 78.90625 17.96875 
Q 80.859375 22.65625 82.421875 26.5625 
L 63.28125 26.5625 
L 63.28125 2.34375 
Q 63.28125 -5.859375 58.78125 -7.21875 
Q 54.296875 -8.59375 46.09375 -8.984375 
Q 44.921875 -4.6875 42.96875 0 
Q 52.34375 -1.171875 54.296875 0.390625 
Q 56.25 1.953125 55.859375 5.859375 
L 55.859375 26.5625 
L 38.28125 26.5625 
Q 32.03125 26.5625 26.171875 26.171875 
L 26.171875 32.8125 
Q 32.8125 32.421875 37.890625 32.421875 
L 57.421875 32.421875 
Q 51.953125 37.5 44.921875 43.359375 
Q 46.484375 44.921875 50.78125 48.4375 
Q 53.125 46.484375 58.203125 42.578125 
L 71.484375 51.171875 
L 46.875 51.171875 
Q 37.5 51.171875 30.46875 50.78125 
L 30.46875 57.8125 
Q 37.5 57.421875 46.875 57.421875 
L 84.375 57.421875 
L 84.375 50.78125 
Q 73.4375 44.921875 62.890625 38.28125 
L 66.796875 35.15625 
z
M 58.203125 82.421875 
Q 59.765625 76.953125 61.328125 70.703125 
L 75.78125 70.703125 
Q 84.765625 70.703125 93.75 71.09375 
L 93.75 64.453125 
Q 84.765625 64.84375 75.78125 64.84375 
L 21.875 64.84375 
Q 21.875 42.96875 21.28125 33.390625 
Q 20.703125 23.828125 18.75 13.859375 
Q 16.796875 3.90625 12.109375 -5.46875 
Q 9.765625 -3.90625 3.90625 -1.953125 
Q 7.421875 4.6875 9.375 10.9375 
Q 11.328125 17.1875 12.5 25.578125 
Q 13.671875 33.984375 13.671875 44.140625 
Q 13.671875 54.6875 13.28125 70.703125 
L 52.34375 70.703125 
Q 51.171875 75.390625 49.21875 80.46875 
Q 53.515625 81.25 58.203125 82.421875 
z
" id="SimHei-24207"/>
      <path d="M 78.515625 76.953125 
Q 78.125 71.09375 78.125 63.671875 
Q 78.125 56.25 78.515625 49.609375 
L 21.875 49.609375 
Q 22.265625 55.078125 22.265625 62.5 
Q 22.265625 70.3125 21.875 76.953125 
L 78.515625 76.953125 
z
M 80.859375 41.015625 
Q 88.28125 41.015625 94.140625 41.40625 
L 94.140625 34.375 
Q 88.28125 34.765625 80.859375 34.765625 
L 38.28125 34.765625 
Q 36.71875 29.296875 34.765625 22.65625 
L 80.859375 22.65625 
Q 79.6875 16.40625 79.09375 12.109375 
Q 78.515625 7.8125 77.34375 1.75 
Q 76.171875 -4.296875 72.65625 -6.4375 
Q 69.140625 -8.59375 50.390625 -9.765625 
Q 48.828125 -5.46875 46.484375 -0.78125 
Q 60.546875 -1.171875 64.25 -0.78125 
Q 67.96875 -0.390625 69.140625 3.3125 
Q 70.3125 7.03125 71.484375 16.015625 
L 25 16.015625 
Q 28.515625 25.390625 30.46875 34.765625 
L 21.09375 34.765625 
Q 12.890625 34.765625 5.859375 34.375 
L 5.859375 41.40625 
Q 12.890625 41.015625 21.09375 41.015625 
z
M 70.703125 55.859375 
L 70.703125 70.703125 
L 29.6875 70.703125 
L 29.6875 55.859375 
z
" id="SimHei-21495"/>
     </defs>
     <g transform="translate(191.818182 279.171875)scale(0.1 -0.1)">
      <use xlink:href="#SimHei-32570"/>
      <use x="100" xlink:href="#SimHei-22833"/>
      <use x="200" xlink:href="#SimHei-27573"/>
      <use x="300" xlink:href="#SimHei-24207"/>
      <use x="400" xlink:href="#SimHei-21495"/>
     </g>
    </g>
   </g>
   <g id="matplotlib.axis_2">
    <g id="ytick_1">
     <g id="line2d_7">
      <defs>
       <path d="M 0 0 
L -3.5 0 
" id="m725e8ccd4b" style="stroke:#000000;stroke-width:0.8;"/>
      </defs>
      <g>
       <use style="stroke:#000000;stroke-width:0.8;" x="90" xlink:href="#m725e8ccd4b" y="244.349954"/>
      </g>
     </g>
     <g id="text_8">
      <!-- 0 -->
      <g transform="translate(78 247.787454)scale(0.1 -0.1)">
       <use xlink:href="#SimHei-48"/>
      </g>
     </g>
    </g>
    <g id="ytick_2">
     <g id="line2d_8">
      <g>
       <use style="stroke:#000000;stroke-width:0.8;" x="90" xlink:href="#m725e8ccd4b" y="216.430077"/>
      </g>
     </g>
     <g id="text_9">
      <!-- 25 -->
      <defs>
       <path d="M 8.59375 20.703125 
Q 11.328125 10.15625 17.96875 8.984375 
Q 24.609375 7.8125 28.703125 10.34375 
Q 32.8125 12.890625 34.5625 16.984375 
Q 36.328125 21.09375 36.125 26.171875 
Q 35.9375 31.25 33.390625 34.765625 
Q 30.859375 38.28125 26.953125 39.453125 
Q 23.046875 40.625 18.15625 39.453125 
Q 13.28125 38.28125 10.15625 33.984375 
L 3.515625 34.765625 
Q 4.296875 37.109375 10.9375 68.359375 
L 41.796875 68.359375 
L 41.796875 61.328125 
L 16.796875 61.328125 
Q 14.84375 50.78125 12.890625 44.53125 
Q 18.75 47.265625 23.828125 47.0625 
Q 28.90625 46.875 33.59375 44.71875 
Q 38.28125 42.578125 40.421875 38.859375 
Q 42.578125 35.15625 43.546875 31.4375 
Q 44.53125 27.734375 44.328125 23.4375 
Q 44.140625 19.140625 42.578125 14.640625 
Q 41.015625 10.15625 37.890625 7.21875 
Q 34.765625 4.296875 30.265625 2.53125 
Q 25.78125 0.78125 19.921875 1.171875 
Q 14.0625 1.5625 8.78125 5.46875 
Q 3.515625 9.375 1.5625 18.75 
z
" id="SimHei-53"/>
      </defs>
      <g transform="translate(73 219.867577)scale(0.1 -0.1)">
       <use xlink:href="#SimHei-50"/>
       <use x="50" xlink:href="#SimHei-53"/>
      </g>
     </g>
    </g>
    <g id="ytick_3">
     <g id="line2d_9">
      <g>
       <use style="stroke:#000000;stroke-width:0.8;" x="90" xlink:href="#m725e8ccd4b" y="188.5102"/>
      </g>
     </g>
     <g id="text_10">
      <!-- 50 -->
      <g transform="translate(73 191.9477)scale(0.1 -0.1)">
       <use xlink:href="#SimHei-53"/>
       <use x="50" xlink:href="#SimHei-48"/>
      </g>
     </g>
    </g>
    <g id="ytick_4">
     <g id="line2d_10">
      <g>
       <use style="stroke:#000000;stroke-width:0.8;" x="90" xlink:href="#m725e8ccd4b" y="160.590324"/>
      </g>
     </g>
     <g id="text_11">
      <!-- 75 -->
      <defs>
       <path d="M 13.28125 2.34375 
Q 20.3125 32.03125 37.890625 61.328125 
L 4.296875 61.328125 
L 4.296875 68.359375 
L 46.09375 68.359375 
L 46.09375 61.71875 
Q 27.734375 32.03125 21.875 2.34375 
L 13.28125 2.34375 
z
" id="SimHei-55"/>
      </defs>
      <g transform="translate(73 164.027824)scale(0.1 -0.1)">
       <use xlink:href="#SimHei-55"/>
       <use x="50" xlink:href="#SimHei-53"/>
      </g>
     </g>
    </g>
    <g id="ytick_5">
     <g id="line2d_11">
      <g>
       <use style="stroke:#000000;stroke-width:0.8;" x="90" xlink:href="#m725e8ccd4b" y="132.670447"/>
      </g>
     </g>
     <g id="text_12">
      <!-- 100 -->
      <g transform="translate(68 136.107947)scale(0.1 -0.1)">
       <use xlink:href="#SimHei-49"/>
       <use x="50" xlink:href="#SimHei-48"/>
       <use x="100" xlink:href="#SimHei-48"/>
      </g>
     </g>
    </g>
    <g id="ytick_6">
     <g id="line2d_12">
      <g>
       <use style="stroke:#000000;stroke-width:0.8;" x="90" xlink:href="#m725e8ccd4b" y="104.75057"/>
      </g>
     </g>
     <g id="text_13">
      <!-- 125 -->
      <g transform="translate(68 108.18807)scale(0.1 -0.1)">
       <use xlink:href="#SimHei-49"/>
       <use x="50" xlink:href="#SimHei-50"/>
       <use x="100" xlink:href="#SimHei-53"/>
      </g>
     </g>
    </g>
    <g id="ytick_7">
     <g id="line2d_13">
      <g>
       <use style="stroke:#000000;stroke-width:0.8;" x="90" xlink:href="#m725e8ccd4b" y="76.830693"/>
      </g>
     </g>
     <g id="text_14">
      <!-- 150 -->
      <g transform="translate(68 80.268193)scale(0.1 -0.1)">
       <use xlink:href="#SimHei-49"/>
       <use x="50" xlink:href="#SimHei-53"/>
       <use x="100" xlink:href="#SimHei-48"/>
      </g>
     </g>
    </g>
    <g id="ytick_8">
     <g id="line2d_14">
      <g>
       <use style="stroke:#000000;stroke-width:0.8;" x="90" xlink:href="#m725e8ccd4b" y="48.910817"/>
      </g>
     </g>
     <g id="text_15">
      <!-- 175 -->
      <g transform="translate(68 52.348317)scale(0.1 -0.1)">
       <use xlink:href="#SimHei-49"/>
       <use x="50" xlink:href="#SimHei-55"/>
       <use x="100" xlink:href="#SimHei-53"/>
      </g>
     </g>
    </g>
    <g id="text_16">
     <!-- 缺失时间(秒) -->
     <defs>
      <path d="M 39.453125 71.484375 
Q 39.0625 57.421875 39.0625 37.5 
Q 39.0625 17.578125 39.453125 6.25 
L 31.25 6.25 
L 31.25 13.671875 
L 15.625 13.671875 
L 15.625 0.78125 
L 7.421875 0.78125 
Q 7.8125 18.75 7.8125 36.71875 
Q 7.8125 55.078125 7.421875 71.484375 
L 39.453125 71.484375 
z
M 76.171875 59.765625 
Q 76.171875 71.484375 75.78125 81.640625 
L 84.375 81.640625 
Q 83.984375 71.484375 83.984375 59.765625 
Q 89.84375 59.765625 96.484375 60.15625 
L 96.484375 52.734375 
Q 89.84375 53.125 83.984375 53.125 
L 83.984375 0.78125 
Q 83.984375 -5.078125 79.296875 -6.640625 
Q 74.609375 -8.203125 67.1875 -8.984375 
Q 67.1875 -4.296875 62.890625 0 
Q 70.3125 -0.78125 73.234375 -0.390625 
Q 76.171875 0 76.171875 4.6875 
L 76.171875 53.125 
Q 56.640625 53.125 43.359375 52.734375 
L 43.359375 60.15625 
Q 55.859375 59.765625 76.171875 59.765625 
z
M 31.25 20.3125 
L 31.25 39.84375 
L 15.625 39.84375 
L 15.625 20.3125 
z
M 31.25 46.484375 
L 31.25 64.84375 
L 15.625 64.84375 
L 15.625 46.484375 
z
M 55.46875 42.578125 
Q 60.546875 34.375 65.234375 25 
Q 61.328125 23.828125 57.03125 21.484375 
Q 53.90625 30.859375 48.046875 39.0625 
Q 51.5625 40.625 55.46875 42.578125 
z
" id="SimHei-26102"/>
      <path d="M 69.53125 55.46875 
Q 69.140625 48.046875 69.140625 42.578125 
L 69.140625 21.875 
Q 69.140625 16.796875 69.53125 9.765625 
L 30.078125 9.765625 
Q 30.46875 16.796875 30.46875 22.265625 
L 30.46875 42.578125 
Q 30.46875 48.046875 30.078125 55.46875 
L 69.53125 55.46875 
z
M 90.625 76.171875 
Q 90.234375 68.75 90.234375 61.328125 
L 90.234375 3.90625 
Q 90.625 -5.078125 85.34375 -7.03125 
Q 80.078125 -8.984375 73.828125 -9.765625 
Q 73.4375 -5.078125 70.703125 -0.390625 
Q 78.125 -0.78125 80.265625 0.390625 
Q 82.421875 1.5625 82.421875 5.46875 
L 82.421875 69.53125 
L 58.984375 69.53125 
Q 49.609375 69.53125 41.40625 69.140625 
L 41.40625 76.5625 
Q 49.609375 76.171875 58.984375 76.171875 
z
M 8.59375 -8.203125 
Q 9.375 -0.390625 9.375 8.203125 
L 9.375 49.21875 
Q 9.375 57.421875 8.59375 62.890625 
L 17.578125 62.890625 
Q 17.1875 57.03125 17.1875 51.5625 
L 17.1875 7.8125 
Q 17.1875 0 17.578125 -8.203125 
z
M 61.71875 16.015625 
L 61.71875 30.46875 
L 37.890625 30.46875 
L 37.890625 16.015625 
z
M 61.71875 36.71875 
L 61.71875 49.21875 
L 37.890625 49.21875 
L 37.890625 36.71875 
z
M 23.828125 82.8125 
Q 27.34375 78.125 34.765625 67.96875 
Q 30.46875 66.015625 26.5625 63.671875 
Q 22.65625 71.484375 16.796875 78.515625 
Q 21.09375 81.640625 23.828125 82.8125 
z
" id="SimHei-38388"/>
      <path d="M 46.484375 -3.125 
L 42.1875 -7.421875 
Q 32.421875 1.953125 27.53125 12.109375 
Q 22.65625 22.265625 22.65625 35.15625 
Q 22.65625 48.046875 27.53125 58.203125 
Q 32.421875 68.359375 42.1875 78.125 
L 46.484375 73.828125 
Q 37.5 65.234375 33 56.046875 
Q 28.515625 46.875 28.515625 35.15625 
Q 28.515625 23.4375 33 14.25 
Q 37.5 5.078125 46.484375 -3.125 
z
" id="SimHei-40"/>
      <path d="M 42.578125 71.09375 
Q 38.671875 70.703125 35.9375 70.109375 
Q 33.203125 69.53125 30.078125 68.75 
L 30.078125 51.953125 
Q 35.15625 51.953125 42.1875 52.34375 
L 42.1875 44.921875 
Q 35.15625 45.3125 30.078125 45.3125 
L 30.078125 2.734375 
Q 30.078125 -2.34375 30.46875 -10.15625 
L 21.875 -10.15625 
Q 22.65625 -2.34375 22.65625 2.734375 
L 22.65625 26.953125 
Q 20.3125 21.484375 16.984375 15.625 
Q 13.671875 9.765625 9.765625 5.859375 
Q 7.03125 9.765625 3.515625 13.28125 
Q 9.375 17.96875 14.0625 26.171875 
Q 18.75 34.375 21.484375 45.3125 
L 19.921875 45.3125 
Q 13.28125 45.3125 5.078125 44.921875 
L 5.078125 52.34375 
Q 13.28125 51.953125 19.921875 51.953125 
L 23.046875 51.953125 
L 23.046875 67.1875 
Q 16.015625 65.234375 10.546875 64.0625 
Q 8.984375 67.1875 6.640625 70.3125 
Q 14.84375 71.484375 22.0625 73.234375 
Q 29.296875 75 37.5 78.90625 
Q 39.453125 75 42.578125 71.09375 
z
M 92.96875 32.8125 
Q 89.0625 29.296875 86.125 23.4375 
Q 83.203125 17.578125 77.921875 11.328125 
Q 72.65625 5.078125 64.453125 -0.1875 
Q 56.25 -5.46875 41.015625 -9.765625 
Q 39.84375 -5.078125 36.71875 -0.78125 
Q 46.484375 0 54.09375 2.921875 
Q 61.71875 5.859375 67.1875 10.9375 
Q 72.65625 16.015625 76.5625 22.65625 
Q 80.46875 29.296875 82.8125 37.109375 
Q 85.546875 35.9375 92.96875 32.8125 
z
M 71.484375 82.421875 
Q 71.09375 76.171875 71.09375 68.75 
L 71.09375 36.328125 
Q 71.09375 30.078125 71.484375 22.265625 
L 63.671875 22.265625 
Q 64.0625 30.46875 64.0625 36.328125 
L 64.0625 68.75 
Q 64.0625 75.390625 63.671875 82.421875 
L 71.484375 82.421875 
z
M 59.375 61.328125 
Q 57.421875 56.640625 55.46875 46.484375 
Q 53.515625 36.328125 51.953125 30.859375 
Q 46.875 32.03125 43.359375 33.203125 
Q 45.3125 36.71875 47.265625 45.3125 
Q 49.21875 53.90625 50.390625 63.28125 
Q 54.6875 62.109375 59.375 61.328125 
z
M 82.421875 65.234375 
Q 85.15625 61.328125 89.0625 56.25 
Q 92.96875 51.171875 96.875 45.3125 
Q 93.359375 43.359375 89.453125 41.015625 
Q 87.109375 45.3125 83.78125 50.1875 
Q 80.46875 55.078125 76.171875 59.765625 
Q 79.296875 62.109375 82.421875 65.234375 
z
M 38.671875 37.5 
Q 40.234375 34.765625 42.1875 31.4375 
Q 44.140625 28.125 46.484375 23.4375 
Q 43.359375 21.875 39.453125 19.53125 
Q 37.890625 23.4375 35.9375 27.140625 
Q 33.984375 30.859375 32.03125 33.59375 
Q 35.15625 35.15625 38.671875 37.5 
z
" id="SimHei-31186"/>
      <path d="M 26.171875 35.15625 
Q 26.171875 22.265625 21.28125 12.109375 
Q 16.40625 1.953125 6.640625 -7.421875 
L 2.34375 -3.125 
Q 11.328125 5.078125 15.8125 14.25 
Q 20.3125 23.4375 20.3125 35.15625 
Q 20.3125 46.875 15.8125 56.046875 
Q 11.328125 65.234375 2.34375 73.828125 
L 6.640625 78.125 
Q 16.40625 68.359375 21.28125 58.203125 
Q 26.171875 48.046875 26.171875 35.15625 
z
" id="SimHei-41"/>
     </defs>
     <g transform="translate(62.75 173.28)rotate(-90)scale(0.1 -0.1)">
      <use xlink:href="#SimHei-32570"/>
      <use x="100" xlink:href="#SimHei-22833"/>
      <use x="200" xlink:href="#SimHei-26102"/>
      <use x="300" xlink:href="#SimHei-38388"/>
      <use x="400" xlink:href="#SimHei-40"/>
      <use x="450" xlink:href="#SimHei-31186"/>
      <use x="550" xlink:href="#SimHei-41"/>
     </g>
    </g>
   </g>
   <g id="line2d_15">
    <path clip-path="url(#pf51f04b1ae)" d="M 101.528926 182.926225 
L 101.755427 77.947488 
L 102.20843 220.897257 
L 102.434932 239.882773 
L 102.661433 181.80943 
L 102.887935 201.911741 
L 103.114436 242.116364 
L 103.340938 171.758274 
L 103.79394 242.116364 
L 104.246943 242.116364 
L 104.473445 190.74379 
L 104.699946 242.116364 
L 107.644466 242.116364 
L 107.870967 102.51698 
L 108.097469 181.80943 
L 108.32397 199.678151 
L 108.550472 194.094176 
L 108.776973 242.116364 
L 109.003475 176.225455 
L 109.229976 201.911741 
L 109.456478 178.459045 
L 109.682979 173.991864 
L 110.135982 199.678151 
L 110.588985 149.422373 
L 110.815487 196.327766 
L 111.041988 205.262126 
L 111.26849 199.678151 
L 111.494991 207.495716 
L 111.721492 237.649183 
L 111.947994 235.415593 
L 112.174495 186.27661 
L 112.400997 196.327766 
L 112.627498 196.327766 
L 112.854 236.532388 
L 113.080501 239.882773 
L 113.307003 237.649183 
L 113.533504 242.116364 
L 113.760006 238.765978 
L 113.986507 203.028536 
L 114.213009 242.116364 
L 114.43951 242.116364 
L 114.666012 236.532388 
L 114.892513 206.378921 
L 115.119015 242.116364 
L 115.345516 242.116364 
L 115.572018 232.065208 
L 115.798519 242.116364 
L 117.837033 242.116364 
L 118.063534 237.649183 
L 118.290036 242.116364 
L 118.516537 239.882773 
L 118.743039 240.999569 
L 118.96954 238.765978 
L 119.196042 242.116364 
L 119.422543 205.262126 
L 119.875546 239.882773 
L 120.102047 242.116364 
L 120.328549 242.116364 
L 120.55505 238.765978 
L 120.781552 224.247643 
L 121.008053 240.999569 
L 121.234555 222.014052 
L 121.461056 224.247643 
L 121.687558 233.182003 
L 121.914059 232.065208 
L 122.140561 240.999569 
L 122.367062 239.882773 
L 122.593564 242.116364 
L 122.820065 242.116364 
L 123.046567 226.481233 
L 123.273068 240.999569 
L 123.49957 89.115439 
L 123.726071 200.794946 
L 123.952573 195.210971 
L 124.179074 210.846102 
L 124.405576 179.57584 
L 124.632077 242.116364 
L 124.858579 168.407889 
L 125.311582 242.116364 
L 125.538083 181.80943 
L 125.764585 242.116364 
L 125.991086 93.582619 
L 126.217588 233.182003 
L 126.444089 242.116364 
L 126.670591 242.116364 
L 126.897092 162.823914 
L 127.123593 242.116364 
L 127.350095 238.765978 
L 127.576596 238.765978 
L 127.803098 83.531464 
L 128.256101 206.378921 
L 128.482602 187.393405 
L 128.709104 106.98416 
L 128.935605 179.57584 
L 129.162107 121.502496 
L 129.388608 239.882773 
L 129.841611 237.649183 
L 130.068113 237.649183 
L 130.294614 239.882773 
L 130.521116 240.999569 
L 130.747617 180.692635 
L 130.974119 197.444561 
L 131.20062 233.182003 
L 131.427122 242.116364 
L 132.333128 242.116364 
L 132.559629 232.065208 
L 132.786131 242.116364 
L 134.824644 242.116364 
L 135.051145 127.086471 
L 135.277647 239.882773 
L 135.504148 239.882773 
L 135.73065 240.999569 
L 135.957151 238.765978 
L 136.183653 240.999569 
L 136.410154 234.298798 
L 136.636656 240.999569 
L 136.863157 242.116364 
L 137.089659 242.116364 
L 137.31616 240.999569 
L 137.542662 242.116364 
L 140.940184 242.116364 
L 141.166686 234.298798 
L 141.393187 239.882773 
L 141.619689 242.116364 
L 141.84619 234.298798 
L 142.072692 234.298798 
L 142.299193 240.999569 
L 142.525695 237.649183 
L 142.752196 96.933005 
L 142.978697 234.298798 
L 143.205199 234.298798 
L 143.4317 242.116364 
L 143.658202 234.298798 
L 143.884703 242.116364 
L 144.111205 234.298798 
L 144.337706 196.327766 
L 144.564208 234.298798 
L 144.790709 242.116364 
L 145.017211 204.145331 
L 145.243712 239.882773 
L 145.470214 238.765978 
L 145.696715 242.116364 
L 145.923217 70.129923 
L 146.149718 186.27661 
L 146.37622 118.152111 
L 146.602721 234.298798 
L 146.829223 234.298798 
L 147.055724 242.116364 
L 147.508727 239.882773 
L 147.735229 240.999569 
L 147.96173 237.649183 
L 148.188232 238.765978 
L 148.414733 235.415593 
L 148.867736 242.116364 
L 149.320739 236.532388 
L 149.547241 242.116364 
L 149.773742 242.116364 
L 150.000244 240.999569 
L 150.226745 242.116364 
L 150.453247 234.298798 
L 150.679748 242.116364 
L 150.906249 236.532388 
L 151.132751 239.882773 
L 151.359252 240.999569 
L 151.585754 238.765978 
L 151.812255 242.116364 
L 152.038757 171.758274 
L 152.265258 237.649183 
L 152.49176 111.451341 
L 152.718261 240.999569 
L 152.944763 198.561356 
L 153.171264 189.626995 
L 153.397766 171.758274 
L 153.624267 170.641479 
L 153.850769 191.860586 
L 154.07727 185.159815 
L 154.303772 99.166595 
L 154.530273 179.57584 
L 154.756775 190.74379 
L 154.983276 157.239938 
L 155.436279 242.116364 
L 155.662781 242.116364 
L 156.342285 148.305578 
L 156.568787 232.065208 
L 156.795288 232.065208 
L 157.02179 233.182003 
L 157.474793 242.116364 
L 157.701294 232.065208 
L 157.927796 239.882773 
L 158.154297 240.999569 
L 158.380799 240.999569 
L 158.6073 239.882773 
L 159.060303 239.882773 
L 159.286804 242.116364 
L 159.513306 242.116364 
L 159.739807 239.882773 
L 159.966309 242.116364 
L 160.419312 242.116364 
L 160.645813 240.999569 
L 161.098816 240.999569 
L 161.325318 242.116364 
L 162.457825 242.116364 
L 162.684327 240.999569 
L 162.910828 242.116364 
L 163.363831 242.116364 
L 163.590333 240.999569 
L 163.816834 99.166595 
L 164.043336 218.663667 
L 164.269837 240.999569 
L 164.496339 111.451341 
L 164.72284 121.502496 
L 164.949342 242.116364 
L 165.175843 242.116364 
L 165.402345 177.34225 
L 165.628846 197.444561 
L 165.855348 201.911741 
L 166.081849 242.116364 
L 166.308351 235.415593 
L 166.534852 242.116364 
L 166.761353 240.999569 
L 166.987855 234.298798 
L 167.214356 176.225455 
L 167.440858 182.926225 
L 167.893861 242.116364 
L 168.120362 233.182003 
L 168.346864 242.116364 
L 168.573365 234.298798 
L 168.799867 235.415593 
L 169.026368 242.116364 
L 171.064882 242.116364 
L 171.291383 234.298798 
L 171.517885 242.116364 
L 172.650392 242.116364 
L 172.876894 240.999569 
L 173.103395 242.116364 
L 173.329897 234.298798 
L 173.556398 162.823914 
L 173.7829 242.116364 
L 177.180422 242.116364 
L 177.406923 237.649183 
L 177.633425 242.116364 
L 177.859926 242.116364 
L 178.086428 238.765978 
L 178.312929 239.882773 
L 178.539431 242.116364 
L 182.163455 242.116364 
L 182.389956 238.765978 
L 182.616457 242.116364 
L 185.107974 242.116364 
L 185.334475 239.882773 
L 185.560977 242.116364 
L 186.693484 242.116364 
L 186.919986 230.948413 
L 187.146487 242.116364 
L 187.372989 233.182003 
L 187.59949 230.948413 
L 187.825992 230.948413 
L 188.052493 182.926225 
L 188.278995 189.626995 
L 188.505496 230.948413 
L 188.731998 242.116364 
L 189.185001 242.116364 
L 189.411502 239.882773 
L 189.638004 240.999569 
L 189.864505 240.999569 
L 190.091007 242.116364 
L 190.317508 240.999569 
L 190.770511 240.999569 
L 190.997012 236.532388 
L 191.223514 239.882773 
L 191.450015 230.948413 
L 191.676517 240.999569 
L 191.903018 234.298798 
L 192.12952 240.999569 
L 192.356021 242.116364 
L 192.582523 170.641479 
L 192.809024 166.174299 
L 193.035526 118.152111 
L 193.262027 236.532388 
L 193.488529 238.765978 
L 193.71503 242.116364 
L 193.941532 155.006348 
L 194.168033 242.116364 
L 194.394535 175.108659 
L 194.621036 242.116364 
L 195.074039 242.116364 
L 195.300541 230.948413 
L 195.527042 242.116364 
L 195.753544 155.006348 
L 195.980045 184.04302 
L 196.206547 86.881849 
L 196.433048 242.116364 
L 196.65955 242.116364 
L 196.886051 159.473529 
L 197.112553 238.765978 
L 197.339054 242.116364 
L 197.565556 237.649183 
L 197.792057 242.116364 
L 198.018559 90.232234 
L 198.24506 239.882773 
L 198.471561 238.765978 
L 198.698063 240.999569 
L 198.924564 242.116364 
L 199.151066 236.532388 
L 199.604069 242.116364 
L 199.83057 232.065208 
L 200.057072 232.065208 
L 200.283573 237.649183 
L 200.510075 239.882773 
L 200.736576 237.649183 
L 200.963078 232.065208 
L 201.189579 239.882773 
L 201.416081 182.926225 
L 201.642582 44.443636 
L 201.869084 240.999569 
L 202.095585 242.116364 
L 202.322087 242.116364 
L 202.548588 228.714823 
L 202.77509 242.116364 
L 203.001591 235.415593 
L 203.228093 233.182003 
L 203.454594 225.364438 
L 203.681096 240.999569 
L 203.907597 242.116364 
L 204.3606 242.116364 
L 204.587102 237.649183 
L 204.813603 230.948413 
L 205.040105 242.116364 
L 205.719609 242.116364 
L 205.946111 238.765978 
L 206.172612 242.116364 
L 206.399113 242.116364 
L 206.625615 240.999569 
L 206.852116 242.116364 
L 207.078618 242.116364 
L 207.305119 238.765978 
L 207.531621 242.116364 
L 207.758122 238.765978 
L 207.984624 242.116364 
L 208.211125 242.116364 
L 208.437627 232.065208 
L 208.664128 242.116364 
L 214.326665 242.116364 
L 214.553167 224.247643 
L 214.779668 242.116364 
L 215.00617 242.116364 
L 215.232671 237.649183 
L 215.459173 242.116364 
L 215.685674 242.116364 
L 215.912176 238.765978 
L 216.138677 239.882773 
L 216.365179 242.116364 
L 216.59168 224.247643 
L 216.818182 242.116364 
L 217.044683 242.116364 
L 217.497686 152.772758 
L 217.724188 242.116364 
L 217.950689 187.393405 
L 218.177191 172.875069 
L 218.403692 101.400185 
L 218.630194 210.846102 
L 218.856695 96.933005 
L 219.083197 189.626995 
L 219.309698 197.444561 
L 219.5362 117.035316 
L 219.762701 219.780462 
L 219.989203 50.027612 
L 220.215704 191.860586 
L 220.442206 192.977381 
L 220.668707 61.195562 
L 220.895209 199.678151 
L 221.12171 190.74379 
L 221.348212 172.875069 
L 221.801215 196.327766 
L 222.027716 163.940709 
L 222.254217 190.74379 
L 222.480719 187.393405 
L 222.70722 192.977381 
L 222.933722 238.765978 
L 223.160223 141.604807 
L 223.386725 181.80943 
L 223.613226 125.969676 
L 224.066229 195.210971 
L 224.292731 189.626995 
L 224.519232 234.298798 
L 225.198737 103.633775 
L 225.425238 115.918521 
L 225.65174 198.561356 
L 225.878241 234.298798 
L 226.104743 242.116364 
L 226.331244 121.502496 
L 226.557746 94.699414 
L 226.784247 235.415593 
L 227.010749 204.145331 
L 227.23725 234.298798 
L 227.463752 242.116364 
L 227.690253 242.116364 
L 227.916755 198.561356 
L 228.143256 197.444561 
L 228.369758 242.116364 
L 228.596259 238.765978 
L 229.049262 137.137627 
L 229.502265 242.116364 
L 229.728767 168.407889 
L 230.181769 196.327766 
L 230.408271 166.174299 
L 230.634772 86.881849 
L 230.861274 189.626995 
L 231.087775 170.641479 
L 231.314277 171.758274 
L 231.540778 239.882773 
L 231.993781 197.444561 
L 232.220283 152.772758 
L 232.446784 223.130847 
L 232.673286 172.875069 
L 232.899787 238.765978 
L 233.126289 239.882773 
L 233.35279 238.765978 
L 233.579292 240.999569 
L 233.805793 227.598028 
L 234.032295 190.74379 
L 234.258796 190.74379 
L 234.485298 223.130847 
L 234.711799 235.415593 
L 235.164802 237.649183 
L 235.391304 242.116364 
L 235.617805 240.999569 
L 235.844307 242.116364 
L 236.070808 239.882773 
L 236.29731 223.130847 
L 236.750313 179.57584 
L 236.976814 242.116364 
L 237.203316 240.999569 
L 237.429817 235.415593 
L 237.656318 237.649183 
L 237.88282 223.130847 
L 238.109321 242.116364 
L 238.335823 238.765978 
L 238.562324 242.116364 
L 238.788826 238.765978 
L 239.015327 223.130847 
L 239.241829 242.116364 
L 239.921333 230.948413 
L 240.147835 242.116364 
L 240.374336 242.116364 
L 240.600838 240.999569 
L 240.827339 201.911741 
L 241.280342 242.116364 
L 241.506844 242.116364 
L 241.733345 238.765978 
L 241.959847 238.765978 
L 242.186348 205.262126 
L 242.639351 238.765978 
L 242.865853 239.882773 
L 243.092354 123.736086 
L 243.318856 201.911741 
L 243.545357 237.649183 
L 243.771859 232.065208 
L 243.99836 242.116364 
L 244.224862 240.999569 
L 244.451363 242.116364 
L 244.677865 240.999569 
L 244.904366 234.298798 
L 245.130868 240.999569 
L 245.58387 225.364438 
L 246.036873 242.116364 
L 246.263375 203.028536 
L 246.489876 235.415593 
L 246.716378 240.999569 
L 247.169381 218.663667 
L 247.395882 220.897257 
L 247.848885 188.5102 
L 248.075387 182.926225 
L 248.301888 188.5102 
L 248.52839 166.174299 
L 248.754891 186.27661 
L 249.207894 200.794946 
L 249.434396 93.582619 
L 249.660897 175.108659 
L 249.887399 200.794946 
L 250.1139 200.794946 
L 250.340402 213.079692 
L 250.566903 197.444561 
L 250.793405 191.860586 
L 251.019906 242.116364 
L 251.246408 242.116364 
L 251.699411 138.254422 
L 251.925912 180.692635 
L 252.152414 137.137627 
L 252.378915 242.116364 
L 252.605417 237.649183 
L 252.831918 239.882773 
L 253.284921 242.116364 
L 253.511422 238.765978 
L 253.737924 184.04302 
L 253.964425 198.561356 
L 254.190927 182.926225 
L 254.417428 200.794946 
L 254.64393 201.911741 
L 254.870431 237.649183 
L 255.096933 242.116364 
L 255.323434 242.116364 
L 255.549936 239.882773 
L 256.002939 242.116364 
L 256.22944 242.116364 
L 256.455942 239.882773 
L 256.682443 239.882773 
L 256.908945 232.065208 
L 257.135446 240.999569 
L 257.361948 162.823914 
L 257.588449 232.065208 
L 258.041452 242.116364 
L 258.267954 172.875069 
L 258.720957 205.262126 
L 258.947458 182.926225 
L 259.17396 203.028536 
L 259.400461 200.794946 
L 259.626963 101.400185 
L 259.853464 225.364438 
L 260.079966 236.532388 
L 260.306467 225.364438 
L 260.75947 161.707119 
L 260.985972 191.860586 
L 261.212473 189.626995 
L 261.438974 197.444561 
L 261.665476 148.305578 
L 261.891977 133.787242 
L 262.118479 242.116364 
L 262.34498 167.291094 
L 262.571482 198.561356 
L 262.797983 177.34225 
L 263.024485 197.444561 
L 263.250986 199.678151 
L 263.477488 227.598028 
L 263.703989 232.065208 
L 263.930491 242.116364 
L 264.156992 242.116364 
L 264.383494 136.020832 
L 264.609995 215.313282 
L 264.836497 242.116364 
L 265.062998 215.313282 
L 265.2895 242.116364 
L 265.969004 242.116364 
L 266.422007 90.232234 
L 266.648509 169.524684 
L 266.87501 69.013128 
L 267.101512 197.444561 
L 267.328013 192.977381 
L 267.554515 172.875069 
L 267.781016 167.291094 
L 268.234019 207.495716 
L 268.460521 141.604807 
L 268.687022 237.649183 
L 268.913524 196.327766 
L 269.140025 242.116364 
L 269.593028 242.116364 
L 269.819529 188.5102 
L 270.046031 242.116364 
L 270.272532 242.116364 
L 270.499034 229.831618 
L 270.952037 185.159815 
L 271.178538 201.911741 
L 271.40504 178.459045 
L 271.631541 239.882773 
L 271.858043 237.649183 
L 272.084544 190.74379 
L 272.311046 242.116364 
L 272.537547 239.882773 
L 272.764049 242.116364 
L 272.99055 239.882773 
L 273.217052 242.116364 
L 273.670055 242.116364 
L 273.896556 238.765978 
L 274.123058 240.999569 
L 274.349559 237.649183 
L 274.576061 242.116364 
L 274.802562 239.882773 
L 275.029064 242.116364 
L 275.255565 240.999569 
L 275.482067 233.182003 
L 275.708568 239.882773 
L 275.93507 242.116364 
L 276.161571 240.999569 
L 276.388073 242.116364 
L 276.614574 238.765978 
L 276.841076 242.116364 
L 277.067577 242.116364 
L 277.294078 240.999569 
L 277.52058 234.298798 
L 277.747081 239.882773 
L 277.973583 242.116364 
L 278.200084 240.999569 
L 278.426586 242.116364 
L 278.653087 242.116364 
L 278.879589 233.182003 
L 279.10609 235.415593 
L 279.332592 238.765978 
L 279.559093 239.882773 
L 279.785595 236.532388 
L 280.012096 242.116364 
L 280.238598 233.182003 
L 280.465099 238.765978 
L 280.691601 140.488012 
L 280.918102 187.393405 
L 281.144604 194.094176 
L 281.371105 239.882773 
L 281.597607 197.444561 
L 281.824108 128.203267 
L 282.05061 198.561356 
L 282.277111 204.145331 
L 282.503613 151.655963 
L 282.956616 195.210971 
L 283.183117 190.74379 
L 283.409619 170.641479 
L 283.63612 161.707119 
L 283.862622 168.407889 
L 284.089123 242.116364 
L 284.315625 230.948413 
L 284.542126 177.34225 
L 284.768628 184.04302 
L 284.995129 161.707119 
L 285.448132 170.641479 
L 285.674633 194.094176 
L 285.901135 181.80943 
L 286.127636 235.415593 
L 286.354138 240.999569 
L 286.580639 237.649183 
L 286.807141 239.882773 
L 287.033642 166.174299 
L 287.260144 239.882773 
L 287.486645 237.649183 
L 287.713147 242.116364 
L 288.16615 235.415593 
L 288.392651 177.34225 
L 288.619153 194.094176 
L 288.845654 175.108659 
L 289.072156 220.897257 
L 289.298657 239.882773 
L 289.525159 170.641479 
L 289.75166 235.415593 
L 289.978162 242.116364 
L 290.204663 65.662743 
L 290.431165 237.649183 
L 290.657666 240.999569 
L 291.110669 198.561356 
L 291.563672 239.882773 
L 291.790174 240.999569 
L 292.016675 240.999569 
L 292.243177 237.649183 
L 292.469678 238.765978 
L 292.69618 220.897257 
L 292.922681 220.897257 
L 293.149182 232.065208 
L 293.375684 203.028536 
L 293.828687 236.532388 
L 294.055188 168.407889 
L 294.508191 242.116364 
L 295.414197 242.116364 
L 295.640699 200.794946 
L 296.093702 168.407889 
L 296.320203 235.415593 
L 296.546705 239.882773 
L 296.773206 222.014052 
L 296.999708 237.649183 
L 297.226209 228.714823 
L 297.452711 242.116364 
L 297.679212 232.065208 
L 297.905714 242.116364 
L 298.132215 237.649183 
L 298.358717 173.991864 
L 298.585218 235.415593 
L 298.81172 230.948413 
L 299.038221 242.116364 
L 299.264723 128.203267 
L 299.491224 199.678151 
L 299.717726 108.100955 
L 299.944227 177.34225 
L 300.170729 81.297874 
L 300.850233 238.765978 
L 301.076734 213.079692 
L 301.303236 242.116364 
L 301.529737 239.882773 
L 301.756239 226.481233 
L 302.209242 242.116364 
L 302.435743 236.532388 
L 302.662245 238.765978 
L 302.888746 236.532388 
L 303.341749 236.532388 
L 303.568251 147.188783 
L 303.794752 188.5102 
L 304.021254 118.152111 
L 304.247755 128.203267 
L 304.474257 242.116364 
L 304.700758 180.692635 
L 304.92726 242.116364 
L 305.153761 170.641479 
L 305.380263 188.5102 
L 305.606764 187.393405 
L 305.833266 150.539168 
L 306.059767 163.940709 
L 306.51277 200.794946 
L 306.965773 162.823914 
L 307.192275 216.430077 
L 307.418776 182.926225 
L 307.645278 201.911741 
L 307.871779 173.991864 
L 308.098281 176.225455 
L 308.324782 147.188783 
L 308.551284 150.539168 
L 308.777785 180.692635 
L 309.004286 118.152111 
L 309.457289 230.948413 
L 309.910292 156.123143 
L 310.136794 160.590324 
L 310.363295 149.422373 
L 310.589797 177.34225 
L 310.816298 129.320062 
L 311.0428 190.74379 
L 311.269301 199.678151 
L 311.495803 171.758274 
L 311.722304 120.385701 
L 311.948806 195.210971 
L 312.175307 198.561356 
L 312.401809 196.327766 
L 312.62831 171.758274 
L 312.854812 195.210971 
L 313.081313 56.728382 
L 313.534316 191.860586 
L 313.760818 163.940709 
L 314.213821 242.116364 
L 314.440322 242.116364 
L 314.666824 213.079692 
L 315.119827 242.116364 
L 315.346328 234.298798 
L 315.57283 235.415593 
L 315.799331 242.116364 
L 316.025833 210.846102 
L 316.252334 242.116364 
L 317.15834 242.116364 
L 317.384841 238.765978 
L 317.611343 191.860586 
L 317.837844 238.765978 
L 318.064346 239.882773 
L 318.290847 238.765978 
L 318.74385 238.765978 
L 318.970352 242.116364 
L 319.196853 238.765978 
L 319.423355 151.655963 
L 319.649856 161.707119 
L 319.876358 205.262126 
L 320.102859 91.349029 
L 320.329361 238.765978 
L 320.782364 238.765978 
L 321.008865 240.999569 
L 321.235367 242.116364 
L 321.461868 242.116364 
L 321.914871 117.035316 
L 322.141373 194.094176 
L 322.367874 188.5102 
L 322.594376 179.57584 
L 322.820877 242.116364 
L 323.047379 198.561356 
L 323.27388 181.80943 
L 323.500382 181.80943 
L 323.726883 194.094176 
L 323.953385 188.5102 
L 324.179886 188.5102 
L 324.406388 242.116364 
L 324.85939 46.677227 
L 325.085892 181.80943 
L 325.312393 158.356733 
L 325.538895 185.159815 
L 325.765396 190.74379 
L 325.991898 188.5102 
L 326.218399 242.116364 
L 326.444901 186.27661 
L 326.671402 204.145331 
L 326.897904 187.393405 
L 327.124405 161.707119 
L 327.577408 179.57584 
L 327.80391 242.116364 
L 328.030411 191.860586 
L 328.256913 242.116364 
L 328.483414 224.247643 
L 328.709916 216.430077 
L 328.936417 172.875069 
L 329.162919 181.80943 
L 329.38942 201.911741 
L 329.615922 76.830693 
L 329.842423 177.34225 
L 330.068925 189.626995 
L 330.295426 161.707119 
L 330.521928 189.626995 
L 330.748429 190.74379 
L 330.974931 206.378921 
L 331.201432 242.116364 
L 331.654435 99.166595 
L 331.880937 196.327766 
L 332.107438 228.714823 
L 332.107438 228.714823 
" style="fill:none;stroke:#1f77b4;stroke-linecap:square;stroke-width:1.5;"/>
   </g>
   <g id="line2d_16">
    <path clip-path="url(#pf51f04b1ae)" d="M 101.528926 213.079692 
L 332.107438 213.079692 
L 332.107438 213.079692 
" style="fill:none;stroke:#ff7f0e;stroke-dasharray:5.55,2.4;stroke-dashoffset:0;stroke-width:1.5;"/>
   </g>
   <g id="patch_3">
    <path d="M 90 252 
L 90 34.56 
" style="fill:none;stroke:#000000;stroke-linecap:square;stroke-linejoin:miter;stroke-width:0.8;"/>
   </g>
   <g id="patch_4">
    <path d="M 343.636364 252 
L 343.636364 34.56 
" style="fill:none;stroke:#000000;stroke-linecap:square;stroke-linejoin:miter;stroke-width:0.8;"/>
   </g>
   <g id="patch_5">
    <path d="M 90 252 
L 343.636364 252 
" style="fill:none;stroke:#000000;stroke-linecap:square;stroke-linejoin:miter;stroke-width:0.8;"/>
   </g>
   <g id="patch_6">
    <path d="M 90 34.56 
L 343.636364 34.56 
" style="fill:none;stroke:#000000;stroke-linecap:square;stroke-linejoin:miter;stroke-width:0.8;"/>
   </g>
   <g id="text_17">
    <!-- 原始缺失曲线 -->
    <defs>
     <path d="M 60.15625 66.796875 
Q 57.421875 62.890625 56.25 57.8125 
L 85.15625 57.8125 
Q 84.765625 54.296875 84.765625 46.875 
L 84.765625 34.765625 
Q 84.765625 28.515625 85.15625 23.046875 
L 63.28125 23.046875 
L 63.28125 -0.78125 
Q 63.28125 -6.25 59.765625 -7.609375 
Q 56.25 -8.984375 48.4375 -9.765625 
Q 47.65625 -5.078125 45.703125 -0.78125 
Q 53.125 -1.171875 54.296875 -0.578125 
Q 55.46875 0 55.46875 2.734375 
L 55.46875 23.046875 
L 33.203125 23.046875 
Q 33.59375 27.734375 33.59375 34.375 
L 33.59375 47.265625 
Q 33.59375 53.515625 33.203125 57.8125 
L 49.21875 57.8125 
Q 51.5625 66.40625 51.5625 69.140625 
L 60.15625 66.796875 
z
M 4.296875 -5.078125 
Q 11.328125 4.296875 13.671875 16.203125 
Q 16.015625 28.125 16.015625 35.9375 
L 16.015625 64.453125 
Q 16.015625 72.65625 15.625 76.5625 
L 78.515625 76.5625 
Q 87.109375 76.5625 90.625 76.953125 
L 90.625 69.921875 
Q 87.5 70.3125 78.515625 70.3125 
L 23.828125 70.3125 
L 23.828125 37.109375 
Q 23.4375 25.78125 22.0625 17.375 
Q 20.703125 8.984375 17.765625 1.953125 
Q 14.84375 -5.078125 12.5 -8.984375 
Q 8.59375 -6.25 4.296875 -5.078125 
z
M 76.953125 43.359375 
L 76.953125 51.953125 
L 41.015625 51.953125 
L 41.015625 43.359375 
z
M 76.953125 29.296875 
L 76.953125 37.5 
L 41.015625 37.5 
L 41.015625 29.296875 
z
M 23.046875 -0.78125 
Q 28.125 2.34375 32.609375 7.03125 
Q 37.109375 11.71875 40.234375 17.1875 
Q 43.75 13.671875 46.484375 11.71875 
Q 35.9375 -0.78125 28.515625 -6.25 
Q 26.171875 -3.515625 23.046875 -0.78125 
z
M 75.390625 16.796875 
Q 89.0625 4.6875 92.578125 0.390625 
Q 89.84375 -1.953125 87.109375 -5.078125 
Q 82.03125 1.171875 70.3125 11.328125 
Q 73.046875 14.453125 75.390625 16.796875 
z
" id="SimHei-21407"/>
     <path d="M 27.34375 79.296875 
Q 25.78125 76.5625 24.796875 71.671875 
Q 23.828125 66.796875 23.046875 60.546875 
L 39.84375 60.546875 
Q 37.5 33.59375 30.46875 17.1875 
Q 35.546875 13.28125 42.578125 6.640625 
Q 39.84375 4.296875 37.109375 0.78125 
Q 31.25 7.8125 27.34375 10.546875 
Q 23.828125 4.296875 19.53125 -0.96875 
Q 15.234375 -6.25 10.9375 -10.546875 
Q 9.375 -8.203125 3.90625 -5.46875 
Q 8.984375 -1.953125 13.46875 3.125 
Q 17.96875 8.203125 21.484375 15.234375 
Q 12.5 21.875 7.8125 24.21875 
Q 13.671875 45.703125 14.84375 53.515625 
Q 10.15625 53.515625 5.078125 53.125 
L 5.078125 60.9375 
Q 10.546875 60.546875 16.015625 60.546875 
Q 18.359375 75.390625 18.359375 81.640625 
Q 24.21875 80.078125 27.34375 79.296875 
z
M 89.453125 32.03125 
Q 89.0625 25.78125 89.0625 10.15625 
Q 89.0625 -5.078125 89.453125 -10.15625 
L 81.25 -10.15625 
L 81.25 -1.5625 
L 53.90625 -1.5625 
L 53.90625 -10.546875 
L 46.09375 -10.546875 
Q 46.484375 -4.6875 46.484375 10.546875 
Q 46.484375 25.78125 46.09375 32.03125 
L 89.453125 32.03125 
z
M 68.75 77.34375 
Q 58.59375 60.546875 50.78125 49.21875 
Q 60.546875 49.21875 66.40625 49.609375 
Q 72.265625 50 81.25 50.390625 
Q 76.171875 57.421875 72.265625 60.9375 
Q 75.390625 62.5 78.515625 66.015625 
Q 89.84375 51.5625 95.703125 44.53125 
Q 93.75 43.359375 89.453125 39.84375 
Q 87.109375 43.359375 85.15625 44.921875 
Q 71.484375 44.140625 61.515625 43.15625 
Q 51.5625 42.1875 44.140625 40.234375 
Q 43.359375 43.75 40.625 48.4375 
Q 44.921875 50.390625 50.578125 60.15625 
Q 56.25 69.921875 59.765625 81.25 
Q 62.890625 78.90625 68.75 77.34375 
z
M 81.25 5.078125 
L 81.25 25 
L 53.90625 25 
L 53.90625 5.078125 
z
M 16.015625 27.734375 
Q 20.3125 24.21875 24.609375 21.875 
Q 26.953125 26.953125 29.296875 36.515625 
Q 31.640625 46.09375 32.03125 53.515625 
L 21.875 53.515625 
Q 20.3125 46.09375 16.015625 27.734375 
z
" id="SimHei-22987"/>
     <path d="M 91.015625 7.8125 
Q 91.015625 -3.125 91.40625 -8.59375 
L 82.421875 -8.59375 
L 82.421875 -0.78125 
L 17.96875 -0.78125 
L 17.96875 -8.59375 
L 8.984375 -8.59375 
Q 9.375 1.953125 9.375 8.59375 
L 9.375 43.359375 
Q 9.375 53.515625 8.984375 60.9375 
L 33.59375 60.9375 
L 33.59375 69.53125 
Q 33.203125 75.78125 33.203125 80.46875 
L 42.1875 80.46875 
Q 41.40625 75.390625 41.40625 69.921875 
L 41.40625 60.9375 
L 57.8125 60.9375 
L 57.8125 70.703125 
Q 57.8125 75.78125 57.421875 80.859375 
L 66.40625 80.859375 
Q 66.015625 76.171875 66.015625 71.09375 
L 66.015625 60.9375 
L 91.40625 60.9375 
Q 91.015625 55.078125 91.015625 42.96875 
z
M 57.8125 5.078125 
L 57.8125 29.296875 
L 41.40625 29.296875 
L 41.40625 5.078125 
z
M 82.421875 5.078125 
L 82.421875 29.296875 
L 66.015625 29.296875 
L 66.015625 5.078125 
z
M 33.59375 5.078125 
L 33.59375 29.296875 
L 17.96875 29.296875 
L 17.96875 5.078125 
z
M 57.8125 35.15625 
L 57.8125 55.078125 
L 41.40625 55.078125 
L 41.40625 35.15625 
z
M 82.421875 35.15625 
L 82.421875 55.078125 
L 66.015625 55.078125 
L 66.015625 35.15625 
z
M 33.59375 35.15625 
L 33.59375 55.078125 
L 17.96875 55.078125 
L 17.96875 35.15625 
z
" id="SimHei-26354"/>
     <path d="M 53.90625 67.1875 
Q 53.90625 73.046875 52.734375 80.078125 
Q 57.8125 79.6875 63.28125 78.90625 
Q 62.109375 76.5625 61.71875 71.28125 
Q 61.328125 66.015625 61.71875 56.25 
L 75 58.59375 
Q 81.640625 60.15625 88.28125 62.109375 
L 89.84375 54.6875 
Q 83.203125 53.90625 76.171875 52.734375 
L 62.109375 50 
Q 62.109375 43.75 62.890625 39.0625 
L 78.125 41.796875 
Q 85.9375 43.359375 92.96875 45.703125 
L 94.140625 38.28125 
Q 87.109375 37.109375 79.296875 35.546875 
L 64.0625 32.8125 
Q 64.84375 25 67.96875 18.359375 
Q 71.484375 21.09375 74.796875 24.609375 
Q 78.125 28.125 80.859375 32.421875 
Q 86.71875 27.734375 89.84375 26.171875 
Q 84.765625 23.828125 81.828125 20.890625 
Q 78.90625 17.96875 72.265625 11.71875 
Q 76.953125 3.90625 80.65625 1.75 
Q 84.375 -0.390625 85.9375 1.5625 
Q 87.5 3.515625 88.671875 9.765625 
Q 92.1875 7.03125 96.875 5.46875 
Q 90.234375 -11.71875 82.421875 -8.390625 
Q 74.609375 -5.078125 66.015625 7.03125 
Q 60.546875 2.734375 55.265625 -0.96875 
Q 50 -4.6875 42.1875 -8.59375 
Q 40.234375 -4.6875 36.328125 -1.5625 
Q 44.140625 1.171875 49.609375 4.296875 
Q 55.078125 7.421875 62.109375 13.28125 
Q 58.59375 21.09375 57.03125 31.640625 
Q 45.3125 29.6875 40.625 28.125 
L 39.453125 35.546875 
Q 44.140625 35.546875 55.46875 37.890625 
Q 54.6875 44.140625 54.6875 48.4375 
Q 44.140625 46.09375 40.234375 44.921875 
L 38.671875 52.34375 
Q 42.578125 52.34375 53.90625 54.6875 
z
M 30.46875 76.171875 
Q 26.5625 72.65625 22.84375 66.203125 
Q 19.140625 59.765625 12.890625 50.390625 
Q 22.265625 50.78125 25.78125 50.78125 
Q 29.296875 56.640625 32.03125 63.671875 
Q 35.9375 60.9375 40.625 59.375 
Q 36.71875 55.46875 32.609375 48.828125 
Q 28.515625 42.1875 18.359375 26.171875 
Q 28.90625 26.953125 37.109375 27.734375 
Q 35.9375 23.828125 35.9375 21.09375 
Q 33.203125 21.09375 23.828125 20.109375 
Q 14.453125 19.140625 8.59375 17.578125 
Q 8.203125 21.484375 6.25 25.78125 
Q 10.9375 26.953125 14.84375 32.03125 
Q 18.75 37.109375 23.046875 44.921875 
Q 10.15625 44.140625 6.640625 41.796875 
Q 5.46875 46.09375 3.125 50.390625 
Q 8.203125 53.90625 12.890625 61.90625 
Q 17.578125 69.921875 21.484375 80.46875 
Q 25.390625 77.734375 30.46875 76.171875 
z
M 40.234375 13.671875 
Q 39.84375 9.375 40.234375 7.03125 
Q 30.46875 5.078125 22.65625 3.125 
Q 14.84375 1.171875 8.203125 -1.171875 
Q 7.03125 3.125 3.90625 7.421875 
Q 14.84375 8.59375 20.703125 9.5625 
Q 26.5625 10.546875 40.234375 13.671875 
z
M 75.78125 62.890625 
Q 73.046875 67.1875 68.359375 73.046875 
L 74.609375 76.171875 
Q 76.171875 74.21875 82.421875 66.796875 
Q 78.515625 65.234375 75.78125 62.890625 
z
" id="SimHei-32447"/>
    </defs>
    <g transform="translate(180.818182 28.56)scale(0.12 -0.12)">
     <use xlink:href="#SimHei-21407"/>
     <use x="100" xlink:href="#SimHei-22987"/>
     <use x="200" xlink:href="#SimHei-32570"/>
     <use x="300" xlink:href="#SimHei-22833"/>
     <use x="400" xlink:href="#SimHei-26354"/>
     <use x="500" xlink:href="#SimHei-32447"/>
    </g>
   </g>
   <g id="legend_1">
    <g id="patch_7">
     <path d="M 97 71.270938 
L 189 71.270938 
Q 191 71.270938 191 69.270938 
L 191 41.56 
Q 191 39.56 189 39.56 
L 97 39.56 
Q 95 39.56 95 41.56 
L 95 69.270938 
Q 95 71.270938 97 71.270938 
z
" style="fill:#ffffff;opacity:0.8;stroke:#cccccc;stroke-linejoin:miter;"/>
    </g>
    <g id="line2d_17">
     <path d="M 99 48.106875 
L 119 48.106875 
" style="fill:none;stroke:#1f77b4;stroke-linecap:square;stroke-width:1.5;"/>
    </g>
    <g id="line2d_18"/>
    <g id="text_18">
     <!-- 缺失线 -->
     <g transform="translate(127 51.606875)scale(0.1 -0.1)">
      <use xlink:href="#SimHei-32570"/>
      <use x="100" xlink:href="#SimHei-22833"/>
      <use x="200" xlink:href="#SimHei-32447"/>
     </g>
    </g>
    <g id="line2d_19">
     <path d="M 99 62.520938 
L 119 62.520938 
" style="fill:none;stroke:#ff7f0e;stroke-dasharray:5.55,2.4;stroke-dashoffset:0;stroke-width:1.5;"/>
    </g>
    <g id="line2d_20"/>
    <g id="text_19">
     <!-- 阈值线(28秒) -->
     <defs>
      <path d="M 81.640625 12.890625 
Q 76.953125 1.171875 72.0625 2.34375 
Q 67.1875 3.515625 62.109375 12.5 
Q 60.15625 9.375 57.609375 5.65625 
Q 55.078125 1.953125 51.953125 -1.5625 
Q 49.21875 0.78125 44.921875 2.734375 
Q 49.21875 6.640625 52.140625 10.734375 
Q 55.078125 14.84375 57.8125 19.53125 
Q 55.078125 27.34375 53.703125 32.609375 
Q 52.34375 37.890625 51.5625 49.609375 
L 29.6875 49.609375 
Q 26.171875 49.609375 21.09375 49.21875 
L 21.09375 55.46875 
Q 26.171875 55.078125 29.6875 55.078125 
L 51.5625 55.078125 
Q 50.78125 62.890625 50.390625 67.1875 
Q 53.515625 66.796875 58.984375 66.796875 
Q 58.59375 60.15625 58.59375 55.078125 
L 69.140625 55.078125 
Q 73.046875 55.078125 79.296875 55.46875 
L 79.296875 49.21875 
Q 73.046875 49.609375 69.140625 49.609375 
L 58.59375 49.609375 
Q 58.59375 45.3125 59.5625 38.671875 
Q 60.546875 32.03125 62.5 27.734375 
Q 63.671875 30.859375 64.640625 34.953125 
Q 65.625 39.0625 66.40625 45.703125 
Q 73.046875 43.75 75.78125 42.578125 
Q 73.4375 39.84375 71.28125 33 
Q 69.140625 26.171875 66.015625 18.75 
Q 67.96875 14.84375 70.890625 12.296875 
Q 73.828125 9.765625 75.78125 17.1875 
Q 79.296875 14.453125 81.640625 12.890625 
z
M 92.1875 76.171875 
Q 91.796875 68.75 91.796875 59.765625 
L 91.796875 1.5625 
Q 91.796875 -6.25 86.71875 -7.421875 
Q 81.640625 -8.59375 75.78125 -9.765625 
Q 74.21875 -5.46875 71.484375 -0.78125 
Q 80.46875 -1.171875 82.8125 -0.78125 
Q 85.15625 -0.390625 85.15625 4.6875 
L 85.15625 70.3125 
L 56.25 70.3125 
Q 47.65625 70.3125 37.5 69.921875 
L 37.5 76.5625 
Q 47.65625 76.171875 55.46875 76.171875 
z
M 47.65625 42.578125 
Q 46.484375 38.28125 46.484375 34.375 
L 46.484375 20.3125 
L 22.65625 20.3125 
Q 23.046875 24.21875 23.046875 26.953125 
L 23.046875 34.375 
Q 23.046875 37.890625 22.65625 42.578125 
L 47.65625 42.578125 
z
M 16.796875 60.15625 
Q 16.40625 54.296875 16.40625 48.4375 
L 16.40625 -8.984375 
L 8.59375 -8.984375 
Q 9.375 1.5625 9.375 9.765625 
L 9.375 46.484375 
Q 9.375 54.6875 8.59375 60.15625 
L 16.796875 60.15625 
z
M 48.4375 16.40625 
Q 48.046875 12.109375 48.4375 10.15625 
Q 43.359375 8.984375 34.375 7.03125 
Q 25.390625 5.078125 20.703125 3.125 
Q 18.75 7.421875 17.578125 11.328125 
Q 22.265625 11.71875 31.046875 13.28125 
Q 39.84375 14.84375 48.4375 16.40625 
z
M 21.484375 82.421875 
Q 25.78125 76.5625 30.859375 68.359375 
Q 26.953125 66.015625 23.046875 64.0625 
Q 18.75 72.265625 14.0625 78.125 
Q 17.96875 81.25 21.484375 82.421875 
z
M 39.84375 26.171875 
L 39.84375 36.71875 
L 29.6875 36.71875 
L 29.6875 26.171875 
z
M 70.3125 68.75 
Q 72.265625 64.84375 75 60.546875 
Q 72.265625 59.375 67.96875 57.03125 
Q 66.015625 61.328125 63.671875 65.234375 
Q 67.578125 67.96875 70.3125 68.75 
z
" id="SimHei-38408"/>
      <path d="M 57.421875 69.53125 
L 57.421875 79.6875 
Q 62.109375 79.296875 67.96875 78.90625 
Q 66.015625 76.171875 65.625 69.53125 
L 80.078125 69.53125 
Q 86.71875 69.53125 91.796875 69.921875 
L 91.796875 62.890625 
Q 86.328125 63.28125 80.078125 63.28125 
L 65.234375 63.28125 
L 64.453125 54.6875 
L 84.375 54.6875 
Q 83.984375 50 83.984375 42.1875 
L 83.984375 2.34375 
Q 91.796875 2.34375 95.3125 2.734375 
L 95.3125 -4.296875 
Q 90.234375 -3.90625 81.25 -3.90625 
L 44.53125 -3.90625 
Q 35.546875 -3.90625 29.6875 -4.296875 
L 29.6875 2.734375 
Q 33.203125 2.34375 40.625 2.34375 
L 40.625 42.1875 
Q 40.625 49.609375 40.234375 54.6875 
L 56.25 54.6875 
L 57.03125 63.28125 
L 50 63.28125 
Q 40.234375 63.28125 34.765625 62.890625 
L 34.765625 69.921875 
Q 39.84375 69.53125 50 69.53125 
z
M 34.765625 76.5625 
Q 31.640625 73.046875 25.78125 58.59375 
L 25.78125 7.03125 
Q 25.78125 -1.171875 26.171875 -8.59375 
L 17.96875 -8.59375 
Q 18.359375 -1.953125 18.359375 5.859375 
L 18.359375 46.09375 
Q 13.671875 38.28125 9.765625 33.59375 
Q 6.640625 37.890625 3.90625 40.234375 
Q 7.8125 44.140625 14.640625 55.265625 
Q 21.484375 66.40625 25.390625 80.46875 
Q 30.859375 77.734375 34.765625 76.5625 
z
M 76.953125 41.40625 
L 76.953125 49.21875 
L 48.046875 49.21875 
L 48.046875 41.40625 
z
M 76.953125 2.34375 
L 76.953125 9.765625 
L 48.046875 9.765625 
L 48.046875 2.34375 
z
M 76.953125 15.625 
L 76.953125 22.65625 
L 48.046875 22.65625 
L 48.046875 15.625 
z
M 76.953125 28.515625 
L 76.953125 35.546875 
L 48.046875 35.546875 
L 48.046875 28.515625 
z
" id="SimHei-20540"/>
     </defs>
     <g transform="translate(127 66.020938)scale(0.1 -0.1)">
      <use xlink:href="#SimHei-38408"/>
      <use x="100" xlink:href="#SimHei-20540"/>
      <use x="200" xlink:href="#SimHei-32447"/>
      <use x="300" xlink:href="#SimHei-40"/>
      <use x="350" xlink:href="#SimHei-50"/>
      <use x="400" xlink:href="#SimHei-56"/>
      <use x="450" xlink:href="#SimHei-31186"/>
      <use x="550" xlink:href="#SimHei-41"/>
     </g>
    </g>
   </g>
  </g>
  <g id="axes_2">
   <g id="patch_8">
    <path d="M 394.363636 252 
L 648 252 
L 648 34.56 
L 394.363636 34.56 
z
" style="fill:#ffffff;"/>
   </g>
   <g id="matplotlib.axis_3">
    <g id="xtick_7">
     <g id="line2d_21">
      <g>
       <use style="stroke:#000000;stroke-width:0.8;" x="405.892562" xlink:href="#m62774893a5" y="252"/>
      </g>
     </g>
     <g id="text_20">
      <!-- 0 -->
      <g transform="translate(403.392562 265.875)scale(0.1 -0.1)">
       <use xlink:href="#SimHei-48"/>
      </g>
     </g>
    </g>
    <g id="xtick_8">
     <g id="line2d_22">
      <g>
       <use style="stroke:#000000;stroke-width:0.8;" x="451.192859" xlink:href="#m62774893a5" y="252"/>
      </g>
     </g>
     <g id="text_21">
      <!-- 200 -->
      <g transform="translate(443.692859 265.875)scale(0.1 -0.1)">
       <use xlink:href="#SimHei-50"/>
       <use x="50" xlink:href="#SimHei-48"/>
       <use x="100" xlink:href="#SimHei-48"/>
      </g>
     </g>
    </g>
    <g id="xtick_9">
     <g id="line2d_23">
      <g>
       <use style="stroke:#000000;stroke-width:0.8;" x="496.493156" xlink:href="#m62774893a5" y="252"/>
      </g>
     </g>
     <g id="text_22">
      <!-- 400 -->
      <g transform="translate(488.993156 265.875)scale(0.1 -0.1)">
       <use xlink:href="#SimHei-52"/>
       <use x="50" xlink:href="#SimHei-48"/>
       <use x="100" xlink:href="#SimHei-48"/>
      </g>
     </g>
    </g>
    <g id="xtick_10">
     <g id="line2d_24">
      <g>
       <use style="stroke:#000000;stroke-width:0.8;" x="541.793453" xlink:href="#m62774893a5" y="252"/>
      </g>
     </g>
     <g id="text_23">
      <!-- 600 -->
      <g transform="translate(534.293453 265.875)scale(0.1 -0.1)">
       <use xlink:href="#SimHei-54"/>
       <use x="50" xlink:href="#SimHei-48"/>
       <use x="100" xlink:href="#SimHei-48"/>
      </g>
     </g>
    </g>
    <g id="xtick_11">
     <g id="line2d_25">
      <g>
       <use style="stroke:#000000;stroke-width:0.8;" x="587.093751" xlink:href="#m62774893a5" y="252"/>
      </g>
     </g>
     <g id="text_24">
      <!-- 800 -->
      <g transform="translate(579.593751 265.875)scale(0.1 -0.1)">
       <use xlink:href="#SimHei-56"/>
       <use x="50" xlink:href="#SimHei-48"/>
       <use x="100" xlink:href="#SimHei-48"/>
      </g>
     </g>
    </g>
    <g id="xtick_12">
     <g id="line2d_26">
      <g>
       <use style="stroke:#000000;stroke-width:0.8;" x="632.394048" xlink:href="#m62774893a5" y="252"/>
      </g>
     </g>
     <g id="text_25">
      <!-- 1000 -->
      <g transform="translate(622.394048 265.875)scale(0.1 -0.1)">
       <use xlink:href="#SimHei-49"/>
       <use x="50" xlink:href="#SimHei-48"/>
       <use x="100" xlink:href="#SimHei-48"/>
       <use x="150" xlink:href="#SimHei-48"/>
      </g>
     </g>
    </g>
    <g id="text_26">
     <!-- 缺失段序号 -->
     <g transform="translate(496.181818 279.171875)scale(0.1 -0.1)">
      <use xlink:href="#SimHei-32570"/>
      <use x="100" xlink:href="#SimHei-22833"/>
      <use x="200" xlink:href="#SimHei-27573"/>
      <use x="300" xlink:href="#SimHei-24207"/>
      <use x="400" xlink:href="#SimHei-21495"/>
     </g>
    </g>
   </g>
   <g id="matplotlib.axis_4">
    <g id="ytick_9">
     <g id="line2d_27">
      <g>
       <use style="stroke:#000000;stroke-width:0.8;" x="394.363636" xlink:href="#m725e8ccd4b" y="231.657489"/>
      </g>
     </g>
     <g id="text_27">
      <!-- 0 -->
      <g transform="translate(382.363636 235.094989)scale(0.1 -0.1)">
       <use xlink:href="#SimHei-48"/>
      </g>
     </g>
    </g>
    <g id="ytick_10">
     <g id="line2d_28">
      <g>
       <use style="stroke:#000000;stroke-width:0.8;" x="394.363636" xlink:href="#m725e8ccd4b" y="205.510303"/>
      </g>
     </g>
     <g id="text_28">
      <!-- 25 -->
      <g transform="translate(377.363636 208.947803)scale(0.1 -0.1)">
       <use xlink:href="#SimHei-50"/>
       <use x="50" xlink:href="#SimHei-53"/>
      </g>
     </g>
    </g>
    <g id="ytick_11">
     <g id="line2d_29">
      <g>
       <use style="stroke:#000000;stroke-width:0.8;" x="394.363636" xlink:href="#m725e8ccd4b" y="179.363117"/>
      </g>
     </g>
     <g id="text_29">
      <!-- 50 -->
      <g transform="translate(377.363636 182.800617)scale(0.1 -0.1)">
       <use xlink:href="#SimHei-53"/>
       <use x="50" xlink:href="#SimHei-48"/>
      </g>
     </g>
    </g>
    <g id="ytick_12">
     <g id="line2d_30">
      <g>
       <use style="stroke:#000000;stroke-width:0.8;" x="394.363636" xlink:href="#m725e8ccd4b" y="153.215931"/>
      </g>
     </g>
     <g id="text_30">
      <!-- 75 -->
      <g transform="translate(377.363636 156.653431)scale(0.1 -0.1)">
       <use xlink:href="#SimHei-55"/>
       <use x="50" xlink:href="#SimHei-53"/>
      </g>
     </g>
    </g>
    <g id="ytick_13">
     <g id="line2d_31">
      <g>
       <use style="stroke:#000000;stroke-width:0.8;" x="394.363636" xlink:href="#m725e8ccd4b" y="127.068745"/>
      </g>
     </g>
     <g id="text_31">
      <!-- 100 -->
      <g transform="translate(372.363636 130.506245)scale(0.1 -0.1)">
       <use xlink:href="#SimHei-49"/>
       <use x="50" xlink:href="#SimHei-48"/>
       <use x="100" xlink:href="#SimHei-48"/>
      </g>
     </g>
    </g>
    <g id="ytick_14">
     <g id="line2d_32">
      <g>
       <use style="stroke:#000000;stroke-width:0.8;" x="394.363636" xlink:href="#m725e8ccd4b" y="100.921558"/>
      </g>
     </g>
     <g id="text_32">
      <!-- 125 -->
      <g transform="translate(372.363636 104.359058)scale(0.1 -0.1)">
       <use xlink:href="#SimHei-49"/>
       <use x="50" xlink:href="#SimHei-50"/>
       <use x="100" xlink:href="#SimHei-53"/>
      </g>
     </g>
    </g>
    <g id="ytick_15">
     <g id="line2d_33">
      <g>
       <use style="stroke:#000000;stroke-width:0.8;" x="394.363636" xlink:href="#m725e8ccd4b" y="74.774372"/>
      </g>
     </g>
     <g id="text_33">
      <!-- 150 -->
      <g transform="translate(372.363636 78.211872)scale(0.1 -0.1)">
       <use xlink:href="#SimHei-49"/>
       <use x="50" xlink:href="#SimHei-53"/>
       <use x="100" xlink:href="#SimHei-48"/>
      </g>
     </g>
    </g>
    <g id="ytick_16">
     <g id="line2d_34">
      <g>
       <use style="stroke:#000000;stroke-width:0.8;" x="394.363636" xlink:href="#m725e8ccd4b" y="48.627186"/>
      </g>
     </g>
     <g id="text_34">
      <!-- 175 -->
      <g transform="translate(372.363636 52.064686)scale(0.1 -0.1)">
       <use xlink:href="#SimHei-49"/>
       <use x="50" xlink:href="#SimHei-55"/>
       <use x="100" xlink:href="#SimHei-53"/>
      </g>
     </g>
    </g>
    <g id="text_35">
     <!-- 缺失时间(秒) -->
     <g transform="translate(367.113636 173.28)rotate(-90)scale(0.1 -0.1)">
      <use xlink:href="#SimHei-32570"/>
      <use x="100" xlink:href="#SimHei-22833"/>
      <use x="200" xlink:href="#SimHei-26102"/>
      <use x="300" xlink:href="#SimHei-38388"/>
      <use x="400" xlink:href="#SimHei-40"/>
      <use x="450" xlink:href="#SimHei-31186"/>
      <use x="550" xlink:href="#SimHei-41"/>
     </g>
    </g>
   </g>
   <g id="LineCollection_1">
    <path clip-path="url(#p5ddf98443c)" d="M 557.195554 242.116364 
L 557.195554 44.443636 
" style="fill:none;stroke:#ff0000;stroke-dasharray:5.55,2.4;stroke-dashoffset:0;stroke-width:1.5;"/>
   </g>
   <g id="line2d_35">
    <path clip-path="url(#p5ddf98443c)" d="M 405.892562 229.565714 
L 482.903067 229.565714 
L 483.129569 228.519827 
L 495.813652 228.519827 
L 496.040153 227.473939 
L 507.138726 227.473939 
L 507.365228 226.428052 
L 518.4638 226.428052 
L 518.690302 225.382165 
L 525.032343 225.382165 
L 525.258845 224.336277 
L 528.429866 224.336277 
L 528.656367 223.29039 
L 532.506892 223.29039 
L 532.733394 222.244502 
L 537.942928 222.244502 
L 538.16943 221.198615 
L 540.434444 221.198615 
L 540.660946 220.152727 
L 544.058468 220.152727 
L 544.28497 219.10684 
L 546.776486 219.10684 
L 547.002988 218.060952 
L 547.229489 218.060952 
L 547.455991 217.015065 
L 547.908993 217.015065 
L 548.135495 215.969177 
L 548.588498 215.969177 
L 548.814999 214.92329 
L 549.041501 214.92329 
L 549.268002 213.877403 
L 549.947507 213.877403 
L 550.174008 212.831515 
L 551.080014 212.831515 
L 551.306516 211.785628 
L 552.665525 211.785628 
L 552.892026 210.73974 
L 553.118528 210.73974 
L 553.345029 209.693853 
L 554.93054 209.693853 
L 555.383543 207.602078 
L 555.610044 207.602078 
L 555.836545 206.55619 
L 556.063047 206.55619 
L 556.289548 205.510303 
L 556.51605 205.510303 
L 556.742551 204.464416 
L 556.969053 204.464416 
L 557.195554 202.372641 
L 557.648557 202.372641 
L 557.875059 200.280866 
L 558.328062 200.280866 
L 558.554563 197.143203 
L 559.234068 197.143203 
L 559.460569 196.097316 
L 559.913572 196.097316 
L 560.140074 195.051429 
L 561.272581 195.051429 
L 561.499083 194.005541 
L 562.63159 194.005541 
L 562.858092 192.959654 
L 563.764097 192.959654 
L 563.990599 191.913766 
L 565.802611 191.913766 
L 566.029112 190.867879 
L 567.614623 190.867879 
L 567.841124 189.821991 
L 569.426635 189.821991 
L 569.653136 188.776104 
L 571.465148 188.776104 
L 571.691649 187.730216 
L 574.183166 187.730216 
L 574.409667 186.684329 
L 576.221679 186.684329 
L 576.448181 185.638442 
L 577.580688 185.638442 
L 577.80719 184.592554 
L 579.3927 184.592554 
L 579.619201 183.546667 
L 580.525207 183.546667 
L 580.751709 182.500779 
L 582.110718 182.500779 
L 582.337219 181.454892 
L 584.602234 181.454892 
L 584.828736 180.409004 
L 586.640748 180.409004 
L 586.867249 179.363117 
L 588.905762 179.363117 
L 589.132264 178.317229 
L 590.717774 178.317229 
L 590.944276 177.271342 
L 591.62378 177.271342 
L 591.850282 176.225455 
L 592.982789 176.225455 
L 593.209291 175.179567 
L 594.341798 175.179567 
L 594.5683 174.13368 
L 596.15381 174.13368 
L 596.380311 173.087792 
L 598.418825 173.087792 
L 598.645326 172.041905 
L 599.324831 172.041905 
L 599.551332 170.996017 
L 600.910341 170.996017 
L 601.136843 169.95013 
L 601.363344 169.95013 
L 601.589846 168.904242 
L 603.401857 168.904242 
L 603.628359 167.858355 
L 604.760866 167.858355 
L 604.987368 166.812468 
L 605.440371 166.812468 
L 605.666872 165.76658 
L 606.119875 165.76658 
L 606.346377 164.720693 
L 607.478884 164.720693 
L 607.705386 163.674805 
L 608.837893 163.674805 
L 609.064395 162.628918 
L 610.423404 162.628918 
L 610.649905 161.58303 
L 610.876407 161.58303 
L 611.102908 160.537143 
L 612.008914 160.537143 
L 612.235415 159.491255 
L 612.688418 159.491255 
L 612.91492 158.445368 
L 613.594424 158.445368 
L 613.820926 156.353593 
L 614.50043 156.353593 
L 614.726932 155.307706 
L 615.406436 155.307706 
L 615.632938 154.261818 
L 616.991947 154.261818 
L 617.44495 152.170043 
L 617.671451 152.170043 
L 618.577457 147.986494 
L 619.03046 147.986494 
L 619.256961 145.894719 
L 619.483463 145.894719 
L 619.709964 144.848831 
L 619.936466 144.848831 
L 620.162967 143.802944 
L 620.842472 143.802944 
L 621.068973 142.757056 
L 621.295475 142.757056 
L 621.521976 141.711169 
L 621.748478 141.711169 
L 621.974979 140.665281 
L 622.201481 140.665281 
L 622.427982 139.619394 
L 622.654484 135.435844 
L 622.880985 135.435844 
L 623.107487 134.389957 
L 623.333988 132.298182 
L 623.56049 131.252294 
L 623.786991 131.252294 
L 624.013493 130.206407 
L 624.239994 128.114632 
L 624.466496 128.114632 
L 624.692997 123.931082 
L 624.919499 123.931082 
L 625.146 122.885195 
L 625.599003 122.885195 
L 626.052006 120.79342 
L 626.505009 116.60987 
L 626.958012 116.60987 
L 627.184513 115.563983 
L 627.411015 113.472208 
L 628.090519 113.472208 
L 628.317021 112.42632 
L 628.543522 112.42632 
L 628.770024 111.380433 
L 628.996525 107.196883 
L 629.223027 107.196883 
L 629.449528 104.059221 
L 629.67603 103.013333 
L 629.902531 99.875671 
L 630.355534 97.783896 
L 630.582036 97.783896 
L 630.808537 95.692121 
L 631.26154 95.692121 
L 631.488042 93.600346 
L 631.714543 93.600346 
L 631.941045 91.508571 
L 632.167546 90.462684 
L 632.394048 90.462684 
L 632.620549 88.370909 
L 632.847051 87.325022 
L 633.073552 87.325022 
L 633.300054 86.279134 
L 633.526555 84.187359 
L 633.753057 84.187359 
L 634.432561 75.82026 
L 634.659062 74.774372 
L 634.885564 68.499048 
L 635.112065 67.45316 
L 635.565068 60.131948 
L 635.79157 55.948398 
L 636.018071 49.673074 
L 636.471074 44.443636 
L 636.471074 44.443636 
" style="fill:none;stroke:#1f77b4;stroke-linecap:square;stroke-width:1.5;"/>
   </g>
   <g id="patch_9">
    <path d="M 394.363636 252 
L 394.363636 34.56 
" style="fill:none;stroke:#000000;stroke-linecap:square;stroke-linejoin:miter;stroke-width:0.8;"/>
   </g>
   <g id="patch_10">
    <path d="M 648 252 
L 648 34.56 
" style="fill:none;stroke:#000000;stroke-linecap:square;stroke-linejoin:miter;stroke-width:0.8;"/>
   </g>
   <g id="patch_11">
    <path d="M 394.363636 252 
L 648 252 
" style="fill:none;stroke:#000000;stroke-linecap:square;stroke-linejoin:miter;stroke-width:0.8;"/>
   </g>
   <g id="patch_12">
    <path d="M 394.363636 34.56 
L 648 34.56 
" style="fill:none;stroke:#000000;stroke-linecap:square;stroke-linejoin:miter;stroke-width:0.8;"/>
   </g>
   <g id="text_36">
    <!-- 排序的缺失曲线 -->
    <defs>
     <path d="M 3.515625 28.515625 
Q 10.546875 29.6875 17.96875 32.421875 
L 17.96875 53.515625 
L 14.84375 53.515625 
Q 10.15625 53.515625 5.46875 53.125 
L 5.46875 60.15625 
Q 9.375 59.765625 14.84375 59.765625 
L 17.96875 59.765625 
L 17.96875 70.3125 
Q 17.96875 75.78125 17.578125 80.859375 
L 26.171875 80.859375 
Q 25.390625 76.5625 25.390625 70.3125 
L 25.390625 59.765625 
Q 32.421875 59.765625 35.546875 60.15625 
L 35.546875 53.125 
Q 29.296875 53.515625 25.390625 53.515625 
L 25.390625 34.765625 
Q 30.46875 36.328125 35.546875 39.0625 
Q 35.546875 34.375 35.9375 32.03125 
Q 32.421875 30.859375 25.390625 28.125 
L 25.390625 -1.5625 
Q 25 -6.640625 22.0625 -7.8125 
Q 19.140625 -8.984375 10.9375 -10.15625 
Q 9.375 -3.515625 7.03125 -1.171875 
Q 13.671875 -1.953125 15.625 -1.75 
Q 17.578125 -1.5625 17.96875 1.171875 
L 17.96875 25.78125 
Q 13.28125 24.21875 7.03125 20.3125 
Q 5.859375 23.828125 3.515625 28.515625 
z
M 78.90625 80.078125 
Q 78.515625 75 78.515625 67.1875 
L 78.515625 62.5 
Q 89.0625 62.5 95.3125 63.28125 
L 95.3125 55.859375 
Q 89.453125 56.25 86.328125 56.25 
L 78.515625 56.25 
L 78.515625 41.015625 
Q 87.890625 41.015625 92.96875 41.40625 
L 92.96875 33.984375 
Q 87.890625 34.375 78.515625 34.375 
L 78.515625 16.796875 
Q 89.84375 16.796875 96.09375 17.1875 
L 96.09375 9.765625 
Q 91.40625 10.15625 78.515625 10.15625 
L 78.515625 4.296875 
Q 78.515625 1.171875 78.90625 -9.375 
L 71.09375 -9.375 
L 71.09375 67.1875 
Q 71.09375 75.78125 70.703125 80.078125 
L 78.90625 80.078125 
z
M 53.515625 67.96875 
Q 53.515625 76.953125 53.125 80.46875 
L 61.328125 80.46875 
Q 60.9375 75 60.9375 66.40625 
L 60.9375 -9.375 
L 53.125 -9.375 
Q 53.515625 -0.78125 53.515625 4.296875 
L 53.515625 10.15625 
Q 41.015625 10.15625 34.765625 9.765625 
L 34.765625 17.1875 
Q 39.84375 16.796875 53.515625 16.796875 
L 53.515625 34.375 
Q 43.359375 34.375 39.453125 33.59375 
L 39.453125 41.40625 
Q 42.96875 41.015625 53.515625 41.015625 
L 53.515625 56.25 
Q 42.1875 56.25 38.28125 55.859375 
L 38.28125 63.28125 
Q 42.578125 62.5 53.515625 62.5 
z
" id="SimHei-25490"/>
     <path d="M 32.8125 77.734375 
Q 30.859375 74.21875 27.34375 61.71875 
L 44.921875 61.71875 
Q 44.53125 55.078125 44.53125 44.921875 
L 44.53125 10.546875 
Q 44.53125 4.6875 44.921875 -6.25 
L 37.109375 -6.25 
L 37.109375 1.5625 
L 17.1875 1.5625 
L 17.1875 -7.03125 
L 9.375 -7.03125 
Q 9.765625 5.46875 9.765625 8.59375 
L 9.765625 44.53125 
Q 9.765625 55.078125 9.375 61.71875 
L 20.703125 61.71875 
Q 22.65625 70.703125 23.828125 80.46875 
Q 29.296875 78.515625 32.8125 77.734375 
z
M 91.015625 48.046875 
Q 90.625 24.21875 89.0625 2.734375 
Q 88.28125 -4.296875 81.640625 -6.640625 
Q 75 -8.984375 66.796875 -9.765625 
Q 66.40625 -5.46875 63.28125 -0.78125 
Q 71.09375 -1.171875 75.578125 -0.390625 
Q 80.078125 0.390625 81.25 3.125 
Q 82.421875 5.859375 83 19.140625 
Q 83.59375 32.421875 83.984375 56.25 
L 61.328125 56.25 
Q 58.203125 48.828125 52.34375 38.671875 
Q 49.609375 41.40625 45.703125 42.96875 
Q 49.21875 47.65625 52.34375 54.296875 
Q 55.46875 60.9375 57.8125 68.75 
Q 60.15625 76.5625 60.546875 80.859375 
Q 66.015625 78.515625 69.921875 77.34375 
Q 67.96875 74.21875 66.59375 70.5 
Q 65.234375 66.796875 63.671875 63.28125 
L 91.40625 63.28125 
Q 91.015625 55.078125 91.015625 48.046875 
z
M 37.109375 8.203125 
L 37.109375 28.90625 
L 17.1875 28.90625 
L 17.1875 8.203125 
z
M 37.109375 35.546875 
L 37.109375 55.078125 
L 17.1875 55.078125 
L 17.1875 35.546875 
z
M 67.96875 32.03125 
Q 70.3125 27.34375 73.4375 19.921875 
Q 70.703125 18.75 66.015625 16.015625 
Q 63.28125 23.4375 60.9375 28.703125 
Q 58.59375 33.984375 56.25 37.5 
Q 58.984375 39.0625 63.28125 41.40625 
z
" id="SimHei-30340"/>
    </defs>
    <g transform="translate(479.181818 28.56)scale(0.12 -0.12)">
     <use xlink:href="#SimHei-25490"/>
     <use x="100" xlink:href="#SimHei-24207"/>
     <use x="200" xlink:href="#SimHei-30340"/>
     <use x="300" xlink:href="#SimHei-32570"/>
     <use x="400" xlink:href="#SimHei-22833"/>
     <use x="500" xlink:href="#SimHei-26354"/>
     <use x="600" xlink:href="#SimHei-32447"/>
    </g>
   </g>
   <g id="legend_2">
    <g id="patch_13">
     <path d="M 401.363636 71.270938 
L 493.363636 71.270938 
Q 495.363636 71.270938 495.363636 69.270938 
L 495.363636 41.56 
Q 495.363636 39.56 493.363636 39.56 
L 401.363636 39.56 
Q 399.363636 39.56 399.363636 41.56 
L 399.363636 69.270938 
Q 399.363636 71.270938 401.363636 71.270938 
z
" style="fill:#ffffff;opacity:0.8;stroke:#cccccc;stroke-linejoin:miter;"/>
    </g>
    <g id="line2d_36">
     <path d="M 403.363636 48.106875 
L 423.363636 48.106875 
" style="fill:none;stroke:#1f77b4;stroke-linecap:square;stroke-width:1.5;"/>
    </g>
    <g id="line2d_37"/>
    <g id="text_37">
     <!-- 缺失线 -->
     <g transform="translate(431.363636 51.606875)scale(0.1 -0.1)">
      <use xlink:href="#SimHei-32570"/>
      <use x="100" xlink:href="#SimHei-22833"/>
      <use x="200" xlink:href="#SimHei-32447"/>
     </g>
    </g>
    <g id="line2d_38">
     <path d="M 403.363636 62.520938 
L 423.363636 62.520938 
" style="fill:none;stroke:#ff0000;stroke-dasharray:5.55,2.4;stroke-dashoffset:0;stroke-width:1.5;"/>
    </g>
    <g id="text_38">
     <!-- 阈值线(28秒) -->
     <g transform="translate(431.363636 66.020938)scale(0.1 -0.1)">
      <use xlink:href="#SimHei-38408"/>
      <use x="100" xlink:href="#SimHei-20540"/>
      <use x="200" xlink:href="#SimHei-32447"/>
      <use x="300" xlink:href="#SimHei-40"/>
      <use x="350" xlink:href="#SimHei-50"/>
      <use x="400" xlink:href="#SimHei-56"/>
      <use x="450" xlink:href="#SimHei-31186"/>
      <use x="550" xlink:href="#SimHei-41"/>
     </g>
    </g>
   </g>
  </g>
 </g>
 <defs>
  <clipPath id="pf51f04b1ae">
   <rect height="217.44" width="253.636364" x="90" y="34.56"/>
  </clipPath>
  <clipPath id="p5ddf98443c">
   <rect height="217.44" width="253.636364" x="394.363636" y="34.56"/>
  </clipPath>
 </defs>
</svg>
